<mxfile host="Electron" modified="2023-06-11T07:33:53.418Z" agent="Mozilla/5.0 (X11; Linux x86_64) AppleWebKit/537.36 (KHTML, like Gecko) draw.io/21.2.8 Chrome/112.0.5615.165 Electron/24.2.0 Safari/537.36" etag="inwe_lrLj7QLnsrXvgSm" version="21.2.8" type="device">
  <diagram name="Page-1" id="MHqlvqx7FqDZ3-izeYMZ">
    <mxGraphModel dx="2074" dy="1230" grid="1" gridSize="10" guides="1" tooltips="1" connect="1" arrows="1" fold="1" page="1" pageScale="1" pageWidth="827" pageHeight="1169" math="0" shadow="0">
      <root>
        <mxCell id="0" />
        <mxCell id="1" parent="0" />
        <mxCell id="WjoS6a5MXgaJo1_vFzQs-7" value="" style="rounded=0;whiteSpace=wrap;html=1;" parent="1" vertex="1">
          <mxGeometry x="50" y="10" width="600" height="530" as="geometry" />
        </mxCell>
        <mxCell id="40pNRldAVp_o9qbd7GbC-37" value="" style="rounded=0;whiteSpace=wrap;html=1;fillColor=#dae8fc;strokeColor=#6c8ebf;" parent="1" vertex="1">
          <mxGeometry x="190" y="60" width="400" height="470" as="geometry" />
        </mxCell>
        <mxCell id="40pNRldAVp_o9qbd7GbC-22" value="" style="rounded=1;whiteSpace=wrap;html=1;fillColor=#f8cecc;strokeColor=#b85450;" parent="1" vertex="1">
          <mxGeometry x="200" y="270" width="310" height="250" as="geometry" />
        </mxCell>
        <mxCell id="40pNRldAVp_o9qbd7GbC-21" value="" style="rounded=1;whiteSpace=wrap;html=1;fillColor=#d5e8d4;strokeColor=#82b366;" parent="1" vertex="1">
          <mxGeometry x="200" y="70" width="310" height="200" as="geometry" />
        </mxCell>
        <mxCell id="40pNRldAVp_o9qbd7GbC-25" style="edgeStyle=orthogonalEdgeStyle;rounded=0;orthogonalLoop=1;jettySize=auto;html=1;entryX=0.5;entryY=0;entryDx=0;entryDy=0;strokeWidth=3;" parent="1" source="40pNRldAVp_o9qbd7GbC-2" target="40pNRldAVp_o9qbd7GbC-7" edge="1">
          <mxGeometry relative="1" as="geometry">
            <Array as="points">
              <mxPoint x="374" y="160" />
            </Array>
          </mxGeometry>
        </mxCell>
        <mxCell id="40pNRldAVp_o9qbd7GbC-31" style="edgeStyle=orthogonalEdgeStyle;rounded=0;orthogonalLoop=1;jettySize=auto;html=1;strokeWidth=3;" parent="1" source="40pNRldAVp_o9qbd7GbC-2" target="40pNRldAVp_o9qbd7GbC-6" edge="1">
          <mxGeometry relative="1" as="geometry" />
        </mxCell>
        <mxCell id="40pNRldAVp_o9qbd7GbC-2" value="&lt;b&gt;&lt;font style=&quot;font-size: 20px;&quot;&gt;TRÆFIK&lt;/font&gt;&lt;/b&gt;" style="rounded=0;whiteSpace=wrap;html=1;" parent="1" vertex="1">
          <mxGeometry x="225" y="100" width="85" height="85" as="geometry" />
        </mxCell>
        <mxCell id="40pNRldAVp_o9qbd7GbC-34" style="edgeStyle=orthogonalEdgeStyle;rounded=0;orthogonalLoop=1;jettySize=auto;html=1;entryX=0;entryY=0.5;entryDx=0;entryDy=0;strokeWidth=3;" parent="1" edge="1">
          <mxGeometry relative="1" as="geometry">
            <mxPoint x="345" y="377.5" as="sourcePoint" />
            <mxPoint x="395" y="377.5" as="targetPoint" />
          </mxGeometry>
        </mxCell>
        <mxCell id="40pNRldAVp_o9qbd7GbC-35" style="edgeStyle=orthogonalEdgeStyle;rounded=0;orthogonalLoop=1;jettySize=auto;html=1;entryX=1;entryY=0.5;entryDx=0;entryDy=0;strokeWidth=3;" parent="1" edge="1">
          <mxGeometry relative="1" as="geometry">
            <mxPoint x="394" y="426.5" as="sourcePoint" />
            <mxPoint x="344" y="426.5" as="targetPoint" />
          </mxGeometry>
        </mxCell>
        <mxCell id="40pNRldAVp_o9qbd7GbC-6" value="&lt;b&gt;&lt;font style=&quot;font-size: 20px;&quot;&gt;pgadmin&lt;/font&gt;&lt;/b&gt;" style="rounded=0;whiteSpace=wrap;html=1;" parent="1" vertex="1">
          <mxGeometry x="400" y="350" width="100" height="105" as="geometry" />
        </mxCell>
        <mxCell id="40pNRldAVp_o9qbd7GbC-38" style="edgeStyle=orthogonalEdgeStyle;rounded=0;orthogonalLoop=1;jettySize=auto;html=1;entryX=0.25;entryY=0;entryDx=0;entryDy=0;strokeWidth=3;" parent="1" edge="1">
          <mxGeometry relative="1" as="geometry">
            <mxPoint x="358" y="260" as="sourcePoint" />
            <Array as="points">
              <mxPoint x="362" y="260" />
              <mxPoint x="288" y="260" />
            </Array>
            <mxPoint x="288" y="350" as="targetPoint" />
          </mxGeometry>
        </mxCell>
        <mxCell id="40pNRldAVp_o9qbd7GbC-7" value="&lt;b&gt;&lt;font style=&quot;font-size: 20px;&quot;&gt;API&lt;/font&gt;&lt;/b&gt;" style="rounded=0;whiteSpace=wrap;html=1;" parent="1" vertex="1">
          <mxGeometry x="334" y="230" width="80" height="80" as="geometry" />
        </mxCell>
        <mxCell id="40pNRldAVp_o9qbd7GbC-8" value="" style="endArrow=classic;html=1;rounded=0;strokeWidth=2;" parent="1" edge="1">
          <mxGeometry width="50" height="50" relative="1" as="geometry">
            <mxPoint x="145" y="130" as="sourcePoint" />
            <mxPoint x="225" y="130" as="targetPoint" />
          </mxGeometry>
        </mxCell>
        <mxCell id="40pNRldAVp_o9qbd7GbC-10" value="&lt;b&gt;&lt;font style=&quot;font-size: 16px;&quot;&gt;:80&lt;/font&gt;&lt;/b&gt;" style="edgeLabel;html=1;align=center;verticalAlign=middle;resizable=0;points=[];" parent="40pNRldAVp_o9qbd7GbC-8" vertex="1" connectable="0">
          <mxGeometry x="-0.1897" y="-1" relative="1" as="geometry">
            <mxPoint x="-1" as="offset" />
          </mxGeometry>
        </mxCell>
        <mxCell id="40pNRldAVp_o9qbd7GbC-9" value="" style="endArrow=classic;html=1;rounded=0;strokeWidth=2;" parent="1" edge="1">
          <mxGeometry width="50" height="50" relative="1" as="geometry">
            <mxPoint x="145" y="160" as="sourcePoint" />
            <mxPoint x="225" y="160" as="targetPoint" />
          </mxGeometry>
        </mxCell>
        <mxCell id="40pNRldAVp_o9qbd7GbC-11" value="&lt;font style=&quot;font-size: 16px;&quot;&gt;&lt;b&gt;:443&lt;/b&gt;&lt;/font&gt;" style="edgeLabel;html=1;align=center;verticalAlign=middle;resizable=0;points=[];" parent="40pNRldAVp_o9qbd7GbC-9" vertex="1" connectable="0">
          <mxGeometry x="-0.1724" y="2" relative="1" as="geometry">
            <mxPoint as="offset" />
          </mxGeometry>
        </mxCell>
        <mxCell id="40pNRldAVp_o9qbd7GbC-23" value="&lt;b&gt;&lt;font style=&quot;font-size: 16px;&quot;&gt;frontend network&lt;/font&gt;&lt;/b&gt;" style="text;html=1;strokeColor=none;fillColor=none;align=center;verticalAlign=middle;whiteSpace=wrap;rounded=0;" parent="1" vertex="1">
          <mxGeometry x="325" y="70" width="175" height="30" as="geometry" />
        </mxCell>
        <mxCell id="40pNRldAVp_o9qbd7GbC-24" value="&lt;b&gt;&lt;font style=&quot;font-size: 16px;&quot;&gt;backend network&lt;/font&gt;&lt;/b&gt;" style="text;html=1;strokeColor=none;fillColor=none;align=center;verticalAlign=middle;whiteSpace=wrap;rounded=0;" parent="1" vertex="1">
          <mxGeometry x="190" y="490" width="210" height="30" as="geometry" />
        </mxCell>
        <mxCell id="WjoS6a5MXgaJo1_vFzQs-3" value="&lt;b&gt;&lt;font style=&quot;font-size: 16px;&quot;&gt;DB&lt;/font&gt;&lt;/b&gt;" style="shape=cylinder3;whiteSpace=wrap;html=1;boundedLbl=1;backgroundOutline=1;size=15;" parent="1" vertex="1">
          <mxGeometry x="244" y="358.75" width="90" height="87.5" as="geometry" />
        </mxCell>
        <mxCell id="WjoS6a5MXgaJo1_vFzQs-6" value="" style="image;sketch=0;aspect=fixed;html=1;points=[];align=center;fontSize=12;image=img/lib/mscae/Docker.svg;" parent="1" vertex="1">
          <mxGeometry x="530" y="80" width="50" height="41" as="geometry" />
        </mxCell>
        <mxCell id="WjoS6a5MXgaJo1_vFzQs-8" value="&lt;b&gt;&lt;font style=&quot;font-size: 18px;&quot;&gt;&lt;u&gt;Træfik Setup Remote&lt;/u&gt;&lt;/font&gt;&lt;/b&gt;" style="text;html=1;strokeColor=none;fillColor=none;align=center;verticalAlign=middle;whiteSpace=wrap;rounded=0;" parent="1" vertex="1">
          <mxGeometry x="60" y="20" width="190" height="30" as="geometry" />
        </mxCell>
        <mxCell id="WjoS6a5MXgaJo1_vFzQs-26" value="" style="rounded=0;whiteSpace=wrap;html=1;" parent="1" vertex="1">
          <mxGeometry x="470" y="230" width="80" height="80" as="geometry" />
        </mxCell>
        <mxCell id="WjoS6a5MXgaJo1_vFzQs-28" style="edgeStyle=orthogonalEdgeStyle;rounded=0;orthogonalLoop=1;jettySize=auto;html=1;entryX=1;entryY=0.5;entryDx=0;entryDy=0;strokeWidth=3;" parent="1" source="WjoS6a5MXgaJo1_vFzQs-27" target="40pNRldAVp_o9qbd7GbC-7" edge="1">
          <mxGeometry relative="1" as="geometry" />
        </mxCell>
        <mxCell id="WjoS6a5MXgaJo1_vFzQs-27" value="" style="shape=image;aspect=fixed;image=data:image/png,iVBORw0KGgoAAAANSUhEUgAABLAAAASwCAYAAADrIbPPAAAAAXNSR0IArs4c6QAAIABJREFUeF7s3Qm8XWdd7//vs9aez5Rz0olLGSwVS4cMhLb2L1wjLW2TlqFtNqNVuFwrghcHQAXFGOUqiKhXRLFXBamCZXcASpM0tJCXcK20HDJ0oELLv2KRDsk5yRn2vNZzX89OAsXLkL3W2vusvfdnvV6n5+RkPb/ned7PSprzez3PbxlxIYAAAggggAACCCCAAAIIIIAAAgggkGIBk+KxMTQEEEAAAQQQQAABBBBAAAEEEEAAAQREAouHAAEEEEAAAQQQQAABBBBAAAEEEEAg1QIksFK9PAwOAQQQQAABBBBAAAEEEEAAAQQQQIAEFs8AAggggAACCCCAAAIIIIAAAggggECqBUhgpXp5GBwCCCCAAAIIIIAAAggggAACCCCAAAksngEEEEAAAQQQQAABBBBAAAEEEEAAgVQLkMBK9fIwOAQQQAABBBBAAAEEEEAAAQQQQAABElg8AwgggAACCCCAAAIIIIAAAggggAACqRYggZXq5WFwCCCAAAIIIIAAAggggAACCCCAAAIksHgGEEAAAQQQQAABBBBAAAEEEEAAAQRSLUACK9XLw+AQQAABBBBAAAEEEEAAAQQQQAABBEhg8QwggAACCCCAAAIIIIAAAggggAACCKRagARWqpeHwSGAAAIIIIAAAggggAACCCCAAAIIkMDiGUAAAQQQQAABBBBAAAEEEEAAAQQQSLUACaxULw+DQwABBBBAAAEEEEAAAQQQQAABBBAggcUzgAACCCCAAAIIIIAAAggggAACCCCQagESWKleHgaHAAIIIIAAAggggAACCCCAAAIIIEACi2cAAQQQQAABBBBAAAEEEEAAAQQQQCDVAiSwUr08DA4BBBBAAAEEEEAAAQQQQAABBBBAgAQWzwACCCCAAAIIIIAAAggggAACCCCAQKoFSGClenkYHAIIIIAAAggggAACCCCAAAIIIIAACSyeAQQQQAABBBBAAAEEEEAAAQQQQACBVAuQwEr18jA4BBBAAAEEEEAAAQQQQAABBBBAAAESWDwDCCCAAAIIIIAAAggggAACCCCAAAKpFiCBlerlYXAIIIAAAggggAACCCCAAAIIIIAAAiSweAYQQAABBBBAAAEEEEAAAQQQQAABBFItQAIr1cvD4BBAAAEEEEAAAQQQQAABBBBAAAEESGDxDCCAAAIIIIAAAggggAACCCCAAAIIpFqABFaql4fBIYAAAggggAACCCCAAAIIIIAAAgiQwOIZQAABBBBAAAEEEEAAAQQQQAABBBBItQAJrFQvD4NDAAEEEEAAAQQQQAABBBBAAAEEECCBxTOAAAIIIIAAAggggAACCCCAAAIIIJBqARJYqV4eBocAAggggAACCCCAAAIIIIAAAgggQAKLZwABBBBAAAEEEEAAAQQQQAABBBBAINUCJLBSvTwMDgEEEEAAAQQQQAABBBBAAAEEEECABBbPAAIIIIAAAggggAACCCCAAAIIIIBAqgVIYKV6eRgcAggggAACCCCAAAIIIIAAAggggAAJLJ4BBBBAAAEEEEAAAQQQQAABBBBAAIFUC5DASvXyMDgEEEAAAQQQQAABBBBAAAEEEEAAARJYPAMIIIAAAggggAACCCCAAAIIIIAAAqkWIIGV6uVhcAgggAACCCCAAAIIIIAAAggggAACJLB4BhBAAAEEEEAAAQQQQAABBBBAAAEEUi1AAivVy8PgEEAAAQQQQAABBBBAAAEEEEAAAQRIYPEMIIAAAggggAACCCCAAAIIIIAAAgikWoAEVqqXh8EhgAACCCCAAAIIIIAAAggggAACCJDA4hlAAAEEEEAAAQQQQAABBBBAAAEEEEi1AAmsVC8Pg0MAAQQQQAABBBBAAAEEEEAAAQQQIIHFM4AAAggggAACCCCAAAIIIIAAAgggkGoBElipXh4GhwACCCCAAAIIIIAAAggggAACCCBAAotnAAEEEEAAAQQQQAABBBBAAAEEEEAg1QIksFK9PAwOAQQQQAABBBBAAAEEEEAAAQQQQIAEFs8AAggggAACCCCAAAIIIIAAAggggECqBUhgpXp5GBwCCCCAAAIIIIAAAggggAACCCCAAAksngEEEEAAAQQQQAABBBBAAAEEEEAAgVQLkMBK9fIwOAQQQAABBBBAAAEEEEAAAQQQQAABElg8AwgggAACCCCAAAIIIIAAAggggAACqRYggZXq5WFwCCCAAAIIIIAAAggggAACCCCAAAIksHgGEEAAAQQQQAABBBBAAAEEEEAAAQRSLUACK9XLw+AQQAABBBBAAAEEEEAAAQQQQAABBEhg8QwggAACCCCAAAIIIIAAAggggAACCKRagARWqpeHwSGAAAIIIIAAAggggAACCCCAAAIIkMDiGUAAAQQQQAABBBBAAAEEEEAAAQQQSLUACaxULw+DQwABBBBAAAEEEEAAAQQQQAABBBAggcUzgAACCCCAAAIIIIAAAggggAACCCCQagESWKleHgaHAAIIIIAAAggggAACCCCAAAIIIEACi2cAAQQQQAABBBBAAAEEEEAAAQQQQCDVAiSwUr08DA4BBBBAAAEEEEAAAQQQQAABBBBAgAQWzwACCCCAAAIIIIAAAggggAACCCCAQKoFSGClenkYHAIIIIAAAggggAACCCCAAAIIIIAACSyeAQQQQAABBBAYSoENG67JLj310UKplS8ECvLWU84EftbYMGN8L6swyBr5GXlBVqGXDazJZrwwG4QqyjdjsmbMmLAomYyxyljj+bI2Y2QzoZQxkn/ka9P52koZr/PZZhyokWmHUmCktpUCT7ZtZY5+7b5n2jKmbWwYWKO23O9bryZjlxXYZd9TrR16Ld/YlrywpdBvWQVteX7LBmHLGq9t/aBlQjV9+Y1qtlEf/+Yp9dnZa1tDuaBMCgEEEEAAAQRGWoAE1kgvP5NHAAEEEEBg8ATO3Fge94reyRm1TvGsd3IonWKNPdkz5mRrzcmSPdlKJ0sqGcmT5B/9cF+7f/t0PlvJM9/59ZN/L00ooSQryX0OrWTNka+Pfe/Y50BSYI/8XtVIj0nmMWPsY6G1jxlrHvN8PRqG4WNe6D9Wb+jR+3dXltI0UcaCAAIIIIAAAgj8IAESWDwfCCCAAAIIILAiAqdv2pQf88dPCEPN+KFdbaUZ42lGVjOdr+U+mxkju1rSzJM+Sisy4OHrtCpprvNhzEFrNWdk56zcZ/c9zdnwyNeBZw56nuaWg6UDD+7Y0Rg+CmaEAAIIIIAAAmkXIIGV9hVifAgggAACCAyWgDmzXM5mDh/OZsOpjIqZbNu288baZ8jqTElnGmvOlA3PtMY8bbCmxmidgLH232W8+62x90u6X0b3W2P+LWMyDdXarZZ3uN2emmrdX6m4o4xuhxgXAggggAACCCAQW4AEVmxCAiCAAAIIIDCaAq7GlFYffFbg6wxrvTOMCU+TvKdK4ZSVmTTSpI58TEjq1IXiGlqBtqRFSQtWWjCyC7LmkIz9D2u9rxsTPuAHekAHVz9Eja6hfQaYGAIIIIAAAj0VIIHVU16CI4AAAgggMKACW7d66/btmwyr2ems8aZDE0xb2VOt551hrM6Q7HNkdZqMsgM6Q4a9EgJWLePpIWvNA9boAROGDxiZRzzrz7dsOO+VWvN7165d0LZtrpYXFwIIIIAAAggg8G0BElg8DAgggAACCCCgrVu3ep/84gMbrNd+vkLzfGPMWsm63VO5J324YuhcCCQt4ArQN7/zYRastfvk2S+Y0H7hpeefM7uNhFbS5sRDAAEEEEBg4ARIYA3ckjFgBBBAAAEEoglsuKg8FeT0I15oTwtNZ/fUj9hQpxljTpPsM48mqqIFpxUCvRNoSuZha+3Xjaevy+r/t9Y85Fnv614QPjx7e+Vw77omMgIIIIAAAgikRYAEVlpWgnEggAACCCCQgEC5XPa/Xq/n681CIZsNV1u3m8p6L5ANXyBjnyUZ/t+fgDMh0iJgrax5SMb7vDXh541nv9BqeQcLuXr9tEKhUalU3O4uLgQQQAABBBAYAgH+ETsEi8gUEEAAAQRGWsCs33zl00NlzvdseJ6VzpF0ivsw0morcexvpB+P0Zq8kQIrHZT0qPsw0j2h8e7y1P7inu03fYO3Io7W88BsEUAAAQSGS4AE1nCtJ7NBAAEEEBhSgY0bN2YW8zMntj1zivG8/6LQrpV0vpFc0solrLgQQOAHCBjpUSvdJaN/kTH7bRj+Rya0j0405p7YvXu3e4siFwIIIIAAAgikWIAEVooXh6EhgAACCIy2wIYN12TDp8z9VxvqCln7IsmcKKkgKS/JG20dZo9ALAH3lsOGpLpknzDydsm3n/C+NfNPs7PXtmJFpjECCCCAAAII9ESABFZPWAmKAAIIIIBAVwJm/Yte8pQwkztb0jnG2rONzDnW6DmSSl1F4mYZY2SM1yn3ZbwjX7vvqfNZR74v92v3ew7s2P3uW0e/f/T3O7/75LJhR78+8g+oo/+M+va/po7F+84iWOu+7vzn25/cF0e/Ix254chvH/valXVyd7jP7nudL12+xf26c+OTft/9Ouzc5+6x4bF2R77H1bVAVdL9svZea8y9ku7x2s1793zmU9/i+GHXljRAAAEEEEAgUQESWIlyEgwBBBBAAIEfKmDWXHx1SVoas5nsGZ6Cl3rWe6mVK7DO9W2BTpLp6PXtBJKR53ny/IyM78n3fBnf73zPuK+9I19Tp/7bGTGFoUtqBZ2PztdBoMD9OggVBu3O976TYDuS8DqScyP59eQ/jUbmodCEnwzlf9K0Ww9I48v7d13nkl1A8dcWAggggAACfRIggdUnaLpBAAEEEBhhga1bvTVfeuBM37Yvttb8lJGeYaWnS5oaYRV5LvnkZ458/nYyyj+y48klpTo7pDpbpr69k2qUvXo192/v3Ors8Dq668slu6xV2El2ueRXoNB9dkmvYORf7HfYSN+QzMOhDT8nq137fvzsr2jbNpcN5EIAAQQQQACBHgmQwOoRLGERQAABBEZVYKu35uL9J/gZ7+nWmh+TNRfJ2IsknToKIp2k09Hk05Eje27HlNdJUHkZl6w6mrDyM6PAMbRzPJbI6nxuu51cLrnlkl7hd440Hk2CDS3CkyZmpUeMtbfLmNuNsf8atMNv7N+15oBEUmsU1p85IoAAAgj0R4AEVn+c6QUBBBBAYMgF1l5efqoJw1fLemXJPstKJXOk4PrQXi455Wez8rM5ZbK5zted2lPuOnYE8Mn1o4ZWgokdE3hyHS/3PZfQClottVtNBZ2P1tF6XsNrZqW6kaqSeUgmrFjP++i+T1e+ObwzZmYIIIAAAgj0R4AEVn+c6QUBBBBAYIgENmzYkG2fcNp6efZ8I52vIx+nD9EUO8f2jhzxO/px7Ijf0eN+nTpUrt4UFwJdCtjwWP2tI8cSv/uI4pHvDWFpqQclfdFKXzTW/xf/iQf3zs7O8rbDLp8dbkcAAQQQGG0BElijvf7MHgEEEEDgOARO37Qpnw/Hx3wveLZnzetkzGskjR1H09Tfcuytey5hlclmlcnl5Wfdh9tNxT8TUr+AQzhAt4vryK6thoJmQ+2Wy/M86a2MwzHnZVn7D6GxHwpC/6sNb2n5wR07GsMxNWaBAAIIIIBAbwT4l2lvXImKAAIIIDDgAhs3bswcKp34U1b2ciM9z1qdZqSTO1uTBvT69pG/jDv2lz3yNr/OG/yO1KjiQiCtAp1i8p03Kh7ZveUSXEG7NQxHEt37Hh8zRl+30peMzKdXVZ/43O7du9tpXQvGhQACCCCAwEoJDOw/wlcKjH4RQAABBIZTYM3FF49lM1OntUOz1njhi2W1WdL4IM6280Y/l5Ryx/0y2aP1qXKdX3MhMGwC7sihq6/l6myF7daRY4ku0RUO7NsSl2S03YbeLRnP7mu1D399/65dy8O2bswHAQQQQACBbgVIYHUrxv0IIIAAAkMlsHbzK56tMHiTjL3CyMxIKg3aLiuXrHJH/7L5Qudzp5C6K6LOEcChelaZzPEJdArJW9spFt9uNtRq1DufXVJrwC4rqWpl52TNzSawf773Mzd+bcDmwHARQAABBBBITIAEVmKUBEIAAQQQGAABs+7Slz3DWu8FxjPPl7wXSPaMQUlYuUSVn8l2dlX5mYx8P9P5mp1VA/DkMcQVF3A7s9wOrcAdQWy3j3zdbg1SYstK5gEp/LwN7ReMCT+/d+cn/m0YK96v+MPCABBAAAEEUilAAiuVy8KgEEAAAQSSErjggnJx8cTMZLbVusQavUlW5w5CwupYcXWXnMrmi50PV7eKCwEEkhVw9bRajVrno/MGxM7uLbf5KfWXldHdxuoDrWz2tokn2gt33lmppX7UDBABBBBAAIGIAiSwIsLRDAEEEEAg3QJrLy+f5wXh1aE1FxijH5U0meoRG/cWwJwy7g2AuSP1qo7Vskr1uBkcAkMkcKx2VqeuVtPV1XJvQWx2klopvxas1dc8Y+8Mfe+6fZ+u3JXy8TI8BBBAAAEEuhYggdU1GQ0QQAABBNIocNYl5ZlcVj9mrV6o0F4t6cfSOE43Jre7ynQSVBllcrlO3SqXvHJ1q7gQQCBlAtZ2kliujla72VQYtmVdofh0J7X+VbLXGd/7bLOlf73vtspcylQZDgIIIIAAAl0L8C/lrslogAACCCCQIgGz/vJXrLFB8KuSLpU0JSmfovF911Ay+aJyxWJnl5WrZ0WR9bSuFONC4PsLuMSV26nldmc1azW1G6k+tdeQdFjSzra177t35433UDOLpxsBBBBAYFAFSGAN6soxbgQQQGBEBc657NXTftj4SSPzQiu9UNJzJHlp43DF1v1srlO3KpPJyctmSVilbZEYDwIJCLiEVthqqd1uytXTClrNTnH4FF7uNYxfMdJnrexnlZ/YvfcTHz6UwnEyJAQQQAABBL6nAAksHgwEEEAAgdQLrLn46rFMof4U27RvtUavk5RL1aDdkUBjOm8IzBXHlCsUOQ6YqgViMAj0WcBaNes1NWvLR9506I4bpu/IYdNYfcjkzB+164Vv7d913XKflegOAQQQQACBrgRIYHXFxc0IIIAAAv0UWHfplefKeD8nmQsk62papec1fMYo62pX5d2RwKw8P9M5FsiFAAIIPFmgUxg+aKvtdmm5tx02G2lLZrUk+6+S98+ywV/v3XnT3awgAggggAACaRQggZXGVWFMCCCAwIgKnFku5/IL7edYP/t8yf6crF2bFgqXnHJJKrfLKlsoKJMrcCQwLYvDOBAYIAG3G6vdrKtVr3d2Z7nklktypejaK+P9tRcGn69PeA/cX6k0UzQ2hoIAAgggMMICJLBGePGZOgIIIJAWgQvK5WJ9Mfw5a/QrkjlJUikVYzOmcxwwWxxTJpPtHAuk8HoqVoZBIDAUAseOFrbbLbVqy51jhyk6aliV7ONG5o8L4+av76xUUl2tfigeCCaBAAIIIPADBUhg8YAggAACCKyIwJqLrzjJ+N7lkjYbYy6U1aoVGciTOzVGmWxOGXc00BVgz+VkDMcCV3xdGAACIyJgbaig2VS71VS72eh8TkVCy+iQtfYOGXOrbQe37t918+MjsiRMEwEEEEAgRQIksFK0GAwFAQQQGHaBCy4oFxuTeqr17Vut1eslZVZ6zi5B5fm+cqWxTgF2dlit9IrQPwIIHBNwO7RcIfhmdVlhEMgluFJwtY301yY078sv6Jt33snOrBSsCUNAAAEERkKABNZILDOTRAABBFZW4MzN5VNysm+woS43ns6UVXElR+QSVtlCsVPHys9kOrWtuBBAAIE0C7haWUG7rXajrlaj1klorehlVJPVfTK6tSnzwfu3Vx5d0fHQOQIIIIDA0AuQwBr6JWaCCCCAwMoIuCOCvu9vkPQzVtqykrut3K4qL5NRJptXtljqHA/kQgABBAZZwB0vbNWqarcaCtttdepprdzVNlaVwDMfUbv9ZY4YrtxC0DMCCCAwzAIksIZ5dZkbAgggsAIC524un9JW+C5rzRWSJlcyceV5vvJjE8oVSxRgX4FngS4RQKD3AscKwTdrVTWWFxWGK7ozyx0vPGytbm63sr917x0fe6z3AvSAAAIIIDAqAiSwRmWlmScCCCDQQ4EzLrxidSHnXWmtd5Ux9sKVSlq5nVZ+NqdsvtApxO6+5kIAAQRGSSA4WgC+1ajLfb2CO7Pa1po7jAlvrDfDmx644+aDo7QOzBUBBBBAIHkBEljJmxIRAQQQGAmBDRuuyTaeujiTbbV+JZTeZqQVeV2fS1oZ31e+ONYpxM5bA0fi8WOSCCBwHAKu6LsrAN+oLct2isCvzDFDK4We9N5WNvsn+W9OzM3OXts6juFzCwIIIIAAAt8lQAKLBwIBBBBAoCuBDRs2ZNsnP+OVJvRfJ2NdjSt3TLDvl9th5d4a6Gez8l0RdsP/0vq+CHSIAAKDIWCtAlcEvtXqvNWw3Wys1LgXZM2s9cO/zTz68PWzs7MkslZqJegXAQQQGEAB/rU/gIvGkBFAAIF+C2zcuDEzn1/9Y8Z4m2XsmyWd2u8xuASVn8l2jgbmS2O8ObDvC0CHCCAwLALujYaN6pFEVtBuSSuzM+sRyftfRnb7VO2Jr+7evbs9LL7MAwEEEECgNwIksHrjSlQEEEBgWATMcy/b8vwgNL9vZNdLKknq6/873BHB/Ni48qVxyXhyv+ZCAAEEEIgvcKQAfKhGdUmN5aWVOGLozjQuW5m9vmff8eVbb/iCpJU55xifkwgIIIAAAj0W4KeAHgMTHgEEEBhEgfMuvGJ1I+e9ypP3GsmeayW/n/Pw/MyRQuxHi7GTtOqnPn0hgMAoCrhkltuR1W7U5QrAu11a/byMFEjm7lDhP+Sb4cfuouh7P/npCwEEEBgIARJYA7FMDBIBBBDoi4A565LydNbo9TL29yTl+9Lr0U6OvUGwMD7ZOSbIhQACCCCwcgIumVVfWlipNxk2ZM07W1Z/c99tlXl2Za3cc0DPCCCAQJoESGClaTUYCwIIILBCAhs2l88JrH5Dsj8l6Sn9HIafzXVqWrmkldt5xYUAAgggkB4BtxPLJbNczayg1ez3wL4l6bO+Me+Z3V65p9+d0x8CCCCAQLoESGClaz0YDQIIINA3gQ0vfnEpbBfOtcb+vKy2SMr2q3Mvk1Emm1fOJa6yuX51Sz8IIIAAAjEE2q2mmq74e6uhsN3XI4YtGd1grPkrL1O/e/aWW6oxpkFTBBBAAIEBFSCBNaALx7ARQACBOALrLitfplDvlexp/Twq6JJVhYkpuV1X1LWKs4K0RQABBFZOwNXLcrux6ouH5ZJafbwakvm6PL1t762VW/vYL10hgAACCKRAgARWChaBISCAAAL9EDh3c/mUZhi+SjKvMUYb+tGn68Mlq3KFYqcgu5/p2yavfk2PfhBAAIGRFgjarU7h92a91tcjhtZqVrL/kPO8j929vfLoSC8Ck0cAAQRGRIAE1ogsNNNEAIHRFCiXy/6DS5oJpV8wCt8hmb5URz9WkL14dLfVaOozawQQQGC0BNyurNri4T4XfrcNK+/3PekvTx/XXKVSCUZLndkigAACoyNAAmt01pqZIoDAiAms3XTVeiO9VTIXSjq5H9N3RdjzY+PK5gpyda64EEAAAQRGT8DVx2o162osL8kVge/T9Zhk77DSH+3bceOePvVJNwgggAACfRQggdVHbLpCAAEEei3gCrO3w+z5Crxf9IxeaiW/130az+scE8wXx5TNFyX+z9JrcuIjgAACgyFgpVajpkbtyBsMbRj2fNxGCkKZT8gLPpDxWl+k4HvPyekAAQQQ6JsAP2b0jZqOEEAAgd4KrLtsS9mG9n3GmlNkev9GQXdMMD8+oVxxTJ7X8zxZb/GIjgACCCDQU4EwDNSsLauxtChXBL7nl1XLGvuoseYte3feUOl5f3SAAAIIINBzARJYPSemAwQQQKB3Ame/5FUnZ1qtq630M0Y6p3c9HY1sjLK5vLKFkrL5gtzuKy4EEEAAAQSOV8Dtwmo16mrVq2o1G1IfkllWusdIH2lns9fd+6mPPXa8Y+U+BBBAAIF0CZDAStd6MBoEEEDguATO3FgezxbClxlj/kzS9HE1inHTkaLseRUnp3iTYAxHmiKAAAIIfEfAvcGwtnCon0Xf5621b27VvU/cv7uyxFoggAACCAyWAAmswVovRosAAiMu4Gpche38L1iZ10v2OT3nMEaFsQllC0USVz3HpgMEEEBgNAVcIqtVr6m+vNiXHVmS+YqR/Rsv0/hLamSN5jPHrBFAYDAFSGAN5roxagQQGDGBDReVp8JcuNla7539SFy5NwjmCqXOGwWN4ZjgiD1uTBcBBBBYEQFrw86bC5v1qtybDHt/2a8Yq9/z2t722dsrh3vfHz0ggAACCMQRIIEVR4+2CCCAQB8E1m6+6uUm1PtlzGr1+K2Cnp9RcXKVMrm83LFBLgQQQAABBPot4Iq8t5uNzvHCMOh5Iiuw0gEZ++Z922/8eL/nSn8IIIAAAscvwE8nx2/FnQgggEDfBC64oFysT2uLlX2DrC6Q1NO/r90RwVyxpEyuQOKqb6tMRwgggAACP0jgSCKrrmat2jli2OPLyuhOK/PB0rxuuPPOSs877PF8CI8AAggMnUBPfyAaOi0mhAACCPRY4JkbX1uYLC2u9az5e0mn97K7TmH2XF6lyWl5vt/LroiNAAIIIIBALIEwCFRdmFfQbMgltnp8fS009uqF6sS+h3d/uN7jvgiPAAIIIHCcAiSwjhOK2xBAAIFeCpTLZf+ri3qJMeFbJPPjvTwqaDxP+dKEcoWCvEy2l9MiNgIIIIAAAokKHCn4XlejuigbhonG/k/BAsn+i7Xe+549oU9VKpWgl50RGwEEEEDghwuQwPrhRtyBAAII9EzgzHI5l62anzBh+HZJF/XyqKCfySrrCrOXxuSSWFwIIIAAAggMqoBLXjV4+sdSAAAgAElEQVSqy2rVq3JJrR5ebrvXZ6znvbtVsv/n/kql2cO+CI0AAggg8AMESGDxeCCAAAIrJHD25que58v7kLH22ZJyvRqGK8xemlzVOS5IYfZeKRMXAQQQQGAlBNxxQnessNr7gu9Na8xXA4Wvu3f7jV9aibnSJwIIIDDqAiSwRv0JYP4IINBvAbP+kisvDD3/DUbh5ZLJ92IALlGVzReULY4pmyv0uAR8L2ZATAQQQAABBLoQsFKrWVertqxWo97DOlm2IZlbjNUH9+y84bOSel6QqwsFbkUAAQSGWoAE1lAvL5NDAIG0CGzcuDFzqHDKqTLtayW9qGfjcomrXF7FyVVyO6+4EEAAAQQQGDWBMGirtnBIrWZD6m3B98/IZq5ZVX/0kd27d7dHzZn5IoAAAv0WIIHVb3H6QwCBkRNYc3H5R7yMfY+sNkka7xVAztW3GhuXq3Ulw1/vvXImLgIIIIDAAAi4o4XtlhrLi2rWa70c8JKMdijM/Nrenf/4cC87IjYCCCAw6gL8hDPqTwDzRwCBngmsf9Er/4sy7asl8ztWttCLjtxRQVfbqjg20fnMhQACCCCAAALfLeBqZNWWFzu1slzNrF5cRqYu2d9Ru3ndns986j960QcxEUAAgVEXIIE16k8A80cAgZ4IrL3kqpcbz/yJpKf06s2Cfjan0tS0fHdUkB1XPVlHgiKAAAIIDImA25EVtFU9PK+g1bMXCbrs2H/Y0P7qvttu/PiQyDENBBBAIDUCJLBSsxQMBAEEBl2gXC77X1vWC2Xt23pX58oVZ88rVxpTNl8cdDLGjwACCCCAQN8FWo2amlVX7L3Ryxrsn5Ex7/3RMX22UqkEfZ8kHSKAAAJDKEACawgXlSkhgEDfBcz6TeUTQhu+zxj9dK+2Q/mZjIoT08rkOSrY9xWmQwQQQACBoRNoNxqqLc4raPeq/ro7r2iuMzJv3bOjcqCX2bKhWxwmhAACCHwPARJYPBYIIIBADIHzN71msm7rb5cxrzXSKTFCfd+m7qhgYXxSmVxeruYVFwIIIIAAAggkI+BqYrWbDdWXFnp5tPBb1tq/K5jCH3xxxz8sJDNyoiCAAAKjJ8BPQqO35swYAQQSENjw4heXWq3CRcaz7zFWZyQQ8v8J4RJX+dK4csVSL8ITEwEEEEAAAQSeJNCsVdWoLvUskWWtHrAyv57N1m+fveWWKvgIIIAAAt0JkMDqzou7EUAAAa295KqzPON9xBq7VpKfNInneSpNzXTeKsiOq6R1iYcAAggggMD3F3A7stzbCquH5xSGYS+oAmPNPhldvWdH5f5edEBMBBBAYFgFSGAN68oyLwQQSFxg7eYrnm2s98uy5moZjSfdgZ/NKlccV97tuOKoYNK8xEMAAQQQQOD4BaxVo1ZV0+3IareOv93x3mm1JGOvsyb8033bb/7q8TbjPgQQQGCUBUhgjfLqM3cEEDgugTUXXz3mebWfldF7JSV+ns94XqfGlTsuyIUAAggggAAC6RJwxwpdjSzbkx1Ztipr3haGxb/bv+u65XTNnNEggAAC6RIggZWu9WA0CCCQJoGtW731X7z3FaExbzdGZ8nKS3J4nucrPzGpXL4ol8TiQgABBBBAAIF0CrjkVbNRU2NxQWEYJDtIo9Ba3edZ+wd7zj/7em3b1pOzi8kOmmgIIIBA/wVIYPXfnB4RQCD9Amb95qs2WJnfkvTipBNXLlmVzRdVnJgicZX+Z4ERIoAAAggg8G0BGwaqLS6o1aglvyPLKFSoW4xn37Vn+42zkiz0CCCAAALfESCBxdOAAAIIPElgw0XlqTBrP2ill/TiuGAmV1Bpalqen3jtd9YRAQQQQAABBPokEAaBqofn1W7We9FjVVaf9NvmF2ZvrxzuRQfERAABBAZRgATWIK4aY0YAgcQFNmzYkA1OeuZrJfMbkk5LugM/m1N+bEK5fIEC7UnjEg8BBBBAAIGVELBWzUZdjeVFBa1mL0bwdcm+23/84Q/Pzs72oJJ8L4ZMTAQQQKB3AiSwemdLZAQQGBCB9ZuvfIZC7zpr9IKkh9wp0D52tEA7f+MmzUs8BBBAAAEEVl7ASo3qourLi8kfK5RkZP7J83X17Kcr31j5yTICBBBAYOUE+HFq5ezpGQEEVljggnK5WFu0v2aN3mCkU5IejttxlS+NyfMzSYcmHgIIIIAAAgikTCAM2mpUlzs7spK+rPSosfpgccL84Z2VSi3p+MRDAAEEBkGABNYgrBJjRACBhAW2eusuvWeD5P2hjDYmHFyuzlVxYlLu2CAXAggggAACCIyWgDtO6Aq996Q+ljWfk4Jf37vznFmJtxWO1pPFbBFAgAQWzwACCIyUwJnlci67bN9trN4gqZjk5D3PV2l6RplMjjpXScISCwEEEEAAgUETsFbtdlPV+TmFYZD06GvWmL/MPDb9G7Oz11IbK2ld4iGAQGoFSGCldmkYGAIIJClQLpf9ry3oUnnhVsmcm2RsV+eqc1ywOCb3NRcCCCCAAAIIIOAEbBiqUTtyrNB9nexl71bobfvRSe2sVCqJZ8mSHSvREEAAgfgCJLDiGxIBAQRSLrDhovJUOxu+yxjzRlkllmEyxiibL6g4NSP3NRcCCCCAAAIIIPC9BKy1qh2eU6tRl/s6scsotNb+Rabl/dbs7ZXDicUlEAIIIJBCAX7iSuGiMCQEEEhMwKy/9KpXWmO2SfrRxKJK36lz1TkumGRkYiGAAAIIIIDAUApYKWj3qj6W/aqxZuuenTdc7zZ+DaUfk0IAgZEX4MeukX8EAEBgKAXMcy8pPyvww9821lyd5Az9TLZzXDBXLCUZllgIIIAAAgggMEICzVq1c6wwaCdewuojvvzfnd1x/ddJZI3QA8VUERgRARJYI7LQTBOBURJYe8mW1xlP75M0neS8ixNTypXGOS6YJCqxEEAAAQQQGFEBd5SwWV1SbTHxk39zsuYte3dWPjyitEwbAQSGVIAE1pAuLNNCYBQF1l/yirWhF/6ekX1xkvPPFooqjE/Jz2SSDEssBBBAAAEEEEBAQbut+tJhteq1RDWszC1e6L1zz23X70s0MMEQQACBFRIggbVC8HSLAALJCVxQLhdrS/bnJf1JclHVeaNgaXJaLoHFhQACCCCAAAII9FLAJbCqC/PJv63QmF8ujunaOyuVZDNkvcQgNgIIIPA9BEhg8VgggMBAC6y/tHyBNdYlrs6VknvDYK40psLYhDyfXVcD/YAweAQQQAABBAZIIAzaqi8vqlldTmzURgpC6UueNb+yZ2flzsQCEwgBBBDoswAJrD6D0x0CCCQjcNYl5ZmMZ3/ZyL5dMollmVyR9sLElLL5QjIDJQoCCCCAAAIIINClQKtRV33xcMJF3m3byvxB6OX+5J5bPzrf5ZC4HQEEEFhxARJYK74EDAABBLoVWH/JFWut598qo6fIJrfryr1dsDA+SZH2bheE+xFAAAEEEEAgcQFX5L2+tNB5W2Fil1Eoq/8wYXD5nttupjZWYrAEQgCBfgiQwOqHMn0ggEAiAmsuvnrM86pvlMyvy2h1IkElZXL5TuLKfeZCAAEEEEAAAQTSJNBuNjq7sdqtZnLDsjoo2feE4eJf7N+1K7nzismNkEgIIIDA/yNAAouHAgEEBkJg/abyiVb27yVdnNSAjTHq7Loam5T42zApVuIggAACCCCAQNICVqovH9mN5XZmJXjtMjI/vWdH5YkEYxIKAQQQ6IkAP7L1hJWgCCCQpMD6S7e80hq9R9LTk4rraly5Wleu5hUXAggggAACCCAwCAJBu9XZjeVqZCV4fcOT+bUv76hcn2BMQiGAAAKJC5DASpyUgAggkJSA23UVyr7TSP8jqZie7ytfGu98yPBXYFKuxEEAAQQQQACBPglYq0Z1qfMRBkFinVqjP8v42d+bveVjBxILSiAEEEAgQQF+eksQk1AIIJCcwPrLr1irIHOLlT1VCR3wc7uuilPT8jw/uYESCQEEEEAAAQQQWAGBMAxUOzyf5G4sa2QeMTa8/Ms7b9y/AlOiSwQQQOAHCpDA4gFBAIFUCZy+aVN+3Iz9qqx+Q9JkEoPzMplOnatcsZREOGIggAACCCCAAAKpEWjWqp36WGG7ndSYFmT07iW7/McP7tjRSCoocRBAAIG4AiSw4grSHgEEEhNYs+nKU43xbjRW5yUS1BhlcwWVVk3LGC+RkARBAAEEEEAAAQTSJmBtqOqhebWadSmhIu/W6IvWhlv277jpkbTNl/EggMBoCpDAGs11Z9YIpEtg61Zv7V33vtaT9ztW9mlJDM7tuipOrJI7NsiFAAIIIIAAAgiMgoAr7l5bPJTYbiwj8++hsVv3nXvW32nbtnAUDJkjAgikV4AEVnrXhpEhMBICGy658imhZ94hmV+wUuziVMYY5YpjKk5MUaR9JJ4gJokAAggggAAC3yVgbSeJ5Y4W2gR2YxnJVYr/Cy8M/2D2tpu+hTYCCCCwUgIksFZKnn4RQEBnX/SK52SywaclnZYEh0tejc2cqEw2l0Q4YiCAAAIIIIAAAgMr0G41tTz3RCJJrCMI5qF2y3vxvbdf/5WBRWHgCCAw0AIksAZ6+Rg8AoMpcGa5nMsu2V830m9KyicxC1egvTAxxRsGk8AkBgIIIIAAAggMhYB7U2F98XBnN1ZCV8NK/7M1bt5zf6XSTCgmYRBAAIHjEiCBdVxM3IQAAkkJrLv0Zc80JvNJK61JIqbxPJUmppQtjiURjhgIIIAAAggggMDQCbRqy6ouHJYr9p7EZaT91rZfunfnJx5OIh4xEEAAgeMRIIF1PErcgwAC8QW2bvWe+8X7fi40+i1Jp8YPKGVyeRUnV8nPZJMIRwwEEEAAAQQQQGBoBYJ2S7WFQ2o3G0nN8RHP6l1fPv+s/02B96RIiYMAAj9IgAQWzwcCCPRcwBVqb3vebxvp55RIoXZPx44MurpXXAgggAACCCCAAAI/XMAVdT92pDCh3ViBZK7NGv3u3dsrj/7wEXAHAgggEF2An/yi29ESAQSOQ+DsC191cibX/pxkn3Mct//QW9yRwbFVJyiTo1D7D8XiBgQQQAABBBBA4HsItJtNLR86IBsmc6RQ0v3tZvaF997xsccARwABBHolQAKrV7LERQABrd981atsaN4vo9VJcOSKY0cLtXtJhCMGAggggAACCCAwsgJhGB7djbWcjIHVQSP7P/bsvPFjyQQkCgIIIPDdAiSweCIQQCBxgdM3bcqPaWybkX49ieDGeCpNTitbLCYRjhgIIIAAAggggAACRwVataqqC4cSK/BujX33sq3+zoM7diRWbIvFQgABBJwACSyeAwQQSFTg7Itf+rSsl/tba+xGSZm4wTP5gkoTq+RlYoeKOxTaI4AAAggggAACQykQttuqLh5Su1FPYn5tY83uwASv27/jpkeSCEgMBBBAgAQWzwACCCQnsHWrt/Zf7n+e8eyHJJ0ZN7DbdZUvjSk/PikKtcfVpD0CCCCAAAIIIPCDBToF3pcW1KwuJ7Ub635Z/7V7zz9jlrcU8vQhgEASAuzASkKRGAggoPWbtvyMlf5C0lhcDs/zNTZzgvxMNm4o2iOAAAIIIIAAAgh0IRC0W1qeO6AwDLpo9X1vXTbSG/fsuOEjSQQjBgIIjLYACazRXn9mj0BsgTUXXzzm+1PvtrJvlBSzurpRvlhSfmJSLonFhQACCCCAAAIIINB/AZe8qi8uqFmrSrJxBxBa6QM2WHj7/l27EqoYH3dItEcAgUEUIIE1iKvGmBFIicCaTa851VNjp6Sz4g6JQu1xBWmPAAIIIIAAAggkK5BogXdj7w2t3URdrGTXiGgIjJIACaxRWm3mikCCAusuvWqzjD4gmWfGDZvJ51WamKZQe1xI2iOAAAIIIIAAAgkLBO22aovzajeSeKmgfdjIuCOFOxIeJuEQQGAEBEhgjcAiM0UEkhTYuPG1hbnS4jWeNe+VlIsV2xjlS+Mqjk/xTtRYkDRGAAEEEEAAAQR6KGCl2tJhNapLko19pLAZGvu2herEtQ/v/nAirz3s4cwJjQACKRIggZWixWAoCKRd4PRNm/LjduzjMrpMUqwiVe7NgmPTJyiTy6d92owPAQQQQAABBBBAQFK72dDy/AG5NxbGvAJZ3bpkll/+4I4dSWztijkcmiOAwCAIkMAahFVijAikQGD95queZ2U+IKvz4g4nk82pOLlKfjbeBq6446A9AggggAACCCCAQHcCQaup6sIhuc+xL6u7jGfftGf7jV+KHYsACCAw9AIksIZ+iZkgAvEEyuWy/9CSfjKUbpbsZLxoUjZf0Niq1ZLhr5+4lrRHAAEEEEAAAQRWRMBaLR86qFYjiROAZsH3zMtOK9l/qlQqwYrMh04RQGAgBPgJciCWiUEisEIC5bK/bsn+vqRfkhTvrJ8xKk5MKVcckzs+yIUAAggggAACCCAwuALuGGGztqza4uEk6mK5Y4T/a++4eYdIYg3uQ8HIEeixAD9F9hiY8AgMqsDay8tPNYH9oKTL487B832VJqeVyRfihqI9AggggAACCCCAQIoE2o26qgvzCoNENk992vrmDfs+XflmiqbIUBBAICUCJLBSshAMA4E0Cax7UXmd8cPbrTEzivl+QC+T1fj0CXJJLC4EEEAAAQQQQACB4RNwyaul+QMK2624k7PG2jnZzIV7brt+X9xgtEcAgeESIIE1XOvJbBCIK2DO2bzlJZ617zcyT4sbLF8aV2FiiiODcSFpjwACCCCAAAIIpFzAHSmsLx5Wo7oUe6RW9t+t5/3i/lsrt0iK/crD2AMiAAIIpEKABFYqloFBIJACgSP1rl4p6UOSsnFG5GpcubcMunpXXAgggAACCCCAAAKjI9Cpi7VwSC6hFfNqyZjX7h3T9dTFiilJcwSGRIAE1pAsJNNAII7Axo0bM4cKq39fxrw5brF2d2RwbGpafjYXZ0i0RQABBBBAAAEEEBhQgaDV1PLh+SSOFHaKu6+qHfjN3bt3tweUg2EjgEBCAiSwEoIkDAKDKnDGhVeszuf8dxnp5+PWu8rk8ipNzVDvalAfBsaNAAIIIIAAAggkJODqYlUPz6nddDmoWJfby/VX7dD85n23VeZiRaIxAggMtAAJrIFePgaPQDyBjRu3Zg4V7/uMpI3xIkn5sQkVxiepdxUXkvYIIIAAAggggMCQCHTqYi0tqLG8mMSMdq+qnfWi3bu3sRMrCU1iIDCAAiSwBnDRGDICSQg877JXnN0Kg48a6Zw48YznqTS5StlCKU4Y2iKAAAIIIIAAAggMqUCrXlXV1cUKw1gztNI9Wc9/9Zduvf7eWIFojAACAylAAmsgl41BIxBLwJxz8cue6/uZOyRNxYnk6l2Nz5woz/PihKEtAggggAACCCCAwJALhGGopbkn4tfFMjoUtNsX3bPrE1/mDYVD/tAwPQT+kwAJLB4JBEZMYO2m8iuMtR+Q0eo4U3dvGCxMTMrz/DhhaIsAAggggAACCCAwIgJhGKi+uCD3psJYl9VBa8yb9u2oXB8rDo0RQGCgBEhgDdRyMVgEoguUy2X/wWX9krX2fdGjqFPj6li9qzhxaIsAAggggAACCCAwmgLH6mK5GllxLmvMW1527pl/um3btnhnE+MMgrYIINA3ARJYfaOmIwRWTuDMcjmXW7J/K+kVkjKRR2KMxlbNKJsvRg5BQwQQQAABBBBAAAEEWo2alg/NSfGSWG1r9I+tMfP6+yuVJqoIIDDcAiSwhnt9mR0CWnPxFSd5nvd+eWaLrCIXq/L8jIpTq5TNFVBFAAEEEEAAAQQQQCC2QKtRV23hkMIgxosFjUJjbSUIwjfv33Xz47EHRQAEEEitAAms1C4NA0MgvkAneZXxb5PVujjRjOdrYuYEuaLtXAgggAACCCCAAAIIJCUQtFtamjsgGwZxQ+4Ng+ASklhxGWmPQHoFSGCld20YGQKxBNZfWr7AmvA6yTwrTqBMLq/S1Iw8n2LtcRxpiwACCCCAAAIIIPC9BcIgUPXwnNrNRkwi+5Cx3tV7dlbujBmI5gggkEIBElgpXBSGhEAcgU6x9mrwU2HoXWekU+LEyhWKneSVDH9VxHGkLQIIIIAAAggggMAPEbC2k8Rq1muxqKz0qBeGV58+6X+uUqnE3tYVazA0RgCBRAX4qTRRToIhsPIC6y57+c/aMPygkWIVq3JvGiyOT5K8WvklZQQIIIAAAggggMBoCFir2tKCGsuLseZrpbq19g37d974d7EC0RgBBFIlQAIrVcvBYBCILrDhmmuy4SNzv22tfiPWmwYlFSdXKV8ajz4YWiKAAAIIIIAAAgggEFGgUV3qFHePebWN1bu9p8/87uy117ZixqI5AgikQIAEVgoWgSEgEFfg9E2b8uN27I9l9MY4sYznaWz6BGWyuThhaIsAAggggAACCCCAQCyBdrOp5fkDsjaMFUdWH1gyy295cMeOuAW24o2D1gggEFuABFZsQgIgsMIC1pp1m8sflvQzcUbi+RmNrZqRT/IqDiNtEUAAAQQQQAABBBISCFpNLR+aUxi040b8yN7tldfKGBs3EO0RQGDlBEhgrZw9PSMQW+Ccy1497YfNv5F0RZxgLmnlklcuicWFAAIIIIAAAggggEBaBFzyyiWxXDIrzmWMbmqb3H+/59aPzseJQ1sEEFg5ARJYK2dPzwjEEtiw4ZpscOL8dhl7oaTIf5azR980aHjTYKz1oDECCCCAAAIIIIBAbwTs0TcUtuK9odBK5nb/8enLZmepidWblSIqAr0ViPxDb2+HRXQEEPhBAkd3Xl0v6UXRpYzypTEVxiflal9xIYAAAggggAACCCCQVgEbhqq7NxRWlyXFOgn4mcDLvYKdWGldacaFwPcXIIHF04HAgAms31Q+Ucb+k7U6I/LQjVFhbKKTvOJCAAEEEEAAAQQQQGBQBOqLC6pXFyUbJ4llv2Lk/eSeHZUnBmXejBMBBGIcOwIPAQT6L3DeFVesbjb87bI6L2rv7qhgaWpa2UIpagjaIYAAAggggAACCCCwYgLNelXVw/PxklhGd+Xywea7br754IpNhI4RQKArAXZgdcXFzQisnMDazVc821hvu2SeFXUUnu+rNDWjTC4fNQTtEEAAAQQQQAABBBBYcYF2s6HqYfeGwiDGWOxD1oSb922/+asxgtAUAQT6JEACq0/QdINAHIF1l77ymda0P2+kU6PG8TxP46tP4k2DUQFphwACCCCAAAIIIJAqAfeGwqWDjysMw8jjstIjngmfv2f7Tf8WOQgNEUCgLwIksPrCTCcIRBd47qVXrQmNuVHS6VGj+NmcxlatltuBxYUAAggggAACCCCAwLAIuB1Yy4cOKmg140zpQd+YK2e3V+6JE4S2CCDQWwESWL31JToCsQTOuay8wQ/tP0vKRQ3kZ7IaX32ijOFNg1ENaYcAAggggAACCCCQXgFrQy0dfEJBuxVnkM0gMP/fPbsqs3GC0BYBBHonQAKrd7ZERiCWwNpLy883xv6jpKdGDZTJ5VRyO688dl5FNaQdAggggAACCCCAQPoFwjBQ9dBBtZuxdmJ909rglft23vyF9M+YESIwegIksEZvzZnxAAis3bTlYiPdJGks6nCz+UIneeXeOsiFAAIIIIAAAggggMCwC1hrO0msVqMeZ6rLVrpy344bdsUJQlsEEEhegJ9skzclIgKxBNZeuuVKY3SdpFLUQNlcQaVpkldR/WiHAAIIIIAAAgggMJgCnSTW/EG1mrGSWFVrw5/et/OmmwdTgVEjMJwCJLCGc12Z1WAKmPWbr3qlteYDkqajTiFXKKk4Nc3Oq6iAtEMAAQQQQAABBBAYaAGXxKodnlezXo0zj3lj7Zv27LzxY3GC0BYBBJITIIGVnCWREIgjYNZu3vJaY/W3cYLkSmMqTUbOfcXpmrYIIIAAAggggAACCKRKoOqSWLXlWGOyRv9t3/YbPizJxgpEYwQQiC1AAis2IQEQiCmwdau37l/ueauM904ZjUeNlh8bV2F8ip1XUQFphwACCCCAAAIIIDBUAm4nVn3psBrLS9HnZbUk2d/de/7Z79O2bWH0QLREAIG4AiSw4grSHoE4Alu3emvuvvcXPav3SSYTNVR+bELFiamozWmHAAIIIIAAAggggMDQCtQWXRJrMcb8bDs0esv+c8/+c5JYMRhpikBMARJYMQFpjkAMAbPukivfJs/7n5IiJ6+Kk1PKl9zGLf44x1gLmiKAAAIIIIAAAggMrYBVo7qk2sLhGDO0bYX2N/fedtN7OU4Yg5GmCMQQ4CfeGHg0RSCOwNrNW15nQv1ZnGODbteV233FhQACCCCAAAIIIIAAAj9YwO3CcruxIl9WS9bTm/dtv+FDkWPQEAEEIguQwIpMR0MEogus33zVq6w1H40cwRiVJlcpVxyLHIKGCCCAAAIIIIAAAgiMmoAr6l5dOCTZ6DXZjbWv5u2Eo/bkMN80CJDASsMqMIaRElh76ZVXGOP9jaRIrws0neTVjLLF4ki5MVkEEEAAAQQQQAABBJIQaNWqqi7MyxV5j3jNWxu+ft/Om26O2J5mCCAQQYAEVgQ0miAQVWDtpi0XG8n9j64UJYZLXhUnp5UrRmoepUvaIIAAAggggAACCCAwdALNWlW1eEmsqpWu2Lfjhl1Dh8OEEEipAAmslC4Mwxo+gbWXlp9vjN0pKdK5P5e8Gp85UX42N3w4zAgBBBBAAAEEEEAAgT4LBK2mluaeiLMTa9na4NJ9O2/+Qp+HTncIjKQACayRXHYm3W+Bcy4rb/BD+0lJT43St/E8laZmlM0XojSnDQIIIIAAAggggAACCHwPgVajrurhOdkwjOrzzSAwL71nV2U2agDaIYDA8QmQwDo+J+5CILLAcy+9ak1ozN2SIm2dMsbT2MwJyrDzKvIa0BABBBBAAAEEEEAAge8n0G41tTx3QNZGTmI1A2Oed+lgZUUAACAASURBVM/2yj0oI4BA7wRIYPXOlsgIaP3mK59hrXe7pNOjcLidV2PTJK+i2NEGAQQQQAABBBBAAIHjFegkseYPRN+JZfQ1o/BFe7bf9G/H2yf3IYBAdwIksLrz4m4Ejltg7eYrni3r32GkU4+70ZNu7LxtcNVqjg1GwaMNAggggAACCCCAAAJdCnSOEx46GLkmlpUeMb594d5P3/i1LrvmdgQQOA4BEljHgcQtCHQrcN4VV6xu1r27JHNat23d/RRsj6JGGwQQQAABBBBAAAEE4gnEL+xuH8oVwvPvuvnmg/FGQmsEEPjPAiSweCYQSFhg/abyidbYT8vqvCihXfKqODmtXLEUpTltEEAAAQQQQAABBBBAIIZAs1ZVbWE+8k4sGd1lrLl8z47KEzGGQVMEEPhPAiSweCQQSFDgnMtePZ2xzX+2VmdECmuMxiZnlC0WIzWnEQIIIIAAAggggAACCMQXaNVqWl6Yk6yNGMx+JfDyP3HPrR+djxiAZgggQAKLZwCB3ghs2HBNNjhp7lZJL4raQ2nK7bwai9qcdggggAACCCCAAAIIIJCQQLO2rOrhWPmnz/iPz1w2O3ttK6EhEQaBkRZgB9ZILz+TT0rA7bzyg9bHZexFUWMWJ6aUH5uI2px2CCCAAAIIIIAAAgggkLBAY3lRtcXDMaKazwRe9hXsxIpBSFMEjgqQwOJRQCCugLVm3ebyjZJe5uqvRwlXnJxSvkTyKoodbRBAAAEEEEAAAQQQ6KVAo7qo2kLkJJY1RjfvubWyRcZEPY/Yy+kRG4GBEYj0w/bAzI6BItBjgdM3bcqP2dL/NsZcHbUrt+uqODEZNfcVtVvaIYAAAggggAACCCCAwHEJWNUWF+R2Y8W4PrKk5Wse3LGjESMGTREYaQESWCO9/Ew+jsCGa67JBt+Y+1MZvTFqnPzYuIoTq6I2px0CCCCAAAIIIIAAAgj0SaC2eEiN5aXovVl9wH/6zK/MXktNrOiItBxlARJYo7z6zD2WwPrNW37PWv1W1CC50lgneWUMfwyjGtIOAQQQQAABBBBAAIF+CVhrVVs4JFfcPeplrN61Z+cN74zannYIjLIAPzmP8uoz90gC5XLZ/1rV/LTC8K8lZaIEyRVKKq2aidKUNggggAACCCCAAAIIILCCAtVDc2rWq1FH0A6l1//YuPmHSqUSRA1COwRGUYAE1iiuOnOOJbD+kisvCj3vFiMVogTK5goqTa9m51UUPNoggAACCCCAAAIIILDCAm4nVnX+oFrNetSR1IzVi/fsvOGOqAFoh8AoCpDAGsVVZ86RBdZfWr4gNPYmI50SJUg2X1BpFcmrKHa0QQABBBBAAAEEEEAgLQIuibV86KDajWhJLCs96llz5Z6dlTvTMifGgUDaBUhgpX2FGF9qBNZcfMVJnu/9s2SeFWVQmVxOY9MnsvMqCh5tEEAAAQQQQAABBBBImUAniTX/hNrNZtSRPRgGwU/s33Xz41ED0A6BURIggTVKq81cIwscSV75t0laFyWIn8lqbOYEeZ4fpTltEEAAAQQQQAABBBBAIIUCYRhoee6AgnYr6uj2hkFwCUmsqHy0GyUBElijtNrMNZLAmeVyLrcYXidjXh4lgJ/NaXzmBBnjRWlOGwQQQAABBBBAAAEEEEixgLWhllwSqxVtJ5aRvb4x7v3M/ZVKtAAptmFoCCQpQAIrSU1iDZ3A1q1bvU/edd9HZPQqWXWdgfI8T+OrT5bns/Nq6B4OJoQAAggggAACCCCAwFGBMAi0dPAxhWEYxSS0Rh992bln/ey2bdsiBYjSKW0QGDQBEliDtmKMt68CazeXf9VY+x5JmW47dkmr8ZkT5fldN+22K+5HAAEEEEAAAQQQQACBFRYIg7aW5p6QS2ZFuNrWeL+2b/vH/yRCW5ogMBICJLBGYpmZZAQBs3ZT+eVG9h8jtO0Uah+bPkGZXD5Kc9oggAACCCCAAAIIIIDAAAq0mw0tzR+QrI00eivzyn07Kh+XFC1ApF5phMBgCJDAGox1YpR9Fjjn4vIG37O3yWh111275NXUtLKFUtdNaYAAAggggAACCCCAAAKDLdCsV1U9PB8tiWV1MAjbl9yz6xOzg63A6BFIXoAEVvKmRBxwgedd9oqz2zb4vKxWdT8Vo8L4hArjk903pQUCCCCAAAIIIIAAAggMhUB9cUH15cVoG6mMDoVt/wX7d11/71BgMAkEEhIggZUQJGGGQ2Djxq2Z+eJ9XzbSOVFmlC+NqzgZIe8VpTPaIIAAAggggAACCCCAQGoFaguH1KguRRqfle6Zrp313N27t7UjBaARAkMoQAJrCBeVKUUTOOPCK1YXcv4NkjZGiZAtFFWanJbxun5ZYZTuaIMAAggggAACCCCAAAIpFrBhqOrCvFr1WtRR7m6F5qr7bqvMRQ1AOwSGSYAE1jCtJnOJLLBx48bMfPGE9xvpDVGC+Nlc542Drng7FwIIIIAAAggggAACCCDgBKy1nTcTBq1mRBD7l6tqB9+8e/dudmJFFKTZ8Ajw0/bwrCUziSpQLvvrFsM/kDFvldT1nwnPz2h85gS5z1wIIIAAAggggAACCCCAwJMFwqCtpbkDcp8jXO5thO/dO27eoUoliNCeJggMjUDXP6wPzcyZCAJHBMy6TVteLelvJOW7RXHHBcenT5DbgcWFAAIIIIAAAggggAACCHwvAbcDyyWxrA2jADVkzH/bu73ysWhV4aN0SRsE0idAAit9a8KI+ihwzuYtL/WtKpKyUbodX32SMiSvotDRBgEEEEAAAQQQQACBkRJoN10S6/Goc26Fntmy/9bKp6IGoB0Cgy5AAmvQV5DxRxZY96LyOpsJP2VknhYliHvboHvrIBcCCCCAAAIIIIAAAgggcDwC7q2E7u2EUS4r++9emHnxntuu3xelPW0QGHQBEliDvoKMP5LA2svLT/Xa4T5rzOooAfJjEypOTEVpShsEEEAAAQQQQAABBBAYYYHa4mE1lhejChywvlm379OVb0YNQDsEBlWABNagrhzjji7girYv2U9IuixK0fZcoajS1IzEGwejrwEtEUAAAQQQQAABBBAYVQFrVT08p2a9FkXAFXW/de+4eRlF3aPw0WaQBUhgDfLqMfauBcrlsv+1Jfv7kn6t68aSMrl8p2g7yasoerRBAAEEEEAAAQQQQACBjoC1Wpo/oHazERXkD3903LyjwpsJo/rRbgAFSGAN4KIx5OgCz91UfmEouz3aGwd9Taw+SZ7vRx8ALRFAAAEEEEAAAQQQQAABSWEQaPHg47JhEMWj4XveptlbP/65KI1pg8AgCpDAGsRVY8yRBNZvvup51np3SHay2wCen9H49Gp5mUgvK+y2O+5HAAEEEEAAAQQQQACBERAI2i0tzx9UGLQjzNYsGBNeuGf7jV+K0JgmCAycAAmsgVsyBhxF4PRNm/LjZuyfZHVe1+2N0dj0amVzha6b0gABBBBAAAEEEEAAAQQQ+EECrUZdy4cOdo4Vdn1Z3bVklv/rgzt2RD6L2HWfNEBghQRIYK0QPN32T2DjxtcWDhWWrpfRS7rt1Rij0qoZZfPFbptyPwIIIIAAAggggAACCCBwXAKtRk3VQ3Oy0ZJYnzxUH3/lw7s/XD+uzrgJgQEVIIE1oAvHsI9fYM3mq37Js+Z9krouXlUYn5T74EIAAQQQQAABBBBAAAEEeilQX1qQ+4hwBaGxv7p/+41/FqEtTRAYGAESWAOzVAw0isC6S6/aLGNulpTrtn2uOKbS1HS3zbgfAQQQQAABBBBAAAEEEIgkUD08r2ZtOUrbppFetmfHDTuiNKYNAoMgQAJrEFaJMUYSWLPpNad6qn9eMs/sNoAr1j4+c4I8r+tNW912xf0IIIAAAggggAACCCCAQEcgDAMtzR1Q2G5FELEPh7Iv2L/jpkciNKYJAqkXIIGV+iVigFEE1lx89Zjn174o6axu2xvP08QJp8jzvG6bcj8CCCCAAAIIIIAAAgggEEsgDEMtHnhUNgy7j2PsvWF78cf379oVaRtX9x3SAoH+CZDA6p81PfVRYP2m8vut7C9G6XLMFW0vlKI0pQ0CCCCAAAIIIIAAAgggEFugWa92irpHuaz0/n07bnhzlLa0QSDNAiSw0rw6jK17ga1bvfV33ffTVvqQpK63UOXHJlScmOq+X1oggAACCCCAAAIIIIAAAgkK1BYPq7G8GCViaKTX7TnvrL/Xtm0RtnFF6ZI2CPRegARW743poY8Cay8pn2c8+1lJY912m8nlNTZ9gozhj0W3dtyPAAIIIIAAAggggAACyQpYa7U8f0DtZiNK4GVZ/6f27rz+7iiNaYNAGgX4ST2Nq8KYIgmcffFLn5bxszslndltgE7R9ukT5PkUbe/WjvsRQAABBBBAAAEEEECgNwJhEGhpPmpRd90fKryEou69WRui9l+ABFb/zemxBwKnb9qUn9DYrVa6sNvwbsfV+MyJ8rO5bptyPwIIIIAAAggggAACCCDQU4Gg1dTS3BNyO7K6vYw1ty+apcsf3LEj0jaubvvjfgR6KUACq5e6xO6bwNpNW95tpLdIynTbaWlqWrli1ycOu+2G+xFAAAEEEEAAAQQQQACBSALN2rKqh+ejtG1bY/9o3/Yb3x6lMW0QSJMACaw0rQZjiSSwfvNVr7LWfDRK43xpXMXJVVGa0gYBBBBAAAEEEEAAAQQQ6JtAbeGQGtWlSP0Za1+9Z+eNH4vUmEYIpESABFZKFoJhRBM4d3P5lFZo75XR6m4juLpXE6tPomh7t3DcjwACCCCAAAIIIIAAAn0XcEcIFw8+rrDd6r5vq4PtVvase+/42GPdN6YFAukQIIGVjnVgFBEEOskrqzsk233Rdt/X+MxJFG2P4E4TBBBAAAEEEEAAAQQQWBmBTlH3ucflPke47s8ac+Hd2yuPRmhLEwRWXIAE1oovAQOIJLB1q7f2rvs+YKQ3dN3eFW1ftVqZfKHrpjRAAAEEEEAAAQQQQAABBFZSoN2oa+nQQSlCUXfJ/OXe8878RW3bFq7kHOgbgSgCJLCiqNFmxQXWX3LVG6xn/lyS3+1gXM0rV/uKCwEEEEAAAQQQQAABBBAYRIFGdVG1hcNRhh54Vm/68s4b/ipKY9ogsJICJLBWUp++Iwmsu/Rlz5TJfF7Sqd0GyOYLKq1aTd2rbuG4HwEEEEAAAQQQQAABBFIj4OphVQ8dVKtRjzKmR4wJn79n+03/FqUxbRBYKQESWCslT7+RBM4sl3P5JXu3ldZ0G8DP5jQxc6JkeOy7teN+BBBAAAEEEEAAAQQQSJmAK+o+94SCVrP7gRm7rznmnXd/pRKhcffd0QKBJAT4ST4JRWL0TWDtpi3vNNLvdtuhcXWvZk6US2JxIYAAAggggAACCCCAAALDIOCSV0tzT8jtyOr2slbv3Lfzhnd12477EVgpARJYKyVPv10LrN9UPtPKfllSvqvGLnk1fYIyue6addUHNyOAAAIIIIAAAggggAACKyDQbja0NH8gSlH3xv9l707AI73qO9//3lpUKlVp33txt3djG7eaNg6GQEwAu9XGTHBLBhPMQDIhG2GyQO4kc58h3HsnM5PAzASSTEKSgQCBGKlNYuNW24HBhMVsTattg7GNl3Yvaq0lqapUkmo59zkFJDjB9jnqklSl+r7P46efkP//Ped8zmu3+t9nKeTDex/67O0Pb0K3aRIBbwEKWN5kJGyGwL4bbu4vhkJfknSBb/uxRLPiza2+acQjgAACCCCAAAIIIIAAAjUhkEsvaCWb9u6rkZ6IlEo/efSeOya8k0lAYIMFKGBtMDjNrUHgPe8J7f36Q39kFLzDNzsSiynZZs+98s0kHgEEEEAAAQQQQAABBBCoEQEjZeanVVhZ8e5wIH3w2DVX/Lre+96SdzIJCGygAH+s30BsmlqbwJ4DQ28LGf2FkcI+bwiCkJKdPQpHIj5pxCKAAAIIIIAAAggggAACNSdQLBSUmZ30Pg8rkIqlQL9w/PDoh2tu0HS4rgQoYNXVdNfeYK8avHlHWOGvGJmdfr0PlGhtVzTe5JdGNAIIIIAAAggggAACCCBQowL53JKyCylJfoe6G5mTRualD4zdcapGh06360CAAlYdTHKtDvGiwcFYIkh8ITD6Cd8xNMQTampt900jHgEEEEAAAQQQQAABBBCoaYGlhZRWc1nvMRiZr2a1dN33xsb89yF6t0YCAv4CFLD8zcjYIIGBA0O/I6Pf920uFAor2dUj+ysPAggggAACCCCAAAIIIFBPAqVSUZmZKdlfvZ9Avzt+ePS/eOeRgMAGCFDA2gBkmvAX2Pva1+8xxfA/Smrxyf7+uVfdCkeiPmnEIoAAAggggAACCCCAAAJbRqBYyCszOy1jvM9lXwwZ8/JvHTn0wJbBYCBbRoAC1paZyq0zkL2Dw92SjvqfeyU1JprV2Ny6dTAYCQIIIIAAAggggAACCCCwBoHl9IKWs2nvzEDBSUn7jo2NTHsnk4DAOgpQwFpHXF69NoE9g0MfCKR3SPL6PiOxRiXaOhUEXmlr6yRZCCCAAAIIIIAAAggggEAVCxhjlJ2fVWFl2beXxgT64PHDo//eN5F4BNZTgD/pr6cu7/YWeNHg8BtKMn/rm2i3DjZ39igUifimEo8AAggggAACCCCAAAIIbEmBUqGg9OzUWrYSyih44/Gxkdu3JAyDqkkBClg1OW1bs9N266CR+aak83xHmGjtVDQe900jHgEEEEAAAQQQQAABBBDY0gL53JKyC3NrGePTgYKr2Uq4Fjpy1kOAAtZ6qPJOb4Grrr8tEQrn7pB0vW9yQzyhptZ23zTiEUAAAQQQQAABBBBAAIG6EFhaSGk1l13LWO8tFRdvfuDee9eUvJYGyUHg2QQoYPFtVIXAwP6D71YQ/IFvZ4JQSM1dfQqFQr6pxCOAAAIIIIAAAggggAACdSFQKpWUnjkrU/K+lVAy5rfHjxz6w7qAYpBVLUABq6qnpz46t/eG1+8xQfhzCtTpM2J77lWivUuRhgafNGIRQAABBBBAAAEEEEAAgboTKKyuKpuaWct5WDNBqfjqY/d8+njdoTHgqhKggFVV01F/nbnihuGOaMg8IGm77+hjiaTizW2+acQjgAACCCCAAAIIIIAAAnUpkFuc18pSZi1jP1UMNVz14N2fSK0lmRwEKiFAAasSirxjzQJ7B4f+HxPoP8rIaw9gpCFWXn0VBHzCa8YnEQEEEEAAAQQQQAABBOpKwBhTXoVVWF3xG3egkjGl/3x87I7/5JdINAKVE+BP/5Wz5E2eAnv3D19rgtI/SkHEJ9Wee5Xs6FY4EvVJIxYBBBBAAAEEEEAAAQQQqHuBYiGvzOz0GrYSmkJgQq84dmTk/rpHBGBTBChgbQo7jV47PBzPZcznJf2Er0aitUPReJNvGvEIIIAAAggggAACCCCAAAKS8rmssgv+uwGNgq82zeun779/JAckAhstQAFro8VprywwMDj065LeL/ltHWyIN6mptQNFBBBAAAEEEEAAAQQQQACBcxBYWpjTam7J6w2BVDRB8Fvjh0f+yCuRYAQqIEABqwKIvMJPYODA8ICMOeaXpfJ5V83dfQqFwr6pxCOAAAIIIIAAAggggAACCPyIQKlUVHr6rOy5WL5PUAoPHLvndm4l9IUj/pwEKGCdEx/JaxHYMzh8ZyBzk0+uLV4lOroViTb4pBGLAAIIIIAAAggggAACCCDwLAKF/Kqyc/Y8LL8illFw1/GxkdcBi8BGClDA2kht2gr23DD01iCk/+1LEWtKKt7S5ptGPAIIIIAAAggggAACCCCAwHMI5BZTWlnK+huZ4G3jR0b+WpJf9cu/JTIQKAtQwOJD2DCBF90wfFEpZL4uqd2n0VAkopbOXruH0CeNWAQQQAABBBBAAAEEEEAAgecTMEaLs5MqFQrPF/kv//9zYYWvOTp2++O+icQjsBYBKgJrUSNnLQLBngMH/zowwW1eyXbrYFunorFGrzSCEUAAAQQQQAABBBBAAAEE3ATyK8vKzs9KvlsJjfnY8SOH/i2rsNyciTo3AQpY5+ZHtqPA3v0HbzVB8AnH8H8Ki8biSrR3+qYRjwACCCCAAAIIIIAAAggg4CGQTc0qv5LzyPh+aGB067Ejo3/rnUgCAp4CFLA8wQj3F9j36uHWYtR8Q9LFPtl262BzZ4+CIOSTRiwCCCCAAAIIIIAAAggggICngDElpWemVCp6byV8LJwPXnz0syMLnk0SjoCXAAUsLy6CfQWGh4fDj2ZK/zNQ8A7f3KbWDjXEm3zTiEcAAQQQQAABBBBAAAEEEFiDwGpuSUsLc96ZRuaPL0mGfn1kZKTonUwCAo4CFLAcoQhbm8DADcM3KmzulJHXMip75lWivWttjZKFAAIIIIAAAggggAACCCCwJoFsakb2TCyvJ1BJxeB14/eM3O2VRzACHgIUsDywCPUTuHx4uKEhU/qSFLzYJzMUDivZ2aNQKOyTRiwCCCCAAAIIIIAAAggggMA5CpRKRWVm7VZC38VU5hvhqc6XHT36ofw5doF0BH6sAAUsPox1EnhPaM+B7/xhYMxv+jYQb25VLNHsm0Y8AggggAACCCCAAAIIIIBABQRWsmnl0v5HWhnp/cfHrvht6b2lCnSDVyDwDAEKWHwQ6yIwsP/mFysIfUFS3KeB8tbBtk4p4NP0cSMWAQQQQAABBBBAAAEEEKiYgDHKzttbCT23EkpLQWB+6tjhQ9+sWF94EQI/EKBKwKdQcYFrh4fjuYw5LOk6n5cHQVDeOhiORH3SiEUAAQQQQAABBBBAAAEEEKiwQLGQL28lNMb4vdkEn48368b7R0ZyfolEI/DcAhSw+EIqLjCwf+g9CvR7vi9uTLbI/sODAAIIIIAAAggggAACCCCw+QLLmUXZf7wfo98bPzL6Xu88EhB4DgEKWHweFRXYe+DmXSUT+mog9fm8ONIQU7K9W+KL9GEjFgEEEEAAAQQQQAABBBBYPwEjZeamVMiv+rYxEQ4HLzn6mZGnfROJR+DZBCgX8G1UTGDfvn3RUvf5nzOBXu770mRHt2wRiwcBBBBAAAEEEEAAAQQQQKB6BAqrK8rMTXt3KFDwj6GpJ1599OhRbiX01iPhxwlQwOK7qJjAwODBX5CCD/m+0N44aG8e5EEAAQQQQAABBBBAAAEEEKg+AXsjob2Z0P8xbx8fO/QX/nlkIPCvBShg8VVURGDfq4dbi1HzLUkX+LzQHthuD263B7jzIIAAAggggAACCCCAAAIIVJ+APcjdHuhuD3b3fJ4I54MXHf3syIJnHuEI/CsBqgZ8FJUQCPYODn3CSG/0fVmivUvRWKNvGvEIIIAAAggggAACCCCAAAIbKJBfySmbmvVv0eiT40dG3+SfSAYCzxSggMUXcc4Cew8cvNqY4AuSmnxe1tCUUFNLu08KsQgggAACCCCAAAIIIIAAApsksLSY0upS1rf1pSAwP3Xs8KFv+iYSj8CPClDA4ns4N4H3vCc08LVv36FA/8bnRUEopObOHoXCEZ80YhFAAAEEEEAAAQQQQAABBDZJoFQsKD07JVMqefbA/N34NVce1Hvf65vo2Q7hW1mAAtZWnt0NGNve/QdvNaHg4zIK+TSXaOtUtDHuk0IsAggggAACCCCAAAIIIIDAJgvkl3PKzntuJQxUCkrmzceOHPrkJnef5mtYgAJWDU/eZnf9qutvSwTh3P2B9EKfvtjClS1g8SCAAAIIIIAAAggggAACCNSegC1g2UKWz2OkB00xfu0D937Mew+iTzvEbl0BClhbd27XfWQD+4d+RSF90Hf1VXNXn8IRtg6u+wTRAAIIIIAAAggggAACCCCwDgLFQkHpmbN+bw5UKhnzjgfGDv0vv0SiEfi+AAUsvoQ1Cew58PpLAhM+5ntwe7y5VbFE85raJAkBBBBAAAEEEEAAAQQQQKA6BFayaeXSC56dMUsKa2D8M4ce80wkHAEKWHwDaxMYGDz4p1Lwyz7Z4UhUyc4eBQF1Ux83YhFAAAEEEEAAAQQQQACBahMwxigzO6ViIe/XtUB/On549Ff9kohGgBVYfANrENg7OHy5MeZrCpT0SW9q7VBDvMknhVgEEEAAAQQQQAABBBBAAIEqFVjNZbW0kPLrnVEmFA5f8627b3/YL5HoehdgKUy9fwGe4993001NpXzjF01gXuSTGmloVLKjyyeFWAQQQAABBBBAAAEEEEAAgSoXyMzNqLC67NXLwOhoKLryiqN33bXklUhwXQtQwKrr6fcf/FX7h18XCswdksKu2XbLYLKjW+Fog2sKcQgggAACCCCAAAIIIIAAAjUgUFxdVSY1Lbul0OMplkxw8wNHRu70yCG0zgUoYNX5B+Az/J8Y/NmWZbPytSDQZT55DY1xNbV2smHVB41YBBBAAAEEEEAAAQQQQKAWBIy0tDCr1eWcZ2+Dh2NqeMnXxv5m0TOR8DoVoIBVpxO/hmEHe/Yf/P0gCP6DT24QCqmlu5+D233QiEUAAQQQQAABBBBAAAEEakjArr5anJ6QKZW8em2M+a/Hjxz6XUley7e8GiF4ywhQwNoyU7m+A9k7ONxtZI5L6vdpqbG5VY2JZp8UYhFAAAEEEEAAAQQQQAABBGpMYDmb1nJ6wbfXE4GCPcfGRqZ9E4mvPwEKWPU3594jHh4eDj+aLn04CILbfJJDobCau3plV2HxIIAAAggggAACCCCAAAIIbF0Bu/oqPTOpUqnoO8iPXpwMfm5kZMQ70bch4mtbgAJWbc/fhvR+4MDwa2RK90iB1/eS7OxWJBrbkD7SCAIIIIAAAggggAACCCCAwOYKFPIrysz6LqYyJgiZ64/dfcdnN7f3tF7tAl4FiWofDP1bH4GBwaF7Jb3G5+2RhkYl2+3B7XxiPm7EIoAAAggggAACCCCAAAI1K2CMMqlZFVaXfYdw7/jY6A2+ScTXlwDV8MkbcAAAIABJREFUhfqab+/R7rnh4C1BKLjdN7G5s0fhaINvGvEIIIAAAggggAACCCCAAAI1LFDMryo9O+U/AqNbxo+MjvgnklEvAhSw6mWm1zDOva954zYTLnxDgbb5pMcSzYo3t/qkEIsAAggggAACCCCAAAIIILBFBHLpBa1k076jOR0UVq859g93nvFNJL4+BChg1cc8r2mUe/cf/A8mCH5fkvN3Yg9st6uvQuHImtokCQEEEEAAAQQQQAABBBBAoLYFSsVCeRWWPdjd4zGB9DvHxkb/m0cOoXUk4FyYqCMThirpquuHzw+H9R0j0+gDEm9uUyyR9EkhFgEEEEAAAQQQQAABBBBAYIsJ2BVYdiWWzxMoWDYm/ILxI3/7lE8esfUhQAGrPubZa5TXXXddZL6p6xMyGvZJtGdeNXf0eKzX8nk7sQgggAACCCCAAAIIIIAAAjUjYKT03JTsmVheT6CRtqWZN913330FrzyCt7wABawtP8X+A3zJ/jfuXg4KD0ryWkrV1Naphsa4f4NkIIAAAggggAACCCCAAAIIbDmB1eWcluZn/cZllJEiL2QVlh9bPURTwKqHWfYbYzAwOHSPpNf4pEUaGpVs75QCPikfN2IRQAABBBBAAAEEEEAAgS0rYIwyqVkVVpd9h3jv+NjofknGN5H4rStAtWHrzu2aRrZ3/9CrTKDP+iR//+D2XoXCYZ80YhFAAAEEEEAAAQQQQAABBLa4QKlYVHp20vdAdwVGrz52ZPRzW5yH4XkIUMDywKqH0D2Dw6OBzEGfsTbEE2pqbfdJIRYBBBBAAAEEEEAAAQQQQKBOBJYWUlrNZX1HOzo+Nup1LrNvA8TXlgAFrNqar3Xt7ZUHDl4dMfqSFMRcGwqFwmru6pVdhcWDAAIIIIAAAggggAACCCCAwL8UMKWi0jNTKpWKHjhmpRgKvezBu0eOeiQRuoUFKGBt4cn1Gdrlw8MN0ayOBsZc6ZMXb21XLJ7wSSEWAQQQQAABBBBAAAEEEECgzgRWclnlFlJeozZB8FA+oX3fGRnxvMrQqxmCa0SAAlaNTNR6d/OqweGfDsmMSWpwbcuuumrp6mP1lSsYcQgggAACCCCAAAIIIIBAnQqYUkmLM2d9z8JaNaXS/uP33PH5OmVj2D8iQAGLz0HDw8PhxzLl4pXXzYPxljbFmpIIIoAAAggggAACCCCAAAIIIPC8AitLGeUW55837l8E3HtxMjgwMjLis//Qtw3ia0CAAlYNTNJ6d3HP/uHXB4E5JMn5ewhHo+WbB3kQQAABBBBAAAEEEEAAAQQQcBVIz0yqWMi7hts4I4VuHh/71N/5JBG79QScCxZbb+iMyArsvu6tjW3x9Gel4GU+IvGWdsWaOPvKx4xYBBBAAAEEEEAAAQQQQKDeBda4CutL87mZ1zx1333L9e5Xz+OngFXPsy/pqgMHfyJkgi9LCrtShOzZV939UsDn42pGHAIIIIAAAggggAACCCCAgF1PZbQwPeF7FlaxFJiXPXD40NcwrF8BKhD1O/e69trheK7NPCDpIh+GZHuXIrFGnxRiEUAAAQQQQAABBBBAAAEEECgL5FeWlU3N+Go81pZLXnXffR9hFZav3BaJp4C1RSZyLcPYc2D4tsCYj/rkhqMNSnZ0K2D1lQ8bsQgggAACCCCAAAIIIIAAAj8QMMYoMzetYn7Vy8SEQrcdv/tTH/dKInjLCFDA2jJT6T+QgQNDX5bRS30ym1o71BBv8kkhFgEEEEAAAQQQQAABBBBAAIFnCKzmslpaSPmpBPrK+OFRr/Ob/RogupoFKGBV8+ysY9/2DN78hkChT/rdPNig5s6edewVr0YAAQQQQAABBBBAAAEEEKgXgfTslO8qLGNK5o3H7zn0qXoxYpz/LEABqw6/hn2vHm4tRkqPKgi8qlGJ9i5FOfuqDr8YhowAAggggAACCCCAAAIIVF5gLWdhGWkykg8uPfrZkYXK94g3VrMABaxqnp116tvAgZvfJBOyZ1853zwYjkSU7Ozl7Kt1mhNeiwACCCCAAAIIIIAAAgjUm0D5LKzZSRULBZ+hFwNjbjt25JDdUcRTRwIUsOposu1Q9910U1Ox0PhNybzAfeiBvn/zYMw9hUgEEEAAAQQQQAABBBBAAAEEnkegsLKiTPlGQuNhZR4OR1avPnrXXUseSYTWuAAFrBqfQN/u7x0c+i0jvc8nz24btNsHeRBAAAEEEEAAAQQQQAABBBCotEA2NSO7ndDnMdK7jo+Nvt8nh9jaFqCAVdvz59X7y68bTjbE9XW/1VdSor1T0Vjcqy2CEUAAAQQQQAABBBBAAAEEEHARyC/nlJ2fdQn9kRjz8GoudM137hvJeCYSXqMCFLBqdOLW0u09+w++OQiCj/nkhqPcPOjjRSwCCCCAAAIIIIAAAggggIC/wBpuJLSNvHl8bPRv/FsjoxYFKGDV4qytoc9Xvu7W3kg+/7Ckdtf0IAiU7OxROBJ1TSEOAQQQQAABBBBAAAEEEEAAAW+BYiGvzOyU7MHuHs9cIbp6+UN33jnpkUNojQpQwKrRifPt9sDg0Lsk/aFPXiTWqGRbpxTwmfi4EYsAAggggAACCCCAAAIIIOApYG8knJ9VwfMsLEnvHh8b9Trn2bNnhFeJAJWJKpmI9e7GnsGhBwLphT7tNHd0K9zAzYM+ZsQigAACCCCAAAIIIIAAAgisTaCwuqLM3LRv8gPjY6N7fJOIrz0BCli1N2fePR7YPzSsQJ/ySWxojKvJrr7iQQABBBBAAAEEEEAAAQQQQGCDBJbmZ7W6nPNqLVBp+NjYHaNeSQTXnAAFrJqbMr8O77vppqZCoeG7gYKdzplBoPLqq2iDcwqBCCCAAAIIIIAAAggggAACCJyrQDG/qrRdheVxFpaRORmJrF529K67ls61ffKrV4ACVvXOTUV6tufGm18ZFEP3KJDzSezRWKMSnH1VEX9eggACCCCAAAIIIIAAAggg4CGwlrOwjPImXLrh+N13fN6jJUJrTIACVo1NmG939+wfOhQEutk1z9482NzVq1A44ppCHAIIIIAAAggggAACCCCAAAIVEygVC0rPTHrdSGgUHDo+NjJUsU7woqoToIBVdVNSuQ7tGTy4N6TgG0YKu76Vs69cpYhDAAEEEEAAAQQQQAABBBBYLwHfs7ACqWiC4OrxwyPj69Un3ru5AhSwNtd/3VofHh4OP5YtfVQmeJNPI4n2LtkthDwIIIAAAggggAACCCCAAAIIbJZAfiWnbGrWs3nziYuTobeMjIwUPRMJrwEBClg1MElr6eLeweFuI/OgpF7XfLttsKWrT+KrcCUjDgEEEEAAAQQQQAABBBBAYD0EjLQ4c1Z2O6HHMxkoeOGxsZFpjxxCa0SAUkWNTJRvN/cMDv+nQOa9PnnJ9i5FWH3lQ0YsAggggAACCCCAAAIIIIDAOgkUVpaVSc14vd1I/+n42Oj/65VEcE0IUMCqiWny6+SLDwz35U3pKSmIuWaGI1ElO3tkD3HnQQABBBBAAAEEEEAAAQQQQGCzBYy9kXB2SsVC3qMrZiUahHZ/4/DIWY8kQmtAgGpFDUySbxf37D/4G0EQ/HefvMZkqxqTzT4pxCKAAAIIIIAAAggggAACCCCwrgLLmUXZfzyf3xgfG/2fnjmEV7kABawqn6C1dG/P/qFvBoH2ueYGoVD57Cv7Kw8CCCCAAAIIIIAAAggggAAC1SJgSqXyWVj2V9fHGB09fmT0atd44mpDgAJWbcyTcy8Hbhy+USXzGecESay+8tEiFgEEEEAAAQQQQAABBBBAYCMFljNpLWcW/Jo05sbxI4cO+yURXc0CFLCqeXY8+7bvppuaioXGb0rmBa6p9syr5s4ehSJR1xTiEEAAAQQQQAABBBBAAAEEENgwAXsGlj0Ly56J5f4ED4cjy1cfveuuJfccIqtZgAJWNc+OZ9/2Dg7/lJG5R5Lz4e321kF7+yAPAggggAACCCCAAAIIIIAAAtUqYG8jtLcSejwrgYIbjo2NfMEjh9AqFqCAVcWT49u1gQNDn5DRrT55Ld39CoXDPinEIoAAAggggAACCCCAAAIIILChAqViUYvTE35tBuYT44cP/axfEtHVKkABq1pnxrNf+w4Mv7BodFQyznsBo41xJdo6PVsiHAEEEEAAAQQQQAABBBBAAIGNF8jOzyq/nPNpOF8Mgn0PHh550CeJ2OoUoIBVnfPi26tgYHD445J5k09ior1T0VjcJ4VYBBBAAAEEEEAAAQQQQAABBDZFwBavbBHL8/mb8bHR2yT5HKDl2QThGyFAAWsjlNe5jStuGO6IhsxDkvpdmwqFI2ru6pU9xJ0HAQQQQAABBBBAAAEEEEAAgWoXsIe4p2cmVSoWPLoanMmX9MJv3zMy55FEaBUKUL2owknx7dLA/uF3KzB/4JOXaO9SNNbok0IsAggggAACCCCAAAIIIIAAApsqkF9ZVjY149uHd4+Pjb7PN4n46hKggFVd8+Hdm2te9frO1YbwaZ+bB0ORiJo7WX3ljU0CAggggAACCCCAAAIIIIDApgqUV2HNTqpU8FmFpZWG1eL2r3/u0977Dzd1sDT+DAEKWDX+QewZPPiOQMEHfYbRmGyR/YcHAQQQQAABBBBAAAEEEEAAgVoTWM4syv7j9QTmHeOHD/2JVw7BVSVAAauqpsO7M8HeweGvGJmXOGcGgVp7+hUEIecUAhFAAAEEEEAAAQQQQAABBBCoFgFjSlqYmpCM+7nsgcxXj40deimHuVfLLPr3gwKWv1nVZLzoxqGXm5I+b6Swa6dYfeUqRRwCCCCAAAIIIIAAAggggEC1CviuwgqkYhDSK7919+gXq3VM9Ou5BShg1egXct1110VS8e7PBzI/6ToEe+NgsrNH4UjUNYU4BBBAAAEEEEAAAQQQQAABBKpOoFjIKzM7JXsmlutjpC+152Zeed9993kdoOX6fuLWV4AC1vr6rtvb99xw8IogFHxVUtK1kUhDo5IdXa7hxCGAAAIIIIAAAggggAACCCBQtQKZuWkVVld8+pcJFPzEsbGR7/gkEVsdAhSwqmMevHsxsH/43QrMf5PkNodBoGZWX3k7k4AAAggggAACCCCAAAIIIFCdAnYVVnp2yucsLLtc67fHx0bfV50jolfPJeBW/MCwqgT27dsXLfac/4SkHa4di8YalWhn9ZWrF3EIIIAAAggggAACCCCAAALVL5BNzSi/suzT0VPhqScvOHr0aN4nidjNF6CAtflz4N2DPQduvi0woY/6JDa1dqgh3uSTQiwCCCCAAAIIVEDA/lXv7MKiZtNpndfdrXisoQJv5RUIIIAAAgggYAVWc0taWpjzwjAhc9vxuw993CuJ4E0XoIC16VPg14F9+94eLXan7lFgXumaaQ9vb+nuVxAKuaYQhwACCCCAAALnKFAqlZTKZnVyalrz2ew/vW1bZ4e2dXQo0dgo+3s0DwIIIIAAAgisXcCUSlqcnvA6zF0m+Hx4uv2Go0c/xCqstdNveCY/NW04+bk1eOXrbu2N5POPSmpxfVNjc4saE87hrq8lDgEEEEAAAQSeRSCVzujRU6e0XCj82B+oQ6GQ2hMJXbx9mxobWJHFh4QAAggggMC5CCxnFmX/8XgWC9HoJQ/d+clJjxxCN1mAAtYmT4Bv83sHh/6rkf4v1zy76qq5q1ehUNg1hTgEEEAAAQQQWINAsVTSzMKCJuZSz1hx9VyvCodC6mptUX9Hh9oSiTW0SgoCCCCAAAIIlEpFpWcmZVdjuT5BYP7rscOHfsc1nrjNF6CAtflz4NyDy171+s7GhvCUJOe9gJFYo5Ic3u5sTCACCCCAAAK+Anar4EJ2SY+ePq3c6qpv+j/FtzcndfG2bYo3NLC1cM2KJCKAAAII1KtAJjWjgsdh7kYqrawWe777uU/P1qtZrY2bAlYNzdie/cNvDwLz5z5dTrR1KtoY90khFgEEEEAAAQQcBIwx5dVWZ+bmlM3lZA9rP9fHrshqTSR0Xk83K7LOFZN8BBBAAIG6Esgv55Sd961FmbePjx36i7qCquHBUsCqocnbs3/4SBCYG1y7HApH1NLVJzHLrmTEIYAAAggg8LwC+UJRc5m0TkxOaWll5Xnj1xrQ1dKind3dam6KK8Rh72tlJA8BBBBAoF4EjLQ4c1alYsF5xMYE9xw/MrLfOYHATRWgtLGp/O6Nv/jAcF/emJOSIq5Z8ZY2xZqSruHEIYAAAggggMDzCEzMzunJyUnli/Zw9vXnsoUre1uhPey9palp/RukBQQQQAABBGpYYGUpo9zivM8ICoXV6I6HPsdh7j5omxVLAWuz5D3b3Xvg4F8aE/y8a5q9lru5s1ehiHO9y/XVxCGAAAIIIFBXAquFgqbm58vbBbPLy5sydlvIak8my4e925VZrK7elGmgUQQQQACBKhcoFgrKzE7+2BuAn7XrRn85fmT0F6p8aHRP/PhTEx/BVde/viccDn/HSJ2uHY40xJTs6HYNJw4BBBBAAAEE/oVAoVgs3yr4+NmzstsGq+VpisV02c4dSsbZWlgtc0I/EEAAAQSqRyAzN63CqvsW/0CaLRaLlz9w76fthWk8VSzACqwqnpwfdu2qA8P7Q8bc5bN9sLmzR+FoQw2Mji4igAACCCBQXQL2VsGnp6Y1tbCwrmdcncuo7Urrlqa4tnd2qru1lVsLzwWTXAQQQACBLSVQzK8qPetViyqUguCmBw6PHNlSEFtwMBSwamBS9+4f+oQJdKtrV23hyhaweBBAAAEEEEDAXWAln9f0wqJOTE0pX3A/ANa9hfWJtGdj7ertKd9aaG8x5EEAAQQQQKDeBWwByxaynB+jT44fGX2TczyBmyJAAWtT2N0bvfzAcF+D7+Htza2KJZrdGyESAQQQQACBOhYoGaMTk5M6MzunfLF6tgr6TIldkRWLRnVhf195RRYPAggggAAC9SywnE1rOb3gQ1BYDYKd3zk8ctYnidiNFaCAtbHe3q0NHBj6PRm9xyexuatX4UjUJ4VYBBBAAAEE6k4gt7qqs3MpnU2lZFdfbYXH/mBnV2T1dbSrt61NIVZkbYVpZQwIIIAAAp4CxUJe6ZlJv6xA7x0/PPp7fklEb6QABayN1PZs69prh+O5NvOPkq52TY1EG5Rk+6ArF3EIIIAAAnUoYLcHnp6Z1dPT07Krr7bqE42EdemOHeXbC9lauFVnmXEhgAACCDybQGZ2SgWfbYTSN9tyyZffd99HNufKYabyeQUoYD0v0eYFvOiG4YtKYfOAjOKuvbA3D9obCHkQQAABBBBA4JkCq4WCnpqc1OxiesusuHKZ40Rjo/o72rWto4MVWS5gxCCAAAIIbAkBexOhvZHQ+QmUCxWDq751z8j3nHMI3FABClgbyu3X2N4DQ39mjH7RNSsUiai5s5ebiFzBiEMAAQQQ2PICdoFVbnVFk6mUTk7PbOkVV883mfFYTLt7utXR3KxoJPJ84fz/EUAAAQQQqGkBY4zSs5MqeVzMEsj82bGxQ79c0wPfwp2ngFWlk3vV9a/vCYXDpyU5/4TZEE+oqbW9SkdEtxBAAAEEENhYAXsg++NnJjS9sKBiqbSxjVdxa7Z4taunW9s7O/lLryqeJ7qGAAIIIHDuAksLKa3msh4vMoVSsbT9gXs/PeWRROgGCVDA2iBo32b2DB78uUDBX/nk2bOv7BlYPAgggAACCNSzQCaX08RcSpPz8yrU6K2CGzF/TbFY+bD3/vZ2VmRtBDhtIIAAAghsuIA9A8ueheXzmEA/d/zw6Id9cojdGAEKWBvj7N3KnsGDo4GCg66J4WiDmjm83ZWLOAQQQACBLSZgtwmsFAp68uxZTabmt9jo1nc4oSDQhdv6y7cWRsLh9W2MtyOAAAIIILDBAunZKRX9DnMfHR8bHd7gbtKcgwAFLAekjQ65dng4nsuaMzJqc23bbh20Wwh5EEAAAQQQqDeB7MqKnjo7qflMRnbbIM/aBOINDepua9XOri5WZK2NkCwEEEAAgSoUsFsI7VZCj2d+vjfZ/9RHuI3Qw2xDQilgbQizXyN79x98pwmCP3LNCoJAzV29CoWdj8tyfTVxCCCAAAIIVKWAXXGVWV7WmdnZ8nZBnsoJNEQi2tnTre6WFjU2cDRB5WR5EwIIIIDAZgiUigWlZyZlf3ZwfQLpncfGRj/oGk/cxghQwNoYZ+dWLh8ebmjIlB6Rgt2uSZGGmJId3a7hxCGAAAIIIFDTArmVFT165owWsksqcTj7us2l3U7Y196mC/r7ZbcZ8iCAAAIIIFCrApm5aRVWV5y7bwI9mU8El31nZGTVOYnAdRfgp5F1J/Zr4EX7D15VCoL7JTW5ZtrilS1i8SCAAAIIILCVBVKZTHm11cziIoWrDZxouyLr+4e9dygeY0XWBtLTFAIIIIBAhQRs8coWsTyepZAx137ryKEHPHIIXWcBCljrDOz7+oEDt/yqTOmPXfPstsGW7j7XcOIQQAABBBCoKQG73D+3sqpHTp/WQtbnGuyaGmZNdNYeWbCjq0vndXNGVk1MGJ1EAAEEEHiGwOL0WdnthM5PYN4xfvjQnzjHE7juAhSw1p3Yr4GBA8PjMmaPa1asKal4i/NZ766vJQ4BBBBAAIFNF0hlsjo5PVXeKlhkq+Cmz8cPO2BXZHU0N2tXb4/swe88CCCAAAII1IJAbnFeK0sZn66Oj4+N7vVJIHZ9BShgra+v19sH9t/8YgWhr/skJdq7FI01+qQQiwACCCCAQNUK2DOtFpdyOjk9rdl0umr7ScekcCikbZ0d6mtvV6KRn0X4JhBAAAEEqlsgv5JTNjXr1ckgMC8+dvjQN72SCF43AQpY60br/+KBwaEPSfoF10y7lL+lZ5vsrzwIIIAAAgjUuoDdIvjo6TNaWlnxuimo1sdd6/23hSy7IuvSHdtlD37nQQABBBBAoBoF7LEEi1NnPH/GCD40Pjbyi9U4nnrsE5WPKpn1q66/LREKL39VMle6dqkx2azGZKtrOHEIIIAAAghUnYC90XpmcUETc3OyWwZ9rriuusHUeYdsIaunrU39He1qaXK+i6bO1Rg+AggggMBGCixnFrSc8VnhbR4qFZte8sC9H+Mgzo2cqGdpiwJWFUyC7cLAaw9erGLwbUlRpy4FgVq7+xSE+JtOJy+CEEAAAQSqSqBUMkrnlvTdk6eUW+WG6qqanAp0pqetVRf09SkWjbJSvAKevAIBBBBAoDICplTUwvRZyf4NmtuTD0WDy79158j33MKJWk8BCljrqevx7r37h/7MBHJemhiONijZ0c0PhR7GhCKAAAIIbL6AXWE1tbCg0zOzSudyrLja/ClZtx7Y7YRtiSbt6u1Vczy+bu3wYgQQQAABBFwF7M8hmblpFfPuf3lmjP78+JHRX3Jtg7j1E6CAtX62zm9+4Y1vag+XVs9Kcr7KJ5ZoVryZ7YPOyAQigAACCGyqQKFY1Hw2qxOTU+XCFU/9CNizOntaW7W9q7NcyOLszvqZe0aKAAIIVKNALr2glazPNkKtKpbsHf+7j8xX43jqqU8UsKpgtgcGD/6MFHzapyst3X0KhSM+KcQigAACCCCwKQJT8/N6fOKsVvN5OS/Y35Se0uh6CoRCgZob47rsvJ2KNzj/nd16dol3I4AAAgjUoUCpWNCi3Ubo8wT6mfHDo3/vk0Js5QUoYFXe1PuNeweHPmCkX3NNjDTEytsHeRBAAAEEEKhWgWKppMnUvCZSKaWXlqq1m/RrEwTsD59dra3q7+hQezLBiqxNmAOaRAABBOpdwG4jLKyuODMY6YPHx0bf6ZxA4LoIUMBaF1avlwYDg0MPSrrCNauptUMNcW73cfUiDgEEEEBg4wRs4WoundYjp06pUCxtXMO0VJMCrYmELtnWr6bGRgpZNTmDdBoBBBCoTYHV3JKWFubcOx8ED40fHrlKYjG5O1rlIylgVd7U6417X/uGPaZY/JakkEuiPTci2dmjcMTtskKXdxKDAAIIIIDAuQrYwtWZ2VmdTc0ru7x8rq8jv44EQkGg5qYmndfTrc7m5joaOUNFAAEEENgsgWIhr8zslM9lMqWCMXsfOnLogc3qM+1KFLA2+SsYGBz6a0lvce1GKBJRS2evFDB1rmbEIYAAAgisn8BqoaDZxbSenppSbtX9Rp/16xFvrmUBu6VwZ3ePWhNNCoec/m6vlodL3xFAAAEENkvAGC3OTqpUKPj04K/Hx0bf6pNAbGUFqIJU1tPrbVfcMNwRDZmHJfW4JtqbB+0NhDwIIIAAAghspoC9hvrk9Iyenp6WvWGQB4FKCdjV5vaQ90t2bFdbIlGp1/IeBBBAAAEEniGwnE1rOb3gozJVDDVc9uDdn0j5JBFbOQEKWJWz9H7TwI1DL1VJ/0dSzCXZ/kDX0tOvIOBvJF28iEEAAQQQqLyAvUnwbCpVPpw9t8KKq8oL88YfFWhLJrSto0OdLS2syOLTQAABBBCoqIAxJS1OTfhsI1wJwsErj31m5P6KdoSXOQtQwHKmqnzgwI3D/1El8/+5vpnbB12liEMAAQQQqLSAXWVlC1dPTJxVyZhKv573IfCcAvFYgy7Ztr28tTDE1kK+FgQQQACBCgn43kYomf97fOzQf65Q87zGU4AClidYJcMHBoe+K+lS13eyfdBVijgEEEAAgUoJ2DOuTk5Na3pxUcuccVUpVt6zBoHyRTaNjdrW2am+jnYOcl2DISkIIIAAAs8UWMM2wkfGx0Yvw3FzBChgbY679rx2+JqgaL7m03yzvX0w2uCTQiwCCCCAAAJrErAHsk/PL+jk9LTynHG1JkOS1k8gEYtpV1+v2pNJRcPh9WuINyOAAAIIbGmBYn5V6dkpvzGa8DXjR27/hl8S0ZUQoIBVCcU1vGPv4MEPGgXvcE0NhcLl8694EEAAAQQQWE+BojF6/MyEpubnOZx9PaF59zkL2AuZY5Godvf1qa9EQJO5AAAgAElEQVStjbu1z1mUFyCAAAL1KWDPwSqV3C+kCaQPHhsbfWd9am3uqClgbYL/tdcOx5dazReDQPtcm483tymWSLqGE4cAAggggICXwNLKiibm5nQ2Na+835XSXu0QjMB6CNithf2dHeppa2NF1noA804EEEBgCwusZDPKpeedR2iMjjYtBC+///6RnHMSgRURoIBVEUa/l1z5ult7I/n8o5JaXDLLtw929yvg0FIXLmIQQAABBDwEbLHqxNSUTs/O+dzC49ECoQhsnEAkHNZF2/rV3drKrYUbx05LCCCAQE0LmFJJi9NetxEuFKLRSx+685OTNT3wGuw8BaxNmLS9g0NvMdJfuzYdjkaV7OiRLWTxIIAAAgggUAkBu+LKFq7m0hlWXFUClHdUjYD9aSkei6m3vU07u7sV4uenqpkbOoIAAghUo4AxRpm5KRXzeefumSB4y/HDIx9zTiCwIgJURCrC6PWSYODA0FdldI1rVqwpqXhLm2s4cQgggAACCPxYASMpu7yss3MpnZmbU6lUQgqBLS3QEIloV2+vulqaFYtGt/RYGRwCCCCAwNoFcovzWlnKuL8g0NfGD49eK8n+eMWzQQIUsDYI+ofNDOz/md0KIk/I46jRZGePItw+uMEzRXMIIIDA1hKwWwUfOXVKqUxWRQpXW2tyGc3zCkQjYW3v7NR5PT2syHpeLQIQQACB+hMo5FeV8buN0MgULhg/8ndP1Z/W5o2YAtYG2++54ebbglDoo67NhsLh8vlXPAgggAACCPgKGCMtLi2VD2e3twqW7P/Ag0AdCzQ2NKi/vV19He2syKrj74ChI4AAAj9OwJ6DVSq630ZojLnt+JFDH0dz4wQoYG2cdbmlgcGDfy4Fb3dt1t48aG8g5EEAAQQQQMBVwJ7lsJzP64mJCU0vLLqmEYdA3QjYc0V39/ZoW2cntxbWzawzUAQQQOC5Bby3Ecp8aHzs0C/iunECFLA2zvoHBazh70jmBa7NJtq7FI01uoYThwACCCBQ5wJ2xdWJySnNZ9kqWOefAsN3ELDnYnW3tmhXT4+ikYhDBiEIIIAAAltVIL+yrGxqxmN45uHxsUOXeyQQeo4CFLDOEdAnfc+BN1wSmOJ3Xc+/CoKQmrt6FArzA5WPM7EIIIBAvQnYrYHppSWdnpnV9MICp4nW2wfAeM9ZIBQK6bzubvW0taopFjvn9/ECBBBAAIHaEygVC0rPTMkY50tujArm0vF/OPRY7Y22NntMAWsD523P/qE/CgK907XJcCSq5q5e13DiEEAAAQTqUGBpZUUPnzylbC7HGVd1OP8MubIC4VBI3a2turC/jxVZlaXlbQgggEBNCKRnJlUs5D36av5ofOzQr3skEHoOAhSwzgHPJ/Wq669PBOHmhwMFO13z4i1tijUlXcOJQwABBBCoEwG74iqVyWhidk4zi5xxVSfTzjA3UMBuJ+xta1N/R7sSjRzlsIH0NIUAAghsqsDKUkb2LCzXx8icjERWLzt6111LrjnErV2AAtba7bwy9x0YfmHRmPslJZwSg0CtPdtkDxnlQQABBBBAwArYwlV2eVmPnT6txaUcKAggsAEC/R0dOr+vt3zYOz+XbQA4TSCAAAKbKGAvwlmYOiO539ycDQfBtUcPjzy4id2um6apjmzQVO/Zf8ubg6D0UdfzryINMSU7ujeodzSDAAIIIFDtAnal1cmpaaXZKljtU0X/tqBANBJWR7JZu3p7OCNrC84vQ0IAAQR+VCAzN63C6oorijHGvOX4kUMfd00gbu0CFLDWbueVOXBg6HYZ3eKa1Jhskf2HBwEEEECgfgWKpVL5NsGnp6a1kM3WLwQjR6BKBOwKLLutcFtHhxLxuPhBukomhm4ggAACFRRYzixoOZN2f2OgT40fHn2DewKRaxXg9921ynnkXXfddZH5eFdKkvOBVsn2LkVinLngwUwoAgggsKUEUumMHjtzRrnVVdnl7DwIIFA9AvbWwtamJl2yY7viDQ3V0zF6ggACCCBwzgKFlWVlUjM+78m05Wba77vvvoJPErH+AhSw/M28MwYODL9GxtzrnFg+/6pfQRByTiEQAQQQQKD2BeyKq5mFRZ2Zm2PFVe1PJyOoAwF7a2FXa2t5VVZbwu2Y0zpgYYgIIIBATQsYU9LC1ITPOVgKQqXXHLv7js/W9MBroPMUsDZgkvYcGPqjwOidrk01xJvU1NrhGk4cAggggECNC5RKJaWyWT12+oyWV1drfDR0H4H6FGhvTuqS7dvVGI1y2Ht9fgKMGgEEtpDA0sKcVnPuFwuaQB84fnj0328hgqocCgWsdZ6WiwYHY0klPi/pWtemEh3dijbEXMOJQwABBBCoUQG7NXBibq684iq7vMJWwRqdR7qNwA8F7NZCuxLrvJ5uVmTxWSCAAAI1LJBfXVF2btp9BIG+kjHZn/7e2Jjz6e/uLyfyhwIUsNb5W7jihuGOSMh8O5D6XJoKQiG1dPXJ/sqDAAIIILA1BfKFgubSGT01OVk+44oHAQS2loD9AbuzpUU7urvKZ2XZw995EEAAAQRqR8CUSlqcOSv7q8tjpLOFUnDFt+8ZmXOJJ2ZtAvxuujY356yrBm9+SUihr0huF9WEow1KdnTzg46zMIEIIIBA7QjYs9gnUnM6MTml1XxeHM1eO3NHTxFYi0AoCMqHvF+6c4damprW8gpyEEAAAQQ2QcCuks/MTauYd/6LRlMqmmsfuPfQ1zahu3XTJAWsdZ7qgf0H/1xB8HbXZhriCTW1truGE4cAAgggUAMCdsXV5PxCebtgdnm5BnpMFxFAoJICdgVWR3NS/e0d6mxp5i8qK4nLuxBAAIF1ElhaSGk1l3V+e2D058eOjP6ScwKB3gIUsLzJ3BP27dsXLfacn5LkfC1Nor1T0VjcvREiEUAAAQSqVqBQLGp6YUGPT0yoUHRbgl61g6FjCCBQEYFEY6NesHOHmhobZVdo8SCAAAIIVKdAfiWnbGrWp3PZ8NST7UePHs37JBHrLsDvmu5W3pED+9/wYgXFrzsnBoFae7bxt3LOYAQigAAC1SlQLJV0cnq6vOoqt8JZntU5S/QKgc0TsHWrlniTtnd1qbu1hZ/9Nm8qaBkBBBB4VgG7jXBh6oxkz4BwfUz4mvEjt3/DNZw4PwEKWH5eXtF7Bod+LZA+4JoUjTUq0d7lGk4cAggggECVCSzn85pZWNSJqUnlC8Uq6x3dQQCBahSwZ2PtsrcWJpMKc4lPNU4RfUIAgToWyKZmlF9xP/7BSO88Pjb6wTomW9ehU8BaR96BwaGPS/pZ1ybiLe2KNTnvNnR9LXEIIIAAAussYFdcnZia1sTsrPJFClfrzM3rEdhyAvaMrIZIRBdt21ZekcWDAAIIIFAdAitLWeUW7alAjk+gj48fHr3NMZowTwEKWJ5gPuEDg0OPSbrIKScI1NzRLXsLIQ8CCCCAQG0ILK+uamIupbOplFbyHHdQG7NGLxGobgG7Iqu/o0Pdba2KsCKruieL3iGAwJYXsLcQpuemfbYRPjY+NnrJlofZpAFSwFon+KsGb94RUuik6+uDUEgtXX2yv/IggAACCFS3gL1V8NTsrJ6empY9H4EHAQQQqLRALBLRJTt2qC2ZYGthpXF5HwIIIOAoYEpFLc5MypTcL+Mx4WDH8c+MnHZsgjAPAQpYHlg+oQMHDr5bJvgD15xIQ0zJjm7XcOIQQAABBDZBYLVQ0InJKc0sLrLiahP8aRKBehSwtxb2dbRrW0cHhax6/AAYMwIIbLpAZm5ahVWvS3nePT42+r5N7/gW7AAFrPWY1Pe8JzTw9e98VTIvdn19U2uHGuJNruHEIYAAAghsoMDSyoomU/PlmwVLrLjaQHmaQgCBHwrEYzHt6u5WZ0uzopEIMAgggAACGySwmstqacHrHKyvjx++4lrpve7LtjZoLLXeDAWsdZjBq65/fU8oHH5YUofr69t6t0v2TmUeBBBAAIGqEbArrh4/M1FecWUPaudBAAEENlPA/qQYCYe1q7dHO7q4uXoz54K2EUCgjgSM0fyk+47AQJotFouXP3Dvp6fqSGlDhkrFZB2Y9x44eHXJBF8MpEaX13d2dujaa1+qqdmUJmfmtJBOu6QRgwACCCCwTgKZ5WVNzM5pan6eWwXXyZjXIoDAuQk0xWLq72hXb1ubGqLRc3sZ2QgggAACzymQnplUseB2YY+RlkOBefmxw4e+CWtlBShgVdaz/LaBwaGflfRx11fveeGVumnwhn8KT2ezeuTxE3rkyRNayi3LHhZc4m/+XTmJQwABBNYkYA9jtyuunjw7Wb5VkAcBBBCoBQG7IuuCvj712FsLw+Fa6DJ9RAABBGpOwG4htFsJPZ43j4+N/o1HPKEOAhSwHJB8Qwb2D39YgXmra97+V/+0rn7R3n8Vbv8wlc3ltJjJlldnnTg9odNnpyhmucIShwACCDgKZJeXy4ezz2UyKhSLjlmEIYAAAtUjEG9oUHdrq3b2dCtKIat6JoaeIIDAlhBYWcootzjvPhZjPjJ+5NDb3BOIdBGggOWi5BMzPBweyJinJO1wTXvrz96qHdu3OYUXCgWdnJgsF7NmUvPl4pZdpcWDAAIIIOAnYM9izyzndGZ2VmdT87J/acCDAAII1LpANBLWed3d5WJWY0NDrQ+H/iOAAAKbJmAvzGhONKm1Jammhqi+/OUvO/fFSKeOX3PFLr2Xg9yd0RwCKWA5IPmEXHXjG64MlYoPuuYEQaDf/o13ruk2mWKxqHyhKLvl8LuPP6XHnnqaYpYrPHEIIFDXAkvLK3rk9GmlczlWtdb1l8DgEdi6AnY7YV97uy7s75P9eZMHAQQQQOD5Bex/L3f29+qyC3dre19P+YxB+99Tu0L/D/7HB7z+wtOUzJXH7zn07edvlQhXAX43c5VyjNt74OBvGhO83zFcF194gd5w8PWu4c8ZZ8/Jml9Mlw+Cn5qd0+TsnGZT8yoWuTmrIsC8BAEEal4glcloYi5VvlWQswVrfjoZAAIIOAg0RCLq62gvF7Pswe88CCCAAAL/LJBMNKm3q0M9nR3/9OuzXYzxt4fu0Pcef9KZzxjzm8ePHPofzgkEPq8ABaznJfIKCAYGh+6U9FrXrNe/9oCuuPwFruHecfl8QY8/faq8QstuObRbEDnfxZuRBAQQqGEBuzUwt5rXo6dOaT7rdfhmDY+ariOAAALPFAgFgXZ0dWlHd5dsUYsHAQQQqDeBUChQJBxRvDGmi3bt1KUX7lZHa4szw0PfeVh/95nDzvGBgruOjY38G0mcU+Gs9tyBFLAqBGlfc9X1tyXC4dz9Rnqhy2uj0Yh+5d/9vJqbky7h5xyzvLKidGZJcwuLevrMWT19ZkK55ZVzfi8vQAABBKpVwK64enp6WguZrEqccVWt00S/EEBgAwVs8aqjuVm7e3vV2BDdwJZpCgEEENh4AbslsK+7U7u3byv/2pxMKNkUVygU8u5MOp3Rn/7FXylfKDjlBtKDxWL82gfu/Rh/g+ok9vxBFLCe38g54qrrX98TCocfldTqktTZ0a6ff8ub1bBJB2zaP8xNzcyVD4SfmJ7RYjqr7NKSiiW2HLrMHzEIIFCdAva/bYvZrE5Oz2g2na7OTtIrBBBAYJMF7Iqs7V2dP9ha2CiOydrkCaF5BBCoiEA8FisXqTrbWnXe9j6d19+nWKwyF1qsrq7qrz76cc3Opdz6Gmg+MMElx8ZGpt0SiHo+AQpYzyfk8f9/4YFbXhE2pS+4ppy/e5feNHywKg7WtH/gs9sL7YqsJ06e1ncff1KzqQXXoRCHAAIIVIWA3SL46KnTyq2ueh2yWRWdpxMIIIDAJgiEQ6HyiqxLd2wvH1TMgwACCNSaQKyhQReet12XXXR+eUtgJBJZl/+e2T8zf/JTh/TkiRPORMWg9FMPHr7jH50TCHxOAQpYFfxA9hw4+P7ABL/p+spXvOxaveJlL3UN3/C47FLunw+En5nV1GxKK6urG94PGkQAAQSeS8D+MDG7uFg+nN1uGbRnXvEggAACCPgJ2EJWT1ub+jva1dLU5JdMNAIIILBBAnbrX3tri3o7O9TT1VH+taOtReENKsB/4Utf0Re/cr/zaI30/uNjo+9yTiCQAtYGfQPB3sHhx4zMha7tveVNb9B5O3a4hm96nP1D4ZnJaT38+JM6OTGp1dV8+UB4/rC46VNDBxCoSwFbuMrmcnr45CktrXCeX11+BAwaAQQqLmD/dru7tVXn9/epMRqtip0CFR8kL0QAgZoRsIWpaCSs1uZmXXbh7vLh6/YQ9s16nj55Sh/95O3OzQcKvndsbOQSDnJ3JqOAVRmq537L3te8bpuJNJx2bcsua3zXO3+1vLyxFh+73TCdXdJCOqPTZ6f01OkJpRYWa3Eo9BkBBGpMwBbNp+bndXp2TuncklhwVWMTSHcRQKAmBOx2wtZEQrt7e9Qcj9dEn+kkAghsDYGGaFQ7+3u1a3u/Ottby2daNTU2VsXg7J+D3/eBPykfv+P6BIXV7cf+4c4zrvHEPbsAWwgr9HXsGRy6PpDucX3drp07dNutb3ANr4m4xUxGJ05N6OTZSc0vZpTOZJ1vaKiJAdJJBBDYVAF7wcRcJqOTk1NazOU2tS80jgACCNSTQG9bW/nA92Q8Lnv4Ow8CCCBQKQF7S6C9FdAWqXo7O7VrR7/6e7pktzVX62NXYNmVWM5PEFw/fnjkH5zjCXxWAX4HqtDHsWdw6LcC6X2ur3v5S1+in/rJl7mG11ScXR1htxbaqvTpyWl993tP6eTEWW43rKlZpLMIVJeAXXH1vYmz5aI425ara27oDQII1IeALVw1NzXp0p071LRJN2jXhzSjRKA+BFqSCV124fm6ePdONcUbFY1EZM+3qoXnvi9+WV+6/6vOXTXSu46Pjb7fOYFACljr/Q0M7D/4YQXBW13asVXmW27+GV184QUu4VsiZjWf1/RsSpOzc5qy/8zMlbcg8gfRLTG9DAKBdRGwhfCphQVNzM0pvcSKq3VB5qUIIICAp4D9ObarpaV82Ht7MskZWZ5+hCNQjwK2ONXd2a7erg712MPXOzvU2pysWYrHHn9cn7rj733+LPvh8bHRn6vZAVdRx1mBVaHJGBgc+oakq11eF41G9bY336qe7m6X8C0bM7+Y1iNPPKVHn3xayysryheKKpVKW3a8DAwBBNwE7FbBVDqjR0+f1qrH+QJubycKAQQQQKBSAq1NTbp4+zYlGhspZFUKlfcgsAUE7DnPDdGI+ru7ygev796xbUv9N2Jqalof/ptPKp/Pu87WN8fHRl/sGkzcswtQwKrA13H58HBDQ8bMS3I64TIej+tX/t3bZH/lUblynVla0mImq8npOZ04PaEzU9M+FW0YEUBgCwjYwtXp2VlNplLKLnOr4BaYUoaAAAJ1IGC3/LTE49rZ063O5uY6GDFDRACBHydgtwTu2tavndt6yzcGNiebZA9j34rPUi6n//WXH1bO/UzWpfBUR9vRox9yrnhtRbdKjIkCVgUU97526FWmqM+6vqqvt0f/7t++WRL8z2Zmtxw+feZsuZg1N79QLm7l+AOt6ydGHAI1JWBXWc0uLurE1LSWV1drqu90FgEEEEDgnwXslsLzerrV0tRU1QcwM2cIIHBuAvaWUnvoui1a7ejrKd8W2N7WoqBu/nxr9Jd//XGdnZxyhgwpeNW3xkb+j3MCgT9WgApKBT6MgQNDfyyjX3V91Ste9lK94mXXuobXfVyxWCxvL0yVtxw+Wd5yuLpK8bruPwwAtoTA01PTOjk9rXyxuCXGwyAQQACBehewZ2Q1xRp00bbtak8m6p2D8SOwZQTsv9vberp12UW7dV5/X3l1VSQS3lJbA30m6wtf/oq++OX7nVMCBX98bGzk15wTCKSAtR7fwHXXXReZj3d+WwoucX3/L7z1Lertqe/zr1ytflyc3XI4O7+gyZl/PhB+JjXPlsNzQSUXgQ0UWMnnNZmaLx/OnmPF1QbK0xQCCCCwcQL2b8lbk0n1t7eru61V9hZDHgQQqB2BRFO8fNj6jx683hhrqJ0BrHNPJ6em9Bcf+ZhPK4+05WauvO+++wo+ScQ+U4DfSc7xi9h3w839xVDo25LaXV4Vb2zUb73TebGWyyuJkcoH6NmVWY88eaK85dCu2LIrt3gQQKB6BOytgmdTKT15dlL2vCseBBBAAIH6EIhFo7ps5w7ZQ9/tmVk8CCBQXQK2wGwPXo81RHXBeTv0ggvPV2d7a92urnKdnfd/4E+UW152DU+FS6Urjt5zx4RrAnH/WoAC1jl+FXsGD+4NFHzZ9QD383bu0FtufcM5tkr6swkYGS0vryqdzWo2taCnz0zo5MSkllc4V4evBoHNEsgXCuXzrWYWFznjarMmgXYRQACBTRaw24+SjY3a1tmhvvYOsSBrkyeE5hGQyqurdm3fpv6ervJ5Vs0Jisw+H8ZHP3m7nj55yjUlZ2Rednzs0DHXBOIoYFX8Gxi4cfhGlcydkpz+OunqvQPa/5pXVbwfvPDZBexKj8npWT11+kz518XskrLZJZWMgQ0BBNZRwG4PnJ6f19PTM7Krr3gQQAABBBCwAonGRu3u7VFbMqloOAwKAghsgEAs1qCWREIdbS3a2d+n3Tv61RiLbUDLW7eJI//wOX3z2LjrAEsqlV43fs8dd7smEEcBq+LfwMCBod+R0e+7vviGV/+0Xvyiva7hxFVYoFQqlbcX2qWe3ztxUo888ZRSC+kKt8LrEKhvAVsc/t6ZM5qan1ehyFbB+v4aGD0CCCDw4wXsNhB7CPT5fb3qbWtjqxIfCgLrIBCNRHTBedt12YXnq6ujTfb/tjcI8lRG4BvfOqZ7PutxsaDR744fGf0vlWm9Pt/CFsJznPeBwaG/l/Q619e86ZYhXbB7l2s4cessYNdgZTJZTc7OaeoHh8JPz6ZkD5nmQQABP4Hs8orOpubK51zZQjEPAggggAACLgLJeKP62+3WwjaF+cO1CxkxCPwrAbtNt721uXzw+vcPX+9UV3sr/06t47fyxFMn9IlPjbq3YPT340dGf8Y9gch/KUAB69y+iWDv4NAZI/W5vuadv/R2tbQ0u4YTtwkCdsvh6YlJPfz4kzp1dlqFQqG8/cnefsiDAAL/WmC1UNDTU9M6PTvLvyd8IAgggAACaxawB7xfun2bulpbFeaw9zU7klgfAvbfEXvwemtzQhefv0uXnr9LTfHG+hh8lYxyYTGtD/7Zh5x7E0gTx8ZGt0viD5bOas8MpIC1RjibtvfAzbuMCT3l+oqmeFy/8Y5fZom0K1gVxNnDp9OZrOYXMzp1dlJPnZ7QYjpTBT2jCwhsvoA94+qps5NKZTKyRSweBBBAAAEEKiHQFIupt71NO7q6KGRVApR3bBmBaDSiHb092rW9X10d7WpONqmpsZE/X27SDNsFDv/jj/+XlnI55x4EQWn3scN3nHBOIPAZAhSwzuGD2HPgllsCU7rd9RWXX3apbn7da13DiatSgfnFtJ46NaHTk5Plwpa98bDAdqkqnS26VWkB+xt1dmVFE3NzOjM7x4qrSgPzPgQQQACBfxKIRSLa1durzpZmxaJRZBCoKwG7JTARb1RzMqGejg7t2tGvbT1d5VVXPNUjcOjvP6OHH3nEvUMh3TJ+9+iIewKRPypAAescvoe9g0PvM9Jvub7ipsH92vPCK1zDiatyAfsHebu1MJ8v6OTEpL77+JM6fXaK2w2rfN7o3toF7CqrR0+dLq+4sltteRBAAAEEENgIAXtT4fauTp3X3S27zZAHga0skEw0lbcDXnz+eWpONJULVmyprd4ZP/7AQ7rryD3OHQyk9x8bG32XcwKBzxCggLXGD2J4eDj8WMYclnS9yytCoUC//PM/p/b2NpdwYmpUYHllVdNzKU394FD4yZk5ZZaWanQ0dBuB7wssLC1pwn7T8/MUaPkoEEAAAQQ2TSDe0FDeWtjf0cGKrE2bBRqupIAtTnW3t6mn64cHr3eojfOSK0m87u+aS6X0Z3/5YeefkQMT3HNRs24cGRnhxqM1zA4FrDWg2ZR9N93UVCzE7pd0lcsrEokm/dLPv03xRg7Wc/HaSjGzqQU98sRTevzpU8otr5QPhS9xIPxWmuItORa7wnA5n9fjExOaWVjckmNkUAgggAACtStwfl+vtnd2KsKthbU7iXXY80gkrGgkUi5YveCC87V75za+4Rr/DnLLy/qzv/qwslnnRQsPhCMr1x696y7nhBonqmj3KWCtkfOKG4Y7oiHzsKQel1f09nTrrT97q6Ls33fh2pIxpVJJmaWcFjNZnZ2e0YlTZzQ5m5L933kQqCaBxaUlnZicKq+8sttkeRBAAAEEEKhGAXsuVldrS3lrIWdkVeMM0ScrYC/y2r2jXzv7+9Te2qzmREKxBs502ypfRz6f14c//klNTU+7DSkIJvNFXf7te0bm3BKI+lEBClhr/B4GXnvw4qAYPGyksMsrLjx/t944dDM3RLhg1VFMbmVFJ8+c1YnTE0otLGoxs6TllZU6EmCo1SJgVwWml3I6NTOj6YWFaukW/UAAAQQQQOB5BewqrB3dXeptbVU8FnveeAIQWC8Be1aVPXS9JZnUtt4u7d6+TV0dHCGzXt7V8F67a+FvR+/Q408+5dSdQCoG0eCyb9058j2nBIKeIUABa40fxJ4DQ28LjP63a/q1L75ar3rlT7mGE1eHAuUD4QsFzabm9cjjJ/TYiae53bAOv4PNGHJ2eVmPnDqtTC7H9tbNmADaRAABBBCoiIAtHnS3tujCbdtkD37nQWAjBOxtgb1dHbrsgvN1/s5tikYj5W2C9n/nqQ+Bz37+C/rqN77pPtig9Lbxw3d8xD2ByB8K8G/VGr+FgcFb/rdUeptr+sF/c5NecOklruHEIaBSyWgmldLUzFz5UHh7IPzcwqJslZ8HgXMVsN/RXDqjibk5zQGqspYAACAASURBVKbTfFfnCko+AggggEDVCNji1Q8Pe09w/mzVzMtW6Yg907ins129XZ3lX3s6O9QU55zjrTK/axnHw999RIfu/IxP6ofHx0Z/zieB2O8LUMBa45cwsH/oMQW6yDX9137pF9Ta0uIaThwCP1ZgeXVFjz7xtL77xFNaTGfKK7aKRc7Q4nNxF7BbBbO5ZT16+rTSuZx7IpEIIIAAAgjUoIC9sdAe+B4N2xUxNTgAurypAnYVVdQevB6N6vwd23XZhbvLq61YXbWp01J1jS8sLOqDf/4XPv16bHxslNUtPmI/iOU/42tA2/fq4dZitJSS42+D8ca4fvPXfpn/0K3BmpQfL2DXYOVyy0pns5pJzZfP0Hr6zGT5hkMeBJ5NwN4meHJmRumlJbYK8pkggAACCNSNgD0jq6O5Wbt6usWKrLqZ9jUP1BanOttatXvHNm3r7VZLMqHmZJPCIbalrhl1iyfanQ3//YN/KnsjoeNTiinW/rWxv+Gqb0ewH4ZRwPIEs+EDB4YHZMwx19Rd5+3UbW+8xTWcOATWJGBvMzwzOa2nTk+Utxza2w6zS0tix+GaOLdMkl2hZ28TPDE1pYVsdsuMi4EggAACCCDgKxAKAvV1tGtbR4cS8ThbUXwBt2i8vRHQ3gzY1pLUedv6tWt7vxJN8S06Woa1XgIf++SndOLkSefXB6XwwLF7bj/unEBgWYAC1ho+hBftH7q5FOiQa+o1V79I1//0K13DiUPgnAVsMctuL1xaXtGjT57Qo0+c0EI6c87v5QW1JWDPtnr8zIRyq6uccVVbU0dvEUAAAQTWUSAUCqmlKa7LduxQY0PDOrbEq6tVwH4DF+z85y2B9tD1SCRSrd2lXzUgcO/nPq+vH/2Wc0+NCW4+fmTk084JBFLAWus3MDA49C5Jf+iaf9OBG7Tnyitdw4lDoOICdlmrXZFlD4Kfmp3V1GxK03Mp5fNsOaw49ia/0J5xNT0/rzNzKVZcbfJc0DwC/z97ZwJeRX29/3dys+/7QgIJi4AoEFC0uFQU/5ogWgoJuKMCWpfaqm3VLr/WLi61VesuCKLimgStQgLWfcMNkoCyLyFkISH7vt07/2eu1LoQcubm5t65M+88Dw9W3/P9nvM535LLe2fOkAAJkICxCWgmhvbWQm1OVlRoKMd9GLtdg8ouOjICifGxSIqLdQ5d14av2/imykExZfB3CZRu+RKvF60XY1GAXxUX5f9THEAhDSxXz0DmrJxHoOI6Sbz2g/GS+TnQHiPkRQJGItBnt6O8qhrbdpfh4KE69PbZYe/rA99xaKQuyXPR7rprbG/HjgMV6OEsNDk4KkmABEiABEgAcM7IGps6DEEBATSyfPxEaH//0u6oCg8LwTEZ6c7B6+F8JNDHu2r89MvKD+D5l/OhfSYXXQoeLSnMv16kpegbAnyE0IXDMDkrp0hRkCUJ1d5YcdWlFyMhIV4ip4YEvEKgp7cXrW0daGppxYHqg9hfVe3837yMT0B7k6A2nL2+pQXt3d18VND4LWOGJEACJEACBiXg56cgKjQMSdHRSIqJppFl0D4dKS1tUL82cD0jNQUJcbGICA9DWEgwe+hDPfT1VGsP1eGpVc+jt7dXWkpRSVH+LKmYuq8J0MBy4SRkZufuAFTRay9DgoNxzaIrEB4W5sJODCEB7xDQ7sJqaGrG/opqVNbUoLm1HW3tHdDu2uJlLAJbyspQ39JqrKSYDQmQAAmQAAn4MIHw4GBMGTMaNj8/H67CvKkrChAaHOw0qeJjY5xD19OSE513XfEiAW8RaGtvxxPLV+p5E+GOkqL88d7K11f3pYGls3O5ubm2XW2qdmuKaOKjZlzdeO3V0G5l5UUCvkhAm5/V12dHV08PDlQdxPY9+1BVW+eLpZgyZxpYpmwriyIBEiABEvAiARpYXoR/lK21N0ceM3IExo1KR2R4mHPoOk1GY/bKillpjw4++NhSaEaW8Or5yUnHhdxxxx3CZw6Fq5pcRgNLZ4MzsxZMg2L/TBp2zOjRWDBvjlROHQn4BIGu7u7DA+EbUFvXgJr6BnR0dvlE7mZLkgaW2TrKekiABEiABLxNgAaWtzsAaI8ExsVEOQeuJ8V/PXg9OjIS2mOevEjAqAReKngFu/bsFaenKOq04sKCL8QBFPIRQr1nYPKseTcpqnKfNG7mGT/G9JOnSeXUkYDPEjhU34hte/ahrKIKXd096NUGwqscCT/UDaWBNdSEuT4JkAAJkIDVCNDA8nzHNcNKu6MqPjYax47KwMgRqQgMCPB8ItyRBAZB4ONPP8Pb730gXkFV1JtLCwvuFwdQSANL7xmYnJVToCiYK4274pKLkJY6TCqnjgR8noDdbkdbRyda2tpRXXMIZZXVONTQSDNriDpLA2uIwHJZEiABEiAByxKggeWZ1ocEB2HEsBSMGJaM2OhIRISFIThINKXFMwlyFxLQSaCisgorn3tBHKVCKSgtyssRB1BIA0vXGfjjH/0yP9u6E1BHS+K0uVe33nQjbDabRE4NCZiWQHtnF8qrDuJAZTUaW1rQ0taB7p4e09brycJoYHmSNvciARIgARKwAgEaWO7vsvb3ooiwUOfsqpTEeOfg9cT4WCj866j7YXNFrxHQvsi/5/4Hoc3Dkl3qnpKi48cCnIMl48W3EEo5OXWZc+ZEo9t/J4AESWB0dBRuuHqxREoNCViGgDYQXnu8ULsrSxsIv+9AlfN/83KNAA0s17gxigRIgARIgAT6I0ADy31nIz4mGuPHZGDU8DTn3VXaY4J+2msEeZGASQk8vPRJNDU1S6s7ZOtVjtn4Zp44QLqwWXX800NHZyedkzvSz6YWA4iShKUPT8NlFy2QSKkhAcsS0AytusYm1NY3fDMYvqmllY8cCk8EDSwhKMpIgARIgARIQEiABpYQ1PdkQYGB3wxc1+6uSoqLRVhoiGuLMYoEfJTAMy+8hPIDFdLsmx12ZcrmN/L2SQOsrqOBpeMEnHDugql2P/uHAER/Eh8/4VjMmT1Lxw6UkgAJaAS0GVo79+3Hjr1laGvvRF9fH+ziW3GtxbDPbh8ys0+71f/Zu35nLaCslgRIgARIwGcINLa0YvEf74X22I47L0VRnG/B49U/AScjfxuCAgIxPCXJeZdValIikZGA5Qm8uqYQX27dJuXQ6XA4Ttu8fvUmaYDVdTSwdJyAKVk5M1UF6wGIfqKdcvJJOOuM03XsQCkJkMD3CbQfHghf19CI/VXVOFBd6/YPqqR+ZALanIp/P/hX4iEBEiABEiABQxJoaG7B/F/dAbtdOm/GkGX4TFKaaRUTGYn0tGSkJSc551lpg9c1I4sXCZDA1wTefu99fPzp51IcdkXFucXr8t+SBlhdRwNLxwnIPG/eQjiUldKQrLNn4sSpmVI5dSRAAgIC2resFQdrsf/w2w21tx1qJhcv9xOggeV+plyRBEiABEjAfQRoYLmP5ZFWCgjwR2RYGKIiI5x3WWmD17XPBrxIgAT6J/DFphKse1OHH6WqV5SsK3iaTGUEaGDJODlVk2fl3qWo6m3SkPlz52DsGNELC6VLUkcCJPAtAtpjhdrjhdpjhjv2lWHH3v00s9x4QmhguREmlyIBEiABEnA7ARpYbkcK7S4rzagaPzoDwxIToJlY2uB1/qXR/ay5ojkJ7Ny9By+vflVenIK7SgrzfysPsLaSfxbp6H9mdu4rgDpHGrJ44WVI5rPgUlzUkcCgCaiqiqbWVtTWNaCmvhG1dfU41NDERw5dJEsDy0VwDCMBEiABEvAIARpYg8ccGR6OpPgYJMbFQhu8nhgb6zSteJEACbhG4GBNDZ58epWOYPXVkqKCn+oIsLSUBpaO9k+ZlbNNVTFeGnLzDdchlG/ekOKijgSGhIA2F2PvgQps31vmNLZ6+/qgvfmQ18AEaGANzIgKEiABEiAB7xGggaWPvZ+fHwL8bQgODsbYjBEYPyoDUZHh+hahmgRI4KgEOjo6cN/Dj+mgpGwrKcqboCPA0lIaWML2n3DC1QH2hIZ2KAiQhAQHBeOWG69z3obLiwRIwBgEunt60NrWgaaWVudA+PKqg3zk8CitoYFljHPLLEiABEiABI5MgAbWwCdD+7vIsKQE52OBSfGx0O64Cg8N4d9RBkZHBQm4REB7IuSfDz6Cru5uWbyKXtuh2LCNG5f2ygKsraK7Iuz/CefMG2+3KeL3YWaMGI5LL5wvXJ0yEiABbxBwqCrqG5qcA+Era2qhDYRv6+jg24wON4MGljdOJfckARIgARKQEqCB9UNSIcHBiAwPRVxMNNKHpWBEajIC/PlIoPRMUUcC7iCw6sWXUVZ+QLyUQ1XGb16Xt0McYGEhDSxh8zOz580BlFeEckw/6UTMnHGGVE4dCZCAlwlo35Zojxd2d/egrKIK2/aUoba+wctZeXd7Glje5c/dSYAESIAEjk6ABtbXfIKDgnBMxnDn4PWoiAjnY4I2m43HhwRIwEsE3nr3PWz47Av57g7MKVmf/295gHWVNLCEvZ+clXuboqh3CeWYe8FsTBg/TiqnjgRIwIAEOjq7nCZWTV2D83ftV2eX8HZgA9ajNyUaWHqJUU8CJEACJOBJAlY0sLQ5VnHRUc7HAf87eD02KhLav+dFAiRgDAJbt2/H6tfWipNRgdtKi/LvEQdYWEgDS9j8zOx5SwFliVCO65YsQmxMtFROHQmQgA8Q0O7SOlhXj+279zkfO+zu7XUOhNf+vRkvvQaWw+EwLQsz9ld/TQpsNn1/QdIe01UdDv1bMcI6BBQFNp1/8bZrZ8qkf+5ap/H9V6rNbJKaMVYwsLQ7qbQ7qjTTatyoDIxOT0NQYCCPCgmQgIEJNDQ04tEnV+jIUF1aUlRwjY4Ay0ppYMlar2Rm5bwOBedJ5IGBgbj+6kUICw2VyKkhARLwQQJ2ux2t7R1obm1DZc0hp6FV39jkg5X0n7JeA2vVmv/gi6/4+L6pDsG3igkJCsJdvxR/j+OMLHz/E7yxQcct9GaFx7r6JXBMehquv3COLkL3P5OH/dU1umIo9h0CJx1/LC4+b6YoYbMaWNojgcNTkpyD12OjIxERHgbtz2BeJEACvkGgvaMDjyx9Ej09wrnsKtaWrMs/H4A5vxV3Y9toYAlgTsjNDQxsc7wNKKcK5IgID8c1Vy10vqKWFwmQgHUItLV3ON9ueKCqxvmmQ20ofE+v8AeXATHpNbDuXLYK/9mw0YCVMCV3EAgLDcaah8VP0ju3XL66EJqxyYsE+iMwZfwY3Peb63UBuvYv92P7vnJdMRT7DoFzT52G2xZdLErYDAaWdrdZWGgItJ+5yfFxSE/T3hYYp/vORBEwikiABDxCoKurC0+seBqtbW3S/T7sCVdmbs3L65EGWFVHA0vQ+UnnnBOm2CI3KMBEgRzxcbG46rJLoN2JxYsESMB6BLRHCrU7tHr77Dh4qA7b95Q579Dqs9t9CgYNLJ9q15AnSwNryBFbcgMaWJZs+1GLtoqBFRMV6Ry6PmpEGkKDg52PCUofneSpIQESMDaBnp4erHj2OdTJXwi12ebfPX3j6693GLsy72dHA0vQgxPOzo2yB6ilANIFcqSmpOCyixfAn2//kOCihgQsQUB7w2FdQyNqtGHwddpg+Ea0tLUZemYUDSxLHE1xkTSwxKgo1EGABpYOWBaRmtHACgwIQGJcjPPOqoS4WOcA9ogwjhqxyJFmmRYk0GfvwzPPv4yq6mph9UqZrReZG9/MaxYGWFZGA0vQ+hPOvyje3te7E0CMQI6RGem4OHcetCGUvEiABEigPwKagbVj737s2leO9s5O5x1b2iB0o1w0sIzSCWPkQQPLGH0wWxY0sMzW0cHX4+sGlvb5X/sSOzDAH6lJiRg/ZqRznhX/XjD4s8EVSMBXCGhPYzyfV4B9ZfulKTfY/APGbXz9hTppgFV1dFgEnZ88OzdVsava6bMJ5Dh+wrGYM3uWREoNCZAACTjvwmrv6ERLe7vz7iztccOq2jrnY4jevGhgeZO+8famgWW8npghIxpYZuiie2vwVQMrKiIcGakpSEtJgvbP2uD1AH9/98LhaiRAAj5D4NU1hfhy6zZpvn2qTckoXZNXKQ2wqo4GlqDzmeflnAIHPhJInZLTpp+MGaefJpVTRwIkQAI/IKANf688WIuyimrUNzU5B8J3dnV79JFDGlg8mN8mQAOL52EoCNDAGgqqvr2mLxhY/v42RIaFISoyAmnJic63BUZHRvg2eGZPAiTgVgLvfvAhPtzwqXhNRVVOKV6Xt0EcYFEhDSxB4zNn5SyGimUCqVNyXtY5mDJJNO9duiR1JEACFiZgtzugzdBqbm3Dzn37sWNvGbq6h/4lJTSwLHzojlA6DSyeh6EgQANrKKj69ppGNbC0AeupyQkYP/rrRwK1u6u0RwX5aKBvnzdmTwJDRaB48xasXfeGeHlFVRYXr8tbLg6wqJAGlqDxmbNy7oOKmwRSp+TSBbnISB8hlVNHAiRAAroIqFDR0NTifNywtl4bCN+AusZGOByqrnUGEtPAGoiQtf47DSxr9dtT1dLA8hRp39nHKAaWNmT9vwPXE+NinUPYg/iGcd85SMyUBLxMoGz/fqx6KV+chaoo95UW5t0iDrCokAaWoPFTsnPXqVDPFUidkhuuXozo6CipnDoSIAESGDSBPrsdu8oOYMeefahrbEZfXx+0fzeYiwbWYOiZL5YGlvl6aoSKaGAZoQvGysEbBpafnzZ43R/BQYEYkz4c40dlIDaGn+WNdTKYDQn4FoGmpmY8vPRJcdKqqqwrXZeXLQ6wqJAGlqDxU7LmlauKMlwgdd5GfPstv4R2mzEvEiABEvAGga7ubrS0daCxucU5EL68qtqlRw5pYHmje8bdkwaWcXvjy5nRwPLl7g1N7p4ysLTP7MnxcUhPS0FyQjy0n3nhYaHw41vEh6axXJUELEZAexnT3ff9S8/82vKSovx0i2HSXS4NrAGQjcnODgpHWJeUbHRUJG64ZolUTh0JkAAJDDkB7S2H2mOGZZXVOFhbh5a2NrR1dAz4yCENrCFvjU9tQAPLp9rlM8nSwPKZVnks0aEysIKDgpwmVWxUJEakJmNEagqC+Uigx/rKjUjAigQeenwZmltapKWrbWgP2V1U1C0NsKKOBtYAXZ88OzdVsasV0sORPmI4LrtwvlROHQmQAAl4lIBDVZ2PF3Z392DP/gPYvnc/6hqbjpgDDSyPtsbwm9HAMnyLfDJBGlg+2bYhTdqdBpY2aH1MxnCMH52BuOgo+B8evD6kBXBxEiABEjhM4NkXXsL+A2IrAapNSStdk1dJgP0ToIE1wOmYOCt3ok1VN0sP0cTjJuAn5/HRVSkv6kiABLxLQBv73t7R4RwIX1Pf4Pz9UEOj85FDGlje7Y3RdqeBZbSOmCMfGljm6KM7q3DVwNIeCYyNjkRiXByS4r8euh4fE82xHu5sDtciARLQReDfa4uw5aut4hi7okzaUpi3RRxgQSENrAGanpmVMwMK3pGejVNOPglnnXG6VE4dCZAACRiOgMPhQFVtHSqqD+Lem64W53fnslX4z4aNYj2FvkWABpZv9ctXsqWB5Sud8lyeegysxpZW/Pyuh5yD18eOSudbAj3XJu5EAiQgIPDWe+9jw6efC5RfSxQoM4qL8t4TB1hQSANrgKZPzsqZqygokJ6Nc2aeiZNOmCqVU0cCJEAChiUQGOCP8089UZwfDSwxKp8U0sDyybYZPmkaWIZvkccT1GNgdfX0oPDjTdDuJuZFAiRAAkYj8NnGTXjjLfG9MFBVZW7purxXjFaHkfKhgTVANzJn5SyGimXSps29YDYmjB8nlVNHAiRAAoYlQAPLsK3xSmI0sLyC3fSb0sAyfYt1F6jPwOpF4YZNet7ypTsfBpAACZCAqwS2bt+B1a+tEYcrfsri4rV5y8UBFhTSwBrIwMrO+Q2AeyRnQ3v2/qLceRiVwbdfSnhRQwIkYGwCeg2sR158Fav/8z60QfG8zEeABpb5emqEimhgGaELxsph9ozpuOVy2QuRunpoYBmre8yGBEjg2wT2lpXhhbzVekz2W0uK8v9Oiv0ToIE1wOmYnJ1ztwLcKjlENpsNl12Yi7TUVImcGhIgARIwNAG9Btbn23Zjd0U1DtU3fjMQvra+AS1t7Yauk8nJCNDAknGiSh8BGlj6eJlNHRDgj4TYGCTFxSLROXg9FhPHZGDasWNEpdLAEmGiiARIwEsEDlRWYtWLebDb7aIMVOCe0qL820Rii4poYA3Q+MzsnKUAlkjOh/aq3isuvQhJiYkSOTUkQAIkYGgCrhhY5TV1P6ipqaUV2/fsw57ySrR3dqKvzw5tUDwv3yJAA8u3+uUr2dLA8pVODT5P7UkF7cveAH8bUhITMH50BtKHJTv/3bev9OQEnDh+tGhDGlgiTBSRAAl4iUBNbS1WrnoBvX19wgzUZSVFBfI3KAlXNZOMBtYA3ZycnZuvQJ0naXpQYCAWLbwUsTExEjk1JEACJGBoAu4ysP5bpGZatXd0oqW9HTWH6lFWWe383U4zy9Dn4L/J0cDyiTb5XJI0sHyuZboTjggLRXpqCoanJCE6MgIR4WEIDAjodx0aWLoRM4AESMCgBBoaG7H86VXo7ukRZahCKSgtyssRiS0qooE1QOMzZ+W+DVU9U3I+goODcc1VCxERHi6RU0MCJEAChibgbgPrSMV2dfeg4mAN9ldUo765Ga1t7ejs6jY0F6smRwPLqp0f2rppYA0tX0+v7m+zQTOsIiPCkZqUiIy0FMRGR+lKgwaWLlwUkwAJGJhAa1sbnljxNLq6umRZqso7JevyzpKJramigTWQgZWdUwpgkuR4hIaG4PolixAUFCSRU0MCJEAChibgCQPr2wC0+QC9fXY0Nrdgx9792FVWLv7GytAgTZIcDSyTNNJgZdDAMlhDXEhHezQwJSEe48dojwSmOO+u8ve3Qfv3rlw0sFyhxhgSIAEjEuju7sYjy5ajo6NTlp6ilJYU5mXKxNZUufaTxUKsMrNzDgBIk5QcHhaGG6+9Gn5+fhI5NSRAAiRgaAKeNrC+D0N75LChqeXwQPh6aAPh65taOD/LS6eGBpaXwJt8WxpYvtfg0JAQJMVrg9fjkBgXg4S4WIQEu+/LWxpYvncmmDEJkMCRCWifZR98bCna2sUvNKooKcofTp79E6CBNcDpyMzO0U5bqOQQJSUkYMmVl0uk1JAACZCA4Ql428A6EiDtkcPd+w9g2559aG5pdd6xJX2zi+GBGzxBGlgGb5CPpkcDy9iN0+6i0l5SFBwUiIzhwzB+9Egkxg7trFcaWMY+E8yOBEhAH4GlTz2D2kOHhEFqR0lRQZhQbEkZDayjtH3CjNzwwBC1VXoyxh4zBvN/+hOpnDoSIAESMDQBIxpY3wamzcpqaWtHfVMzyiurUV5VjZ5e6VteDI3ekMnRwDJkW3w+KRpYxmuhn6IgITYG6WkpGJaY4By6Hh4aCpvNM08Y0MAy3plgRiRAAq4TeHn1q9i5e494AYc9JHzzG8+Kb9kSL2wSIQ2sozTy+OwFo/1h3y3t9YlTpyDrbM5ck/KijgRIwNgEjG5gfZ+eqqqoqq1zDoSvqa9HS2s72jo6oP17XoMnQANr8Ay5wg8J0MDy/qnQ3qIdGR7mfENgemoyRgxLQWhIsNcSo4HlNfTcmARIYAgIrHvzbXyxqVi8sr3HMXrLW6v3igMsJqSBdZSGZ2bPPRXw+1B6JmacfipOm/4jqZw6EiABEjA0AV8zsL4NU5s5oD1e2NXdjV37yrF9XxmamsU31Bq6L95KjgaWt8ibe18aWN7pr7/ND6NGDMf40RnOu60CAvyhvUHQCBcNLCN0gTmQAAm4i8CHGz7Bux98JF/OD6eWrM3/WB5gLSUNrKP0e2pWzlyHggLpkTgv6xxMmTRRKqeOBEiABAxNwJcNrCOB1R431AbB19Q1OH/XfvXykUPxGaSBJUZFoQ4CNLB0wHJRqs2x0u6uSoqPRWJcLBLjY52mlc2gLx2igeVioxlGAiRgSALFpVuwdv0b4txU1TG3dN3qV8QBFhPSwDpKwzOzcq6DgkekZ2LBvDk4ZvRoqZw6EiABEjA0AbMZWN+HrT1aWF51ENv3lKGyptZpZvX2cYZWf4eSBpah/+/qs8nRwHJ/6zRjyt/fHxFhoRg3Kh1jR2UgzIuPBOqtkAaWXmLUkwAJGJmANv9Km4MlvRQo1xUX5T0m1VtNRwPrKB2fnD3vDgXK/0kPxVWXX4JhyclSOXUkQAIkYGgCZjewvg1fM69a29vR3NqGA1U12F9V7fxnXv8jQAOLp2EoCNDAcg9V7ZHAtJRkpKemICE2GhFhYQgNDYEvftCngeWeM8FVSIAEjEGgqvogVjz7nDwZBXeUFOb/SR5gLaUv/lzzWIemzMp5XFVxjXTDG392NSIjI6Ry6kiABEjA0ASsZGB9vxHa3VlNLW3YX1mFA9U1zrcdtrZ3oM/Cd2jRwDL0/119NjkaWK61Liw0xDl4PTE2BiNSUzA8JQl+Bn0kUG+FNLD0EqOeBEjAyASaW1rw0OPLxCkqwOPFRfnXigMsJqSBdZSGZ2bnvgKoc6Rn4rZbfmmYAZjSnKkjARIggf4IWNnA+jYTzczqs9vR3dOLioM12L67zPm71S4aWFbruGfqpYEl56w9Ejh25NePBIaHBjsfEzTqHCt5VT9U0sAaDD3GkgAJGI2A9hny7n8+oCMt5ZWSory5OgIsJaWBdVQDK0eb/j9dciK0DxG33fwLiZQaEiABEvAJAjSw+m9Td0/PtwbCN6Kmrh7tHZ0+0VdXk6SB5So5xh2NAA2sI9Px97chPib6W4PX4xAdEQ5tILvZLxpYZu8w6yMB6xG4+75/6bmLf0NJUf4p1qMkq9j8PwVlHI6ompyds0cBRkmWCA0Nxc038E4/CStqSIAEfIMADSx9fapvbMK2xbtXZgAAIABJREFUPWXYe6ACXV09zg8qDlXVt4iB1TSwDNwcH06NBtbXzdMMqwB/f+cbAsePysDItGHOO6yseNHAsmLXWTMJmJvAfQ8/ig7xF53qnpKigjHmJuJ6dTSw+mF3wglXB/QlNpQrgGgqe0x0NK6/epHrnWAkCZAACRiMAA0s1xricDjQ1t7hnJtVfajeOUerpq4B2qOIvnzRwPLl7hk3dysbWNocq/RhKRg+LAkxkZGICA9FUGCgcZvlocxoYHkINLchARLwGIFHlj6JxqZm0X4qcNC/NnbExo1Le0UBFhPRwOqn4eMuuCAipDdwN4BEyZlISkzEkisuk0ipIQESIAGfIEADy31t6uzuRnnlQZRXHURDczNa29rR1d3jvg08sBINLA9AtuAWVjGwbDYbIrTB6xHhGJaY4HxbYHxstCUeCdR7rGlg6SVGPQmQgNEJLFv5LGpqa6Vp1nYG9IzZ8dprrdIAK+loYPXT7SnZuQkq1G0A4iQHYkRaGi6/eIFESg0JkAAJ+AQBGlhD0yZtmKf2eGFdYzO2a48cllegp9f4X7LRwBqa82D1Vc1uYCU5HwkciYy0FAQFBTofE7TCHKvBnGsaWIOhx1gSIAEjEnjm+RdRXlEpTa3e5h8wfuPrL9RJA6yko4HVT7cnZc9N84PfFgDRkgMxZtRIXJjDlwVIWFFDAiTgGwRoYHmmT5qh1dDU7HzMsLa+wfl7U3OL4eZnGdHAsjsc6O3r80yjLL2LguDAgCEhYCYDKyQ4CIlxsc5fmnGl/R4aEjwk3My8KA0sM3eXtZGANQm8mL8au/fukxbf5IBj4uai1RXSACvpaGD10+2J580dZXP4FQOIlByICePHYe4FsyVSakiABEjAJwjQwPJemzo6u7CrrBw79u5HS1ub06Sx2x3eSwiAEQ2siro67K6q9ioXq2x+xsTjh+TOIV81sLS7qAL8bc6ZVSNSUzB+dAZSEuKtchyGtE4aWEOKl4uTAAl4gcDq19Zg6/Yd0p2b7X6OqVvWrt4rDbCSjgZWP92elJU7zk9RPwcQITkQk46bgAvOy5ZIqSEBEiABnyBAA8sIbVLR0dntHAhf19iE8spqHDhYg95ez991ZEQDa1dlFSrr643QKNPncMqEYxE4BG/F8yUDSzOtYqOjnI8DpiYlIjI8DOFhofC32Uzff08WSAPLk7S5FwmQgCcI/HttEbZ8tVW6Vauq2E4sLXxppzTASjoaWP10e/K5845T/JRPtS+dJQdi6uRJmHXu/5NIqSEBEiABnyBAA8uYbbLb7aiqPYT9FdXORw5b2jvQ3tE55G85NKKBtXlfGRpaOePUEyf1pLFjERoc5PatjGxgBQYEOE2q6MgI55sC04cNQ3hYiNsZcMHvEqCBxRNBAiRgNgJr1/8HxaWbpWW1qw715NL1BV9JA6yko4HVT7czZ+VmQlU/AhAqORDTTpiCc2eeJZFSQwIkQAI+QYAGlvHb5Dg8A6qtoxO7y8qxbU8Z2to7hiRxIxpYn+3YiY7u7iGpl4t+l8CU0aMQFSb6Tk8XOqMZWNrdVNobAsePHonkhDjnY4I2bfC6rqooHgwBGliDocdYEiABIxJY/+bb+HyTNp1IdHVAUU4tKcwrEaktJuLP4/4MrKy501TF730FEE3fnH7SNMyc8WOLHR+WSwIkYGYCNLB8s7tNrW2oratHbX0jaurqcai+Edqg+MFeRjOwHKqKT7ZtRw+HuA+2taL44zPSER8pGgsqWu+/Im8aWNojgVER4V8PXo+PRVJcLOJjo51vCuTlPQI0sLzHnjuTAAkMDYG33n0fGz7TphMNfKlAl5+inl5cWPDFwGrrKWhg9dPzKVm501VFfQeA6H7500+ZjjNOO8V6J4gVkwAJmJYADSxztFYzevYdqMSOPWU4eKjeafj0uWD6GM3A6rXb8dmOHejtG7w5Z45OD20V49LSkBIb4/ZNPGlg+fn5Oc2psJBgHDMqHeNGpjsfEeRlLAI0sIzVD2ZDAiQweALvffgRPvj4E+lC3YqqnFm8Lm+DNMBKOhpY/RlYs+b+WFX93gQgem/0jNNPw2nTT7bS2WGtJEACJidAA8t8De7p6UVrezuaWlpRXl2D/ZXV4kcOjWZgdff24vOdu9xyd5n5Ou3+ikanJGN4QoLbFx5qA0szrVKTE5GRmoKEuBhEhoc7DSzt7itexiRAA8uYfWFWJEACrhP4cMMnePcDbTqR6OpVFMfZxYWr3xepLSbiT+/+DKysnJmqgvUARK+WOfvMM/CjaSda7PiwXBIgATMToIFl5u5+XZuqqqhvanYaWZUHa51vO9QMLrvd8YPijWZgabOvNu7aDbvjh7mav3Oer3BEQgJGpSS7fWN3G1ihIcHOu6riY6Kds6yGpyTD31/0Uc7ttXFB1wjQwHKNG6NIgASMS+CTz7/Am++8J03Q7gflnE1FeW9LA6yko4HVT7cnnZub5eenrgXgJzkQWWfPxIlTMyVSakiABEjAJwjQwPKJNrktSc3M6u3rQ09vn9PQ2r57Hw7W1X/zdkOjGVitHZ0o3rMH2iOSvIaeQEpsLMalpbp9I3cYWCHBQc7HAceNzkBEWJjzMUGbTfTxze31cMHBE6CBNXiGXIEESMBYBL7YVIx1b4r9KIeqqrNK1xVoN9Pw+h4BGlj9HImp2fPOd0B5TXpiZmedg8xJE6Vy6kiABEjA8ARoYBm+RUOeYGdXN2rrG5y/Wtva8chvb9S15/LVhVi15j+6YqTipvZ2lO7d943BJo2jzjUC8VGROD493bXgo0S5YmD94eGn0Nze8c3g9ZioSD4S6PbOeG9BGljeY8+dSYAEhoZAyeYtWLPuDfHiflAv2FRU8Lo4wEJCGlj9NHvyufPmK37KS9KzMGf2LBw/4VipnDoSIAESMDwBGliGb5FHEwzwt+GC06bp2nMoDaz6lhZsKduvKx+KXScQHRaGzNGjXF+gn0hXDKy3N36JxtY2t+fCBY1BgAaWMfrALEiABNxHYMtX2/DvtYXyBVXML1mXnycPsI6SBlZ/BtasnCsVFSukR2HeT87HsePGSuXUkQAJkIDhCdDAMnyLPJqg0Qys6oYG7Kio9CgDK28WFhyMaWOPcTsCGlhuR+rzC9LA8vkWsgASIIHvEdi2YycK/q3jhipFubKkMG8lQf6QAA2s/gys7NwbFKgPSQ/Ngnk/xTFD8M2kdH/qSIAESMDdBGhguZuob6/nioH11CtFeOZ1+S3zegiV1dSirKZGTwi1gyAQ6O+PU4bgTvOpE8bin7+6VldmvANLFy6fE9PA8rmWMWESIIEBCOzaswcvFbwq56SoN5QUFjwiD7COkgZWP73OnDXv11CVv0uPwiXzczAyw/2zIaT7U0cCJEAC7iZAA8vdRH17PVcMrJJd+/D256XOgfD7KirR12d3G4SdFZWoamhw23pc6OgEFEXBGROPdxsm7S2B40ePxPTMCZh1ir63ONPAclsbDLkQDSxDtoVJkQAJDILAvrL9eO7lfPkKivqbksKCe+UB1lHSwOrXwMq5HSrulB6FSy+cj4wRw6Vy6kiABEjA8ARoYBm+RR5N0BUD66t9B7B9/9eP+fXZ7ahraEJN3ddD4Wvr69HU0ubyEPYvy/ajrqXFowysvtmpE451vuFP7xUcFIiEuFgkxcUiUfsVH4vw0BDnMgnRkfhx5gRdS9LA0oXL58Q0sHyuZUyYBEhgAAJl5eVY9aJ8pJVDwW83F+bfRbA/JEADq59TMSU75w8q8Gfpobn8ogUYMTxNKqeOBEiABAxPgAaW4Vvk0QQHa2AdKdn2jk7s2Lsfu8r2o6WtA319fbA7HKK6Nu7ajdbOTpGWIvcQmDpmNCJDQ4+6mHanlr/NhsDAAAxPSXLeZZWalNDvWwJpYLmnN2ZahQaWmbrJWkiABDQC5Qcq8MwL4vfDQVHxh+J1+X8lPRpY4jOQOWv+n6A6/igNWHjxhRieliqVU0cCJEAChidAA8vwLfJogkNhYP23AFVV0dHZhZa2dhxqaMT+ympU1RxCb19fvzV+vHUbeo7y3z0KxyKbHTtiOJKio49YbWxUJEakpiAtORFREeGICA9zGlkDXTSwBiJkvf9OA8t6PWfFJGB2AgcqKvH08y/Ky1RxR8m6/D/JA6yj5B1Y/fQ6Mzv3r4D6O+lRuOLSi5A2bJhUTh0JkAAJGJ4ADSzDt8ijCQ6lgXWkQjTzSjOxyiqqnI8eauZWR1eX85FDh6ri/S1ferR+bgaMTEpCelIiAgL8ERkWhujICKQlJyE9LQWR4WEuIaKB5RI2UwfRwDJ1e1kcCViSQEVlFVY+94KO2pW/lRTl/V5HgGWkNLD6afWU7Jy7VeBW6Um48rKLkZqSIpVTRwIkQAKGJ0ADy/At8miCnjawvl2c9lih9nihZmLt2leO0h278NamEo/Wz82AscPTcNWc85CalAh/f5vzDivtkcHBXDSwBkPPnLE0sMzZV1ZFAlYmUFldjaeefV6MQFGUu4sL824XB1hIOLhPHSYGNTk75x8KcIu0xEWXX4qU5CSpnDoSIAESMDwBGliGb5FHE/SmgfX9QnfuP4DfPvSER+vnZsCEURn483WL3YqCBpZbcZpiMRpYpmgjiyABEvgWgaqDB7Himef0MPlHSVH+r/UEWEVLA6ufTmdm59wP4JfSg7B44WVITkqUyqkjARIgAcMToIFl+BZ5NEEjGVifbtmKe5+Wf5PpUVAm3iw+OhqP/e6WQd919W1ENLBMfGBcLI0GlovgGEYCJGBYAgdravHk08/qye+BkqL8m/QEWEVLA6ufTk/JnveQCuUG6UFYcsXlSEpMkMqpIwESIAHDE6CBZfgWeTRBIxlYRR9+guWvrvFo/dwMiAoPx6O/vQVBgQFuw0EDy20oTbMQDSzTtJKFkAAJHCZQU3sIy1Y+I+ahAA8VF+XfKA6wkJAGVj/Nnpyd85gC/Ex6Fq65aiES4uOlcupIgARIwPAEaGAZvkUeTdBIBtZzhW/glbff92j93AyICA3FA7/5BaJcHNh+JIY0sHiyvk+ABhbPBAmQgNkIHKqrwxMrntZRlvpYSVHBdToCLCOlgdVPqzOzc5YCWCI9CT9bdAXi4+KkcupIgARIwPAEaGAZvkUeTdBIBtZDL+TjvY0c4u7RAwAgNDgY/7j5eiTGxrhtaxpYbkNpmoVoYJmmlSyEBEjgMIG6+no8vnylDh7q0pKigmt0BFhGSgOrn1ZPzs5ZoQBXSk/CtYuvRFxsrFROHQmQAAkYngANLMO3yKMJGsXAUlUVdy5/FsXbd3q0fm4GBAUG4q6fX4MRKe57aQ0NLJ6s7xOggcUzQQIkYDYC9Q0NeOzJp8RlqcCK0qL8ReIACwlpYPXT7CnZOU+rwOXSs3D9kkWIiYmWyqkjARIgAcMToIFl+BZ5NEGjGFh9djv+/MRT2Lq3zKP1czMgwN8fd1y7CGPTh7sNBw0st6E0zUI0sEzTShZCAiRwmEBDYxMeXbZczEMBnikuyl8oDrCQkAZWP83OzJ73HKBcLD0LN1y9GNHRUVI5dSRAAiRgeAI0sAzfIo8maBQDq6e3F79/ZBn2VlR5tH5uBvj5+eEPSxZi4jGj3YaDBpbbUJpmIRpYpmklCyEBEjhMoKmpGQ8vfVIPj+dKivIv1RNgFS0NLBpYVjnrrJMESEAnARpYOoGZXG4UA6uzuxu3PvAYqg7VmZy4Mcv71cKL8KOJx7ktORpYbkNpmoVoYJmmlSyEBEiABpbbzwANrH6Q8hFCt581LkgCJOBjBGhg+VjDhjhdoxhY7Z2duPkfD6G+uWWIK+byRyKw+KezkXXqj9wGhwaW21CaZiEaWKZpJQshARI4TICPELrvKNDA6oclh7i775BxJRIgAd8kQAPLN/s2VFkbxcBqaW/Hz+++H+2dXUNVKtc9CoG5M8/Axdn/z22MaGC5DaVpFqKBZZpWshASIIHDBDjE3X1HgQZWPywzs3OWAlgiRf2zRVcgPi5OKqeOBEiABAxPgAaW4Vvk0QSNYmA1trTiZ3+9F3aHw6P1c7OvCcw4cQpuuHCe23DQwHIbStMsRAPLNK1kISRAAocJ1NXX4/HlK3XwUJeWFBVcoyPAMlIaWP20enJ2zmMK8DPpSbjmqoVIiI+XyqkjARIgAcMToIFl+BZ5NEGjGFj7qw/iln8+7NHaudn/CEwaOxr/d/WVbkNCA8ttKE2zEA0s07SShZAACRwmcKiuDk+seFoHD/WxkqKC63QEWEZKA6ufVk/JnveQCuUG6UlYcsXlSEpMkMqpIwESIAHDE6CBZfgWeTRBoxhYn325DX9f+ZxHa+dm/yOQlpSIB359o9uQ0MByG0rTLEQDyzStZCEkQAKHCdTUHsKylc+IeSjAQ8VF+e77YSve2fhCGlj99CgzO+d+AL+UtnDxwsuQnJQolVNHAiRAAoYnQAPL8C3yaIJGMbDWvPcRVr5e5NHaudn/CISGBOOZv/zebUhoYLkNpWkWooFlmlayEBIggcMEDtbU4smnn9XD44GSovyb9ARYRUsDq59OT87O+YcC3CI9CIsuvxQpyUlSOXUkQAIkYHgCNLAM3yKPJmgUA+vJV9Zg3UefeLR2bvZdAs/d+X8ICgx0CxYaWG7BaKpFaGCZqp0shgRIAEDVwYNY8Yyuu8f/UVKU/2vC+yEBGlj9nIop2Tl3q8Ct0kNz5WUXIzUlRSqnjgRIgAQMT4AGluFb5NEEjWJg3fnkM9i0fadHa+dm3yXw0K03ISXBPS+uoYHF0/V9AjSweCZIgATMRqCyuhpPPfu8uCxFUe4uLsy7XRxgISENrH6anZmd+1dA/Z30LFxx6UVIGzZMKqeOBEiABAxPgAaW4Vvk0QSNYmD94p4HUHmozqO1c7PvErjj2kU4bvRIt2ChgeUWjKZahAaWqdrJYkiABABUVFZh5XMv6GCh/K2kKM99z+vr2NnoUhpY/RlYs+b/Carjj9IGLrz4QgxPS5XKqSMBEiABwxOggWX4Fnk0QSMYWKqq4pLb70BPX59Ha+dm3yXwi4tzcfrUyW7BQgPLLRhNtQgNLFO1k8WQAAkAOFBRiaeff1HOQsUdJevy/yQPsI6SBlY/vZ6SnfMHFfiz9ChcftECjBieJpVTRwIkQAKGJ0ADy/At8miCRjCw2ju7sPAPf/Vo3dzshwQum52Fn8w4zS1oaGC5BaOpFqGBZap2shgSIAEA5Qcq8MwLL4lZKCr+ULwunx94jkCMBlY/xyhzVs7tUHGn9JRdeuF8ZIwYLpVTRwIkQAKGJ0ADy/At8miCRjCwauobcP1d93m0bm72QwLnnX4KrvzJLLegoYHlFoymWoQGlqnayWJIgAQAlJWXY9WLeWIWDgW/3VyYf5c4wEJCGlj9Gljzfg1V+bv0LFwyPwcjM9KlcupIgARIwPAEaGAZvkUeTdAIBtbu8grc9uDjHq2bm/2QwCmTJ+Lmyxa4BQ0NLLdgNNUiNLBM1U4WQwIkAGBf2X4893K+nIWi/qaksOBeeYB1lDSw+un15OzcGxSoD0mPwoJ5P8Uxo0dJ5dSRAAmQgOEJ0MAyfIs8mqARDKzi7Tvxtyef8Wjd3OyHBCaPHYPfLVkIP2XwHyNpYPGEfZ8ADSyeCRIgAbMR2LVnD14qeFVelqLeUFJY8Ig8wDrKwX/yMCmrybNyrlRUrJCWN+8n5+PYcWOlcupIgARIwPAEaGAZvkUeTdAIBtb7m0rx4PPyW/A9CshCm43LGAHtTYT+Ntugq6aBNWiEpluABpbpWsqCSMDyBLbt2ImCf78u56AoV5YU5q2UB1hHSQOrn15PPnfefMVPEU9amzN7Fo6fcKx1Tg4rJQESMD0BGlimb7GuAo1gYBV+uAErXl2rK2+K3U8gfVgy7rzhGgQFBgx6cRpYg0ZougVoYJmupSyIBCxPYMtX2/DvtYVyDirml6zL5zd2RyBGA6ufYzQ1e975DiivSU/Z7KxzkDlpolROHQmQAAkYngANLMO3yKMJGsHAemn9W8j7zzserZub/ZBAclws/n7T9QgNDho0HhpYg0ZougVoYJmupSyIBCxPoGTzFqxZ94aYg6rg/NLC/DXiAAsJaWD10+xJ5+Zm+fmp2te8fpLzkHX2TJw4NVMipYYESIAEfIIADSyfaJPHkjSCgfXkK69j3UefeqxmbnRkAtER4Xjg179AeGjIoBHRwBo0QtMtQAPLdC1lQSRgeQJfbCrGujfflnJwqKo6q3RdwXppgJV0NLD66faUrJyZqgLt0IgGPJx95hn40bQTrXR2WCsJkIDJCdDAMnmDdZZnBAPr/lUv4aOSLTozp9zdBIKDAvHI7bcgKjxs0EvTwBo0QtMtQAPLdC1lQSRgeQKffP4F3nznPSkHux+UczYV5YkdL+nCZtDRwOrPwJo198eq6vcmANGAhxmnn4bTpp9shjPBGkiABEjASYAGFg/CtwkYwcD6y9KVKN25m43xMgFFUfD4736FuOioQWdCA2vQCE23AA0s07WUBZGA5Ql8uOETvPvBR1IOvYriOLu4cPX70gAr6Whg9WdgZeVOVxVVG7QhGvBw+inTccZpp1jp7LBWEiABkxOggWXyBusszwgG1m8eeBR7K6p0Zk75UBC48+fXYGz68EEvTQNr0AhNtwANLNO1lAWRgOUJvPfhR/jg40+kHLoVVTmzeF3eBmmAlXQ0sPrpdmbW3Gmq4ve+AgRLDsT0k6Zh5owfS6TUkAAJkIBPEKCB5RNt8liSRjCwrv3bP3CoscljNXOj/gn84uJcnD518qAR0cAaNELTLUADy3QtZUEkYHkCb737PjZ89rmIgwp0+Snq6cWFBV+IAiwmooHVn4E1KzcTqqrd5xcqORPTTpiCc2eeJZFSQwIkQAI+QYAGlk+0yWNJGsHAuvR3f0ZXd4/HauZG/RO4MOts5Jw9Y9CIaGANGqHpFqCBZbqWsiASsDyB9W++jc83FUs5dEBRTi0pzCuRBlhJRwOrn25PPnfecYqfor3qSDShdOrkSZh17v+z0tlhrSRAAiYnQAPL5A3WWZ63DazO7m5c9ru/6Mya8qEicOa0qbh+wdxBL08Da9AITbcADSzTtZQFkYDlCaxd/x8Ul26WcmhXHerJpesLvpIGWElHA6ufbk/Kyh3np6jafX4RkgMx6bgJuOC8bImUGhIgARLwCQI0sHyiTR5L0tsGVnl1DW7+50Meq5cbHZ3AhFEZ+PN1iweNiQbWoBGabgEaWKZrKQsiAcsT+PfaImz5aquUQ6uq2E4sLXxppzTASjoaWP10e+J5c0fZHH7afX6RkgMxYfw4zL1gtkRKDQmQAAn4BAEaWD7RJo8l6W0D6/OvtuGep57zWL3c6OgEtDcQPvH7Xw8aEw2sQSM03QI0sEzXUhZEApYnsPq1Ndi6fYeUQ7PdzzF1y9rVe6UBVtLRwOqn25Oy56b5wW8LgGjJgRgzaiQuzBn8rfSSvaghARIgAU8QoIHlCcq+s4e3Daw1732Mla8X+g4wk2fqpyh44e4/wWazDapSGliDwmfKYBpYpmwriyIBSxN4MX81du/dJ2XQ5IBj4uai1RXSACvpaGD10+0p2bkJKtRtAOIkB2JEWhouv3iBREoNCZAACfgEARpYPtEmjyXpbQNr+atrUPSh+BXUHuNi5Y1W/Ol2RIaLRoX2i4kGlpVP0JFrp4HFM0ECJGA2As88/yLKKyqlZdXb/APGb3z9hTppgJV0NLD66fa4Cy6ICOkN3A0gUXIgkhITseSKyyRSakiABEjAJwjQwPKJNnksSW8bWHc++Qw2bec4CI81XLDRv37zC6QmJgiU/UtoYA0KnymDaWCZsq0sigQsTWDZymdRU1srZVDbGdAzZsdrr7VKA6yko4HVT7dPOOHqgL7EhnIFSJYciJjoaFx/9SKJlBoSIAES8AkCNLB8ok0eS9LbBtYv7/0XKmoOeaxebjQwgb/esATjM9IHFh5FQQNrUPhMGUwDy5RtZVEkYGkCjyx9Eo1NzSIGKnDQvzZ2xMaNS3tFARYT0cA6SsMnZ+fsUYBRkjMRGhqKm2+4ViKlhgRIgAR8ggANLJ9ok8eS9KaB1ddnx8/+di+aWts8Vi83GpjArVdeimnHjR9YSANrUIysFkwDy2odZ70kYH4C9z38KDo6OoWFqntKigrGCMWWk9HAOkrLM7NzPgYwXXIq/P39cdvNv5BIqSEBEiABnyBAA8sn2uSxJL1pYLV1dOLn99yP1vYOj9XLjQYmcN2Cn+KsaScMLKSBNShGVgumgWW1jrNeEjA/gbvv+xf6+vqkhW4oKco/RSq2mo4G1lENrNxXAHWO9FDcdssv4T/It/FI96KOBEiABIaaAA2soSbsW+t708Cqa2rGLf98CO2dXb4FzeTZXj47CxfMOG1QVfIRwkHhM2UwDSxTtpVFkYBlCfTZ7bj7nw/oqF95taQo76c6AiwlpYF1lHZPmZXzuKriGumJuPFnVyMyMkIqp44ESIAEDE2ABpah2+Px5LxpYFXWHsKt/3oMXd09Hq+bG/ZP4Kdn/RiXzDpnUIhoYA0KnymDaWCZsq0sigQsS6C5pQUPPb5MXL+i4PHiwnzOJuqHGA2soxylydnz7lCg/J/0tF11+SUYliya+S5dkjoSIAES8BoBGlheQ2/Ijb1pYO05UIk/PLoMPb3i2+8NydBsSZ39o2n4Wc5PBlUWDaxB4TNlMA0sU7aVRZGAZQlUVR/Eimefk9ev4I6Swvw/yQOspaSBdZR+Z2blXAcFj0iPxIJ5c3DM6NFSOXUkQAIkYGgCNLAM3R6PJ+dNA+urPfvw5yeegt3h8Hjd3LB/Aj+aeBx+tfCiQSGigTUofKYMpoFlyrayKBKwLIGdu/fg5dWviutXoFxXXJT3mDjAYkIaWEdp+NTzcuY6HCiQnonzss7BlEkTpXLqSIAESMDQBGhgGbo9Hk/OmwZGov33AAAgAElEQVTWxq3bcfeKVVA9XjU3PBqB40aPxB3XLhoUJBpYg8JnymAaWKZsK4siAcsSKC7dgrXr3xDXr6rK3NJ1ea+IAywmpIF1lIZnZs89FfD7UHomZpx+Kk6b/iOpnDoSIAESMDQBGliGbo/Hk/OmgfX2Z5vw6MurPV4zNzw6gREpSbjvlp8PChMNrEHhM2UwDSxTtpVFkYBlCXy44RO8+8FH8vr9cGrJ2vyP5QHWUtLAOkq/p56bO8bhp+6SHokTp05B1tlnSeXUkQAJkIChCdDAMnR7PJ6cNw2s/P+8gxfXv+Xxmrnh0QnEREZg2f/dOihMNLAGhc+UwTSwTNlWFkUCliWw7s238cWmYnH9fegb82XRq3vEARYT0sA6SsMnzMgNDwxRW6VnYuwxYzD/p4MbZirdizoSIAESGGoCNLCGmrBvre9NA2tpwWt4Y8NnvgXMAtkG+Pvj+bv+CEVx/eMkDSwLHBSdJdLA0gmMchIgAUMT0OZfaXOwpFdPpxKx9d28NqneajrXP3FYhFRmdk47gFBJuUkJCVhy5eUSKTUkQAIkYHgCNLAM3yKPJuhNA0ubf/XF1u0erZebyQgs/9PtiAoPk4mPoKKB5TI60wbSwDJta1kYCViSwNKnnkHtoUPC2tWOkqIC13+oCnfxZRkNrAG6l5mdcwBAmqTJ4WFhuPHaq+Hn5yeRU0MCJEAChiZAA8vQ7fF4ct40sH7zwKPYW1Hl8Zq54cAE7rrxGhwzYvjAwn4UNLBcRmfaQBpYpm0tCyMByxFwOBx48LGlaGvX7okRXRUlRfmu/1AVbeHbIhpYAxtYpQAmSdocGhqC65csQlBQkERODQmQAAkYmgANLEO3x+PJedPAWnzH3Whq5d30Hm+6YMNfXjIfp00RfUw64mo0sASQLSahgWWxhrNcEjAxge7ubjyybDk6OjplVSpKaUlhXqZMbE0VDayBDKxZuW9DVc+UHI/g4GBcc9VCRISHS+TUkAAJkIChCdDAMnR7PJ6ctwysPocdF9/6JzhU1eM1c8OBCVyUfTbmzZwxsLAfBQ0sl9GZNpAGlmlby8JIwHIEWtva8MSKp9HV1SWrXVXeKVmXx7fCHYUWDawBjtLk7Nx8Beo8yYkLCgzEooWXIjYmRiKnhgRIgAQMTYAGlqHb4/HkvGVg1Tc345q/3OvxermhjMBZJ52A6+b/VCY+gooGlsvoTBtIA8u0rWVhJGA5Ag2NjVj+9Cp09/SIalehFJQW5eWIxBYV0cAaoPGZ2TlLASyRnA/tbTxXXHoRkhITJXJqSIAESMDQBGhgGbo9Hk/OWwbWrvIK3P7g4x6vlxvKCBw3eiTuuHaRTEwDy2VOVgqkgWWlbrNWEjA3gZraWqxc9QJ6+/qEharLSooKrhaKLSmjgTVA2ydn59ytALdKTofNZsNlF+YiLTVVIqeGBEiABAxNgAaWodvj8eS8ZWB9+uVW3LvyeY/Xyw1lBBJjY/DI7TdDUVz7SMk7sGScraSigWWlbrNWEjA3gQOVlVj1Yh7sdruoUBW4p7Qo/zaR2KIi1z5tWAhWZnbObwDcIylZ+/B2Ue48jMpIl8ipIQESIAFDE6CBZej2eDw5bxlYRR99guWvrPF4vdxQRiAqPByP/u4WBAUEyAK+p6KB5RI2UwfRwDJ1e1kcCViKwN6yMryQtxqqfI7nrSVF+X+3FCSdxdLAGgBY5qycxVCxTMp17gWzMWH8OKmcOhIgARIwLAEaWIZtjVcS85aB9XzhG1j99vteqZmbDkwgIjQU//rNLxAZHjaw+AgKGlguYTN1EA0sU7eXxZGApQhs3b4Dq1+Tfwmn+CmLi9fmLbcUJJ3F0sAaANjkrJy5ioICKddzZp6Jk06YKpVTRwIkQAKGJUADy7Ct8Upi3jKwHn6xAO9+UeyVmrnpwARCg4Pxj5uvh/YooSsXDSxXqJk7hgaWufvL6kjASgQ+27gJb7z1jrhkVVXmlq7Le0UcYEEhDawBmp6ZlTMDCsSn7pSTT8JZZ5xuwaPEkkmABMxGgAaW2To6uHq8YWBpt9zftfxZbNq+c3DJM3rICGhvYL7rxmswIjnJpT1oYLmEzdRBNLBM3V4WRwKWIvDWe+9jw6efi2tWoMwoLsp7TxxgQSENrAGaPnFW7kSbqm6Wno2Jx03AT87LlsqpIwESIAHDEqCBZdjWeCUxbxhY2tDTO554Clv3lnmlZm46MAHtDczaWwjHpg8fWHwEBQ0sl7CZOogGlqnby+JIwFIE/r22CFu+2iqu2a4ok7YU5m0RB1hQSANrgKZPnp2bqtjVCunZSB8xHJddOF8qp44ESIAEDEuABpZhW+OVxLxhYPX09uL3jyzD3ooqr9TMTQcm4Ofnhz8sWYiJx4weWEwDyyVGVguigWW1jrNeEjAvgWdfeAn7D4itBKg2Ja10TV6leYkMvjIaWAMwHJOdHRSOsC4p6uioSNxwzRKpnDoSIAESMCwBGliGbY1XEvOGgdXZ3Y1b//UYqmrrvFIzN5UR+PXCi3HyxAky8fdUvAPLJWymDqKBZer2sjgSsBSBhx5fhuaWFmnNahvaQ3YXFXVLA6yoo4El6PqUrHnlqqKI7o1XFAW33/JLaN9I8iIBEiABXyZAA8uXu+f+3L1hYLV3duLmfzyE+mbxhz/3F84VBySweO75yDrl5AF1RxLQwHIJm6mDaGCZur0sjgQsQ0Abg3D3ff+CNs9TeJWXFOWnC7WWldHAErR+SnbuOhXquQKpU3LD1YsRHR0llVNHAiRAAoYkQAPLkG3xWlLeMLBa2tvx87vvR3un+EZor/Gx8sbzZs7ARdlnu4SABpZL2EwdRAPL1O1lcSRgGQJNTc14eOmT4npVVVlXui6Pw7QHIEYDS3CkMmfl3AcVNwmkTsmlC3KRkT5CKqeOBEiABAxJgAaWIdvitaS8YWA1trTiZ3/7B7RvMXkZl8CZ06bi+gVzXUqQBpZL2EwdRAPL1O1lcSRgGQJl+/dj1Uv54npVRbmvtDDvFnGARYU0sASNz5yVsxgqlgmkTsl5WedgyqSJUjl1JEACJGBIAjSwDNkWryXlDQOr/GCN8xFCXsYmMGnsaPzf1Ve6lCQNLJewmTqIBpap28viSMAyBIo3b8HadW+I61VUZXHxurzl4gCLCmlgCRqfeV7OKXDgI4HUKTlt+smYcfppUjl1JEACJGBIAjSwDNkWryXlDQPr86+24Z6nnvNazdxYRmB4ciLu/9WNMvH3VDSwXMJm6iAaWKZuL4sjAcsQePeDD/Hhhk/F9SqqckrxurwN4gCLCmlgCRo/eXZuqmJXywD4C+Q4fsKxmDN7lkRKDQmQAAkYlgANLMO2xiuJecPAWvP+x1j5WqFX6uWmcgJhISF4+i+/kwd8S0kDyyVspg6igWXq9rI4ErAMgVfXFOLLrduk9fapNiWjdE1epTTAqjoaWILOn3D+RfH2vt6dAGIEcozMSMfFufOgvZGQFwmQAAn4KgEaWL7auaHJ2xsG1vJX16Dow0+GpiCu6lYCz935RwQFBuhekwaWbmSmD6CBZfoWs0ASMD0B7c2Dz+cVYF/ZfmmtDTb/gHEbX3+hThpgVR0dFkHnTzg7N8oeoJYCEL3WMjUlBZddvAD+NptgdUpIgARIwJgEaGAZsy/eysobBtady5/Fpm07vFUy99VB4OHbbkJyfJyOiK+lNLB0IzN9AA0s07eYBZKA6Qn02fvwzPMvo6q6WlirUmbrRebGN/OahQGWldHAErR+0jnnhCm2yA0KIJrMHh8Xi6suuwSBgYGC1SkhARIgAWMSoIFlzL54KytvGFi/+PsDqKzll5He6rmefe+4bjGOG5WhJ4QGlm5a1giggWWNPrNKEjAzgZ6eHqx49jnU1TdIy9xs8++evvH11zukAVbV0cASdH5Cbm5gYJvjbUA5VSBHRHg4rrlqIYKDgyVyakiABEjAkARoYBmyLV5LytMGlnb7/cW334Hevj6v1cyN5QR+ecl8nDZlkjzgsJJ3YOlGZvoAGlimbzELJAHTE+jq6sITK55Ga1ubtNYPe8KVmVvz8nqkAVbV0cCSdV7JzMp5HQrOk8i1O6+uv3oRwkJDJXJqSIAESMCQBGhgGbItXkvK0wZWe1cXFv7+r16rlxvrI3D57CxcMEP/G5hpYOnjbAU1DSwrdJk1koC5CbR3dOCRpU+ip6dXVqiKtSXr8s8HoMoCrKuigSXsfWb2vKWAskQox3VLFiE2Jloqp44ESIAEDEeABpbhWuLVhDxtYNU0NOL6O//p1Zq5uZzA+T8+FQsvyJYHHFbSwNKNzPQBNLBM32IWSAKmJ9DQ0IhHn1yho051aUlRwTU6AiwrpYElbP3krNzbFEW9SyjH3AtmY8L4cVI5dSRAAiRgOAI0sAzXEq8m5GkDa/eBCtz2r8e9WjM3lxM4NXMibrp0gTyABpZuVlYJoIFllU6zThIwL4Gt27dj9WtrxQWqwG2lRfn3iAMsLKSBJWx+Zva8OYDyilCO6SediJkzzpDKqSMBEiABwxGggWW4lng1IU8bWCU7duGvy572as3cXE5g8tgx+N2ShfBT9H205B1YcsZWUdLAskqnWScJmJfAW+++hw2ffSEv0IE5Jevz/y0PsK5S36cM63LCCefMG2+3KdukCDJGDMelF86XyqkjARIgAcMRoIFluJZ4NSFPG1gfbCrFv57P82rN3FxOYFzGCNxx7SL422zyIAA0sHThsoSYBpYl2swiScDUBFa9+DLKyg+Ia3SoyvjN6/J2iAMsLKSBJWz+CSdcHWBPaGiHggBJSHBQMG658TooOr+JlKxNDQmQAAl4ggANLE9Q9p09PG1gFX64ASteld9+7zskzZlpxrBk/O2GaxAUKPqY9A0EGljmPA+DqYoG1mDoMZYESMDbBLS3KP/zwUfQ1d0tS0VFr+1QbNjGjUuFE99ly5pVRQNLR2enzMrZpqoYLw25+YbrEBoaIpVTRwIkQAKGIkADy1Dt8HoynjawXlr/FvL+847X62YCMgLJ8bG495fXIyQ4SBZwWEUDSxcuS4hpYFmizSySBExLoKOjA/c9/JiO+pRtJUV5E3QEWFpKA0tH+zOzc18B1DnSkMULL0NyUqJUTh0JkAAJGIoADSxDtcPryXjawFr+yhoUffSJ1+tmAjIC0REReODXNyJc5xd3NLBkfK2kooFlpW6zVhIwH4GDNTV48ulVOgpTXy0pKvipjgBLS2lg6Wj/5Fm5dymqeps0ZP7cORg7ZrRUTh0JkAAJGIoADSxDtcPryXjawHrguZfxYfFmr9fNBGQEQoKC8PDtNyMqPEwWcFhFA0sXLkuIaWBZos0skgRMS2Dn7j14efWr8voU3FVSmP9beYC1lTSwdPQ/87x5C+FQVkpDss6eiROnZkrl1JEACZCAoQjQwDJUO7yejKcNrL8sXYnSnbu9XjcTkBHQZn4+/vtfIy4qUhZAA0sXJyuJaWBZqduslQTMR+CLTSVY9+Zb8sJU9YqSdQV87bKQGA0sIShNNiUrZ6aqYD0A0St2Tjn5JJx1xuk6dqCUBEiABIxDgAaWcXphhEyG0sBSAfT09KC9swvtHZ1oaGrGE6tfR21joxFKZw5CAr+4KBfjMoYjNCQEocFB8PPzGzCSd2ANiMhyAhpYlms5CyYBUxF4+7338fGnn0trsisqzi1el6/D8ZIubU4dDSwdfT3h3AVT7X72DwGIJrMfP+FYzJk9S8cOlJIACZCAcQjQwDJOL4yQibsNLO0tPQfr6rG/ohrlVdVoaeuA3W5Hn90O7b99sn0Hunp6jFA6cxASmDBiOFLi4uBvs0H78yMlMQEZacMwPCWp3+HuNLCEcC0ko4FloWazVBIwIYFX1xTiy63bpJV1OhyO0zavX71JGmB1HQ0sHSdg0jm5I/1sajGAKElY+vA0XHbRAomUGhIgARIwHAEaWIZriVcTctXA2lZWgaaWNjQ2N6OhuQWNzS1oaGpBY0sL+vrs/db0wZdfwe5weLVmbq6PwMjkJKQn/vDlNdrjhRFhoYiJikRsVKTz95jor/85LTEeP87U9/Kltzd+icbWNn3JUe0zBGhg+UyrmCgJkMARCDzzwksoP1AhZdPssCtTNr+Rt08aYHUdDSwdJyBzzpxodPvvBJAgCYuOjsINVy+WSKkhARIgAcMRoIFluJZ4NSFXDKyX1r+DZflrYLfrM6IcDgfe//Irr9bLzfUTSImNxbi0VF2Bp584GX++7gpdMTSwdOHyOTENLJ9rGRMmARL4FoGHlz6JpqZmKZNDtl7lmI1v5okDpAubVUcDS09n//hHv8zPtu4EVNGrBbXZD7fedCNsNtHILD2ZUEsCJEACQ06ABtaQI/apDVwxsJavLsSqNf/RXWd7Vxc+37lLdxwDvEsgOjwMmaNG6UpiyvgxuO831+uKoYGlC5fPiWlg+VzLmDAJkMBhAtoohHvufxDaF3GyS91TUnT8WOAOaYBsWROraGDpbO7krJwCRcFcadgVl1yEtNRhUjl1JEACJGAYAjSwDNMKryfS29eHvr4+XJo1Q1curhpYdS0t+LJsv669KPY+gaCAAEw/dryuRFwxsF599xO0dXUjOCgQ2uOJvMxFgAaWufrJakjASgQqKquw8rkXxCWrUApKi/JyxAEUgj/1dR6CybPm3aSoyn3SsJln/BjTT54mlVNHAiRAAoYhQAPLMK3wSiLajCptwHpZZTXqG5sRHBSA1ff/WVcurhpYFXX12F1VpWsvio1B4IyJE6HHU3LFwPr5nQ9i94FKhAQHY0RKEkakpiA1KQH+/v7GgMAsBkWABtag8DGYBEjAiwQ+/vQzvP3eB+IMVEW9ubSw4H5xAIU0sPSegcysBdOg2D+Txh0zejQWzJsjlVNHAiRAAoYhQAPLMK0YskRUqGhr73QOVm9sanEOWW9obkZjcyu6uru/s29YaDDWPHyXrlxcNbB2VVWhsq5e114UG4PAqROORYAOI8kVA+vav9yP7fvKv1Owzc8PURHhh4fDRyEmKgKxUVGIjopwvhWRl+8QoIHlO71ipiRAAt8l8FLBK9i1Z68Yi6Ko04oLC74QB1BIA0vvGcjNzbXtalM7AARKYsPDwnDjtVdDm4fFiwRIgAR8iQANLF/q1sC5anMZ+ux29PT2oeZQHfZVVONA1UF0dHUNHAzAkwbWln1lqG9tFeVFkbEInDRuLEKDgsRJucvA6m9D7RHDlMR4ZKSmICN1GEJDg52zSTVTi48fitvkUSENLI/i5mYkQAJuIqDNvXrwsaVoa2+Xrtjzk5OOC7njDs6/kgLTdHyEUA+tw9rM7NwdgDpWEqrd3n7NoiugGVm8SIAESMCXCNDA8qVu/TBXzayqq29E9aF61NTVo7W9HR2dXc5fdvFw0f+t60kD6/OdO9He9d07wHy7G9bJfsqY0YgKDRUXPNQG1vcT0eZmhYaEICw0BHHRUUhJiENyYjzCQkLEOVM4tARoYA0tX65OAiQwNAQ04+qJ5SvRKfxiEMCOkqJ8fYMjhyZ1n1qVBpYL7ZqclVOkKMiShAYEBOCqSy9GQkK8RE4NCZAACRiGAA0sw7TiqIlo3/i1O42pTrS2d6DmUL3TtDrU0AC73X0vtfGUgaWqKjZs246evj7faACz/A6BiRnpiIuMFFPxtIHVX2IR4WFOMyslIR4x0VEICwl2Gl1BgQHiWih0DwEaWO7hyFVIgAQ8S6D2UB2eWvU8ent7pRsXlRTlz5KKqfuaAA0sF05C5qycR6DiOkmo9ujgJfNzkD5iuERODQmQAAkYhgANLMO04geJaI/9lVdWo6yiGtWH6pxvCOyzO6A9JjhUl6cMLO3OsU937EBv39DVMlSMuC4wfngakmNixCiMYmB9O2E/Rfn6MUN/GyLDw5Gemoz01GFIjIvhY4fizroupIHlOjtGkgAJeI9AWfkBPP9yPrQvFkWXgkdLCvOvF2kp+oYADSwXDkNmds6vANwrDT0/+1xMnni8VE4dCZAACRiCAA0s77ehs7vbOWC9oanl60HrziHrLWhr10YxevbylIHV3duLz3fucs7r4uV7BEanJGN4QoI4cSMaWP0lHxDgj5jISMRGRyI2KhIxh39FRYZD4XfC4p4PJKSBNRAh/ncSIAEjEijd8iVeL1ovTk0BflVclP9PcQCFTgI0sFw4CFOzcuY6FBRIQ086cSrOOetMqZw6EiABEjAEARpYnmuD9m2dZtj09dlR39SE/ZUHUVZZhaZm4wwy95SB1dHdjY27drs0p8tzHeNO/REYkZiAUcnJYkC+ZGD1V5S/vz9GDEty3qU1IiUJAYEBziHx2psROShefBS+EdLA0s+MESRAAt4n8MZb7+CzjZvEiaiqMrd0Xd4r4gAKaWC5egYyZ+VmQlWLpfHa44OXXThfKqeOBEiABAxBgAbW0LVBhYrGphbnrKqDh+rQ1NL6zYD1XoPOfvKUgdXa2YniPXvgcKhD1wCuPGQEUuJiMS41Vby+GQysbxerGVahwUHO+VnhYSFIjItFckIckuLjEBjAeVqSg0EDS0KJGhIgAaMRePaFl7H/wAFxWorDllm8/qVScQCFNLBcPQMnnJ0bZQ9wNAKK6A62kOAQ3Pzza/ktnKvAGUcCJOAVAjSwBo9dG0je2dXtNKfaOztRW9+Ag84h63Xo6REP+Rx8Im5YwVMGVlN7O0r37oPGjpfvEUiIisJx6SPEiZvNwOqvcD8/BbFRUc43HibHxyEqIvybQfHarC1e/yNAA4ungQRIwNcIaJ9Z7nvoUT1vIHQEISjm06LnWnytVm/nKzJgvJ2kEffPzMrZBQVjpLn9/GdLEKXjrTzSdakjARIggaEiQAPLNbLaHVQV1bXYX1mNA9UH0d3T43w8UBuw7suejKcMrPrWVmzZV+YafEZ5nUB0eBgyR40S52EVA+v7QLSX/GiPGWrmVXxMDDLSUpCemuI0tqx+0cCy+glg/STgewSam1vw0BPL9CS+q6Qof6yeAGq/JkADy8WTkJk9fwXguFIaPu8n5+PYcTyjUl7UkQAJeJ8ADayj96C3t8/56J82VP2/w9W135tb2+RvoPF+m8UZeMrAOtjYiO0HKsR5UWgsAmHBwZg29hhxUlY1sPoDFBIc9M2A+NjoKOfQ+JjoSISHhoiZ+rqQBpavd5D5k4D1CGzbvgMFr63RU/hTJUX5V+kJoJYG1qDOwORZOVcqKlZIF5k+7UTMPPMMqZw6EiABEvA6ARpYX7fAoarOu6e0AettHe3YX6ENWK92Pg4oflWy17s5+AQ8ZWDtr6nFvpqawSfMFbxCICggANOPHS/emwaWDFVYSIjzDi3tlzZTSxsc72/zg81mvscPaWDJzgRVJEACxiHw5jvv4ZPPv5AnpDiuLClcvVIeQOV/CfAOLBfPQubseccodmWbCog+OYwemYELc+ZyDpaLvBlGAiTgeQJWNrDa2jucc6qqa+vR0NSMjs5OtHd2OR8HtOrlKQNrZ2UlquobrIrZ5+v2UxT8eOLx4jpoYIlRfSO02fwQGhyC0JBgRIaHISkhDikJcYiPjYbNT/SxVP+mHoyggeVB2NyKBEhg0AS0+Vcv5q/GHuH4AwWwKwHK+E2v5e0e9OYWXIAGlotNP+7c3NgAP3UbgETJEkmJCbjikosQwDfQSHBRQwIkYAACVjCwNEOqvePrAeuaUVVdW+ccst7W0WGADhgrBU8ZWF+W7UddC2eaGqv7+rI5dcKxCPD3FwXRwBJhEokC/G1IiP3fWw8jwkIRGhrsNLu0IfK+ctHA8pVOMU8SIAGNQG9vL55a9QJqDx2SAVGUml47Jny1Po/f1smIfUflOz/NXChuKENOOP/8UHtf0AYAkyT7hIWF4meLrkRIcLBETg0JkAAJeJ2AGQ0s7ZG/mroG54B17Vdre8fXjwc6B6zzrXdHO3SeMrA27tqN1s5Or59/JuA6galjRiMyNFS0AA0sESaXRNrjhdqgeM3YGpaUiIzUFIxIS0FwYKBL63kqiAaWp0hzHxIgAXcQ6OzqwuPLn0J7u/jLz822/8/emUDHVV3p+r81qqQqzbNnM8YMkjCQEJqEDIBlIB2wBAECTWcgSYfQL2O/9Mt6JD13OiOZSfqFEIaAZEggWIaQxoQkQMBYNgYzY2Nb81QqlUo13rfOlSXLk+qcGu+t+s9aWrKlvffZ59vXsuqvc/ZxhM/Z+uCD0g6ZyLNQYlDASrGSnZ2d9len9E0ALpQJId75+tRHP4KqqkoZc9qQAAmQQN4JWFnAEkKVaKY+12B9fGLS+LNoui5uCeRQJ5ArAevPu3YhEmWN1CtkHo81y5ejvrJCKiEKWFKYMmrk85YZjeLFR9WBD/Fnt9scwhYFrIyWm8FIgASyTGBsfBw//tnPjZ6pMkPTtYeP9+Hirq6uuIw9bQ4lQAErjSeirb3jGzrwedkQl7avQ8tpp8ia044ESIAE8krACgKW2DUVjyeMHVQzkQj29YkG633YNzBkNF3nyByBXAhYop5/2PkCd8Nlrmx5ibSqsQEr6qU6LIACVl5KdNRJxa2HYpeWaBQvbj4Uu7fEh81my2mSFLByipuTkQAJpElg+46deHDzw9JRNOCb23q6vyDtQMNDCFDASuOBaFl/xRWanrhHNsSak0/C5R+4RNacdiRAAiSQVwJmFbBE3yrRp0p8iJsARf+q6ekZhMJhCh9ZfGJyIWCFo1E8ueulLK6CoXNBoKm6CictXSo1FQUsKUw5N3I6HRA3H4pG8ZXlPjTW1RqN4sWfNS27Lx8oYOW83JyQBEggDQIbf/Nb7Hr5ZfkINlzR+1B3l7wDLRcSyO7/QAXOum395St03bZbdpmlHg8+e+Onsv4fv2w+tCMBEiCBxQjkW8ASR/2mQ7MN1v2TAfQbotUIxibY4DsfT24uBCzR+0r0wOKwNoEqrxctq1dJLYIClhQm0xh5SoP5LVsAACAASURBVNxoqK1BY10N6mqqUeYpMYQu8fVMDQpYmSLJOCRAAtkmIHaOf/v7PzJuq5YdmpZYuW3TfXtk7Wl3KAEKWOk9EVpbe0efDjTKhrnpkzegvNwna047EiABEsgbgVwLWOKXANGjardosL6vH2N+v3EMUBwPFD2tOPJLIBcClrh9UNxCyGFtAqJJ+DtOPklqERSwpDCZ0kjsxLLbbcYxwxK3G8ubG7FiaROWNjbAnsaxQwpYpiw3kyIBEjgKAfEG6/d+fKs0Gw3o39bTvQSAXMMs6cjFY0gBK81at7Z3/AbAB2TDXH1FB1avXCFrTjsSIAESyBuBbApY4vY/o7H65OTsZ78f4/4AZsLhvK2XEy9OIBcC1v7RUby6v4+lsDgBl8NhCFgyvZMoYFm82EdJX9S90udFdaVoEl8x3yi+qtwHh8OedMEUsJIiogEJkIBJCLyxew/uurdbPhsdv+nd3P1BeQdaHk6AAlaaz0Tr+o4vQ8e/yYa56P3vxVlntMma044ESIAE8kYgEwJWPD67g0rspOobGsYesbtqfz9CMxSq8lbYFCfOhYD15sAg9gwNpZgh3cxCwGm34+yTToTT4UiaEgWspIgKxkDsymqorcbKpc1Y3twEb5kH9gON4hf21aKAVTAl50JIoOAJPPPcNjz86P/Ir1PHP/Zu7v53eQdaUsDK8DPQenHnxUjoDwCQuqLlzLZWrLvgfRnOguFIgARIIPMEUhGw3uwbxPDYOPqHRjA4MoZAMIhgaMboZcVjgJmvUS4j5kLAemnvPgyMj+dyWZwrCwTEkbIzTzge4ihhskEBKxmhwvy+eAfd7XZB9IcVfbRqqirRVFeLxvoarFm1HGeefJzUwmciUWx68jle4CFFi0YkQAKZJrD5d7/Hs9t6ZcMmkEh8oPfh+x6SdaDdkQS4AyvNp6KlfUObBu1PADwyoZYvW4rrrrpSxpQ2JEACJJBXAqoC1i133o8HtvwR8Tj7VeW1cFmaPBcC1o43d2MsEMjSChg2VwTETpszjj8OZSUlSaekgJUUUdEZXHr+O/G56zql1k0BSwoTjUiABLJE4Pa778Fbe/fJRg/p0M/d3rNxm6wD7ShgZfwZWHvR5U1xm+0FAFUywT0lJfj8TZ+WMaUNCZAACeSVgKqA9W8/vQO/e3JrXnPm5NkjkG0BSzTx3/7Gm5gIBrO3CEbOCQGbpqH1uNUoLy1NOh8FrKSIis7gonPPwv/+6NVS66aAJYWJRiRAAlki8M1bfoDQzIxs9HF7InHK1ofv65d1oB0FrIw/A+eff75jwlPzAqCdKBv849dfh4b6Ollz2pEACZBATgmIRupjE5MIh8P4wnUd0nNTwJJGZUnDbAtY4ojpttffQEDhKmpLgiyCpEU/o9NXrUSV15t0tRSwkiIqOgMVAWsyOI3/+kUXykXT+IpylHvLpC4PKDqoXDAJkEDGCQwODeGnt/1SJe7LlaGRU7ds2RJTcaLtoQR4hDADT0Tr+o7vQ4f0tqp3nftOvOvcczIwM0OQAAmQQOoEhGBgNFiPxzE67sfufX1Gg/WJydkjXOKFwG9u+RfpCShgSaOypGG2Bax4IoGtr76Gad5Eacnn4/CkT12xHLUVFUnXQgErKaKiM1ARsMb8k7jiC1+bP7rucjqxtKkBK5Y0YWljPdwul3Hzod1ugwa+7Cm6h4kLJoEsEnj8T3/GE396UnoGDdr3t/V0fUbagYZHJcCf5Bl4MNou6XifHsejsqEaG+rxsb/5MMD/SGWR0Y4ESCADBBK6jnH/JAaGRzAwNIqJQMBori4+orEj3wyigJUB6AUUItsClhBSn3nlVYSj0QKiVrxLOXHJEjTXVCcFQAErKaKiM0hHwFoIS+wE9JS4UebxGDce1lVXo6m+Bo11tVI3ZBYdeC6YBEhAgYCOn/3iDgwMyt+cbIP2vud6uhSuLFRIp4hMKWBloNhrOjtdrildXJuUvNmD6Pbu8eDvPva3xmcOEiABEsg0AdFLKDQTxnQohKnpEIbGxjFw4FbAcCQiPR0FLGlURWGYbQFLiKhPv/yKsSOQw/oEVtTXY1VjQ9KFUMBKiqjoDDIlYB0LnBC2aior0Fg3K2ZV+Lwo9ZQYQpfYrcVBAiRAAskIiN+xf/SznyMk3/Zg2j5UXbl16618ly4Z3CTfp4CVJsA599b2jmcAnCkTzul04m8/fBXq69gHS4YXbUiABJITEC/69/UPGscA9/YPQghV4mviRkAhaKUyKGClQq1wfbItYEViMTy566WUn9fCJW/NlTVWV+HkpUuTJk8BKymiojPItoB1OFCbzQaH3W6IV7XVlVi5pAkrljQbwhYHCZAACRyNwNDQMH5+592Iyu8af7a3p/ss0kyfAAWs9BkaEVrXbfg5NO16mXDinZ8rLv8gTjhutYw5bUiABEhgnoDYpTLhn4To+zHmDxhHAsf9fkxMTmX8hT8FLD54CwlkW8AKzoTxzCuvEHqBEKjy+dCyamXS1VDASoqo6AxyLWAdC7A4flhVUW40hzc+V1YYn8tKPWwCUnRPJRdMAocSePX113Hvfb9R+d3757093R8hx/QJUMBKn6ERoaW94/Ma8A3ZcOe98x1491+dK2tOOxIggSIjIPpVxUWD9VgcgWAQe/YPYM/+PgyOjKn8Z5kWNQpYaeErOOdsC1gjk5PYuXtPwXEr1gWVlbhx1onJL2imgFWsT8ix120WAetYGQoBa0VzI1YsbTaOITrsDjjsNtjtPH7Ip5kEioXAlif+hD8++ZT0cnXgC9t7ur8p7UDDYxKggJWhh6OlveNCDXhYNtyKZUtx7VVXyprTjgRIoAgIBILTRoP1/uFRjE/4EZwOIRiaMY4D5mNQwMoHdfPOmW0Ba9/ICF7r6zcvAGamREAcyfqrU9Yk9aGAlRRR0RmYXcBaWBC7zYZSj8fooeXzlqKxtgZN9bWor6mGOHHBQQIkUJgEbr/7Hry1d5/84jTtwt5NXb+Td6DlsQjwJ2uGno22Cz7QrDtc+2XDORwOfOGmT0N85iABEiguAjORiHHznxCoxib86B8awcDwKKamp00FggKWqcqR92SyLWAJ8UqIWByFQ+Bdp54C0V9osUEBq3DqnamVWEnAOtaahbBVX1uNprpaNNTVwFdaaohc4iPZv4lMcWQcEiCB7BCIxWL4xi0/gPgsO7RYZMm23z3QJ2tPu2MToICVuadDa2vvfFWHfpxsyOuuvhLLJRqcysajHQmQgHkJCJFq9/4+vLV/AGKnlXE8MB7P2XHAVMhQwEqFWuH6ZFvAen73boxOBgoXYBGu7O0nnQSP20UBqwhrn86SC0HAOnz94nih2JXocjkMUWvlkmYsa26Ap6QkHVT0JQESyAMBsfNK7MCSHRq017b1dIkz9andqiQ7UZHYUcDKYKFb1m/4pqZrn5MN+a5zz8G7zn2nrDntSIAETE4gkUjAH5gyGqyL5upjE7OfxYcQq6w2KGBZrWLZzTfbAtYzL7+CYDic3UUwek4JtB23GhVlZRSwckrd+pMVooB1tKqII4bestKDTeLnm8WXw+1aXPi1fpW5AhKwLoHH//hnPPHnJ6UXoAPf3N7T/QVpBxouSoACVgYfkNPWX/Euu554XDbkqpUrcHXnBp6RlwVGOxIwCQHdaLCeMESp0EwY+wcGjd1V+waGlbYTm2Q5x0yDApbZK5Tb/LItYP1h5wsQIjBH4RBYs3wZ6isrKWAVTklzspJiEbAWgyluPFy5pAkrljShurLcaBAvdnDx+GFOHkFOQgLHJCAuWbr73o14c4/8pTNxLfHu5zfd9wdizQwBCliZ4WhEOf3Cy+ptdru4A7xCJmxNdRU+et2H4eK7LDK4aEMCeSUgGqmLPlWiyfrw2ASmgtNGH6tQOGzqY4DpQKOAlQ69wvPNpoAVSyTwx50vFB60Il/RcU1NWFZXSwGryJ8D1eVTwDqUmNPhgPj5K5rFV5b7jJsPxTFE8Wc2ild9umhPAukRiEQi+O/b78Do2LhcIA0Tmq6duK2na1jOgVbJCFDASkZI4funX3htmd0eelIHTpNxczod+LuPfRQ+n1fGnDYkQAI5IBCNxWYbrIdC8E9OoX9YNFgfwbg/ULBC1bGwUsDKwQNnoSmyKWCJiw2eeullC9FgqjIEltbV4vimJgpYMrBoM0+AApbcw1DidhkN4oWYVVddhbLS2dsQPW43hS05hLQiAWUCgcAUfvjT/4Z4vSAzdOB5Pe45Z8cjvwzK2NMmOQEKWMkZqVhore0dDwC4RNbpskvW45Q1b5M1px0JkEAWCIgeVbv392PP/n6Mjk/MHw8s9uNMFLCy8LBZOGQ2BaxAKIStr75mYTpM/WgE6isrsGb5cgpYfDyUCFDAUsJlGIudWHa7zThmKBrDL22qNxrFL2moh8NhVw9IDxIggaMS2PniLvz6t5uk6WjQHtzW0/XXbOAujSypIQWspIjUDNrWb/icrmvflPU64bjVuHLDZbLmtCMBEkiRgOhbNTUdwpjfj3GjuXoA436/0XB9JhxJMWphu1HAKuz6qq4umwLWWCCAHW/uVk2J9iYnUOXz4vRVq7DYL5ttJx+Pb33p00or+dQ/fxsvvfmWkg+NrUOAAlbmamW32VDu8xp9tKorKlBV4TM+V1b4DLGLgwRIQI3Arzbeh9def1PaSdf1z23fvPHb0g40TEqAAlZSRGoGp1985am2RPx5WS/xjsmXPnsTxPl2DhIggcwQiMfjRoP1SDRm9K3as78Pb/UNGEcDOeQJqApY3b/7A3a8/Lr8BLS0FAFxXOUfP36NUs6/f+o5PP7s9qQ+/mAQ+0ZHktrRwFoESt1urKxvWPQ40+qlTbj+g+uUFvYP3/4JXt2zX8mHxtYh8J6zW/GZqy+XSli8CXXFF75m7JzmkCcgXn+Io4eiSfyKpU3wlnrmG8Wzr5Y8R1oWFwFxbPDr375FqaWIntBP3f7wRjb5zOCjQgErgzCNUDffbGv5ywt7NGCpbOjrr7kKS5c0y5rTjgRI4DAC4hfXobExDAyNYHBkDIFgEEHRYD00gzhvNUv5eVEVsFKeiI4kQAIkoEBAvDkhdtVyFCYBsWtI9tgbBazMPAMlLhdKSz0o85SgprISTfU1aKirNYQtDhIggVkC+/b34bY775bGoUPfu/3sU1fia1+jwi5NLbkhBazkjJQtWtdt+Dk07XpZx3Xvfy/OPKNN1px2JFC0BIQYJXZRTYdCCASnMTg8ajRZHxodR7H3q8rGQ0EBKxtUGZMESIAESCBTBChgZYrkkXHEi0RvWRma6mrQWF+L6oryA43iPXC7nNmbmJFJwKQEnnluGx5+9H/ks9P123o3b/xbeQdayhCggCVDSdGmtb1DnLG4Q9at5bRTcWn7RbLmtCOBoiIgxKo9+weMButCrIrFYsbxQB4XyP5jQAEr+4w5AwmQAAmQQOoEKGClzk7V02Y0ircbvbNEX63lzY1YubQZ9TVVvPVQFSbtLUngwZ6Hsf35nfK5a9o1vZu67pJ3oKUMAQpYMpQUbdrWbzgzoWtPaECJjGtDfR0+fv11Mqa0IYGCJRCaCUPcBih+GRWfjT9PTCIYmgZPiuSn7BSw8sOds5IACZAACcgRoIAlxymbVk6nA1XlPlRVVBi7tKqMhvHlqPB5KWxlEzxj55zAT2+7HYNDw1Lz6sCMTdPP27Zp47NSDjSSJkABSxqVvOHpF15Wb7PbdwGolvGy2Wz44t/fCKeT23FleNHG2gTEUT+xgyoWi2N0wo/d+/rw1v5+jE8GrL2wAsyeAlYBFpVLIgESIIECIkABy7zFdDrsWNo0u0traWM93C6X0dtM9Dhjo3jz1o2ZHZ1ANBrFf333+9ItSzRgNB6Pr9nxyP1DZJpZAhSwMstzNtrNN9ta//LiU4B+lmz4D6xvx+mnrpE1px0JWIqAEKr6RYP14RFMBKaMPlaiybo4DshhXgIUsMxbG2ZGAiRAAiQAY9c2byE0/5MgBCtPiRtlHo/RGL6uphqNdTVoqK1hPy3zl48ZAtix8wU8sGmzPAsNf+nddMo5ABu4y0OTs6SAJcdJ2ap1/YYvQte+Luu4cvlyXHNlB9+RkAVGO9MREDdCiWOAwVAIwekZDI+OGT2rBoZHEYlGTZcvE0pOgAJWcka0IAESIAESyB8BClj5Y5+JmUVfrarKitlG8XW1xrHDUk+JIXTJ3kSZiTwYgwQWIyBe49xxTxf2vLVXBdQXe3u6v6HiQFs5AhSw5DgpW7Vc0rlEi+v7ZB09Hg8+9dHrUVpaKutCOxLIOwEhTO0fGDIarO8bGMRMOGIcDYzH4+AF53kvT9oJUMBKGyEDkAAJkAAJZJEABawsws1DaNFWRTSJFx+11ZVYsaTJOIIohC0OEsgXgeD0NH7837chFApJp6DbtaXbf9u1X9qBhtIEKGBJo1I3bG3veBXA8TKe4gf1tVdfiSVNTTLmtCGBnBKIxmLzjdXH/QGM+f0Yn5iEfyoofRY8pwlzsowQoICVEYwMQgIkQAIkkCUCFLCyBNZkYcXxw6qK2ebw858rK4zjiBwkkG0C+/v78cu77jF6+EqOV3t7uk+UtKWZIgEKWIrAVMxb2zvuAHCNrM/6C9+PM1pbZM1pRwIZJ5DQdWP3lPgBPTUVxO79/cbuqsGRMYjtsxzFRYACVnHVm6slARIgAasRoIBltYplNt9SjwcrlohG8U1GPy2nwwmH3Qa73Z7ZiRitqAk817sdmx55VJ6Bhjt6N3VfK+9ASxUCFLBUaCnatrR3fEYDbpF1O/641fjQhstkzWlHAhkhEAhOY2B4xGiyPjbhN5qriybr4UgkI/EZxLoEKGBZt3bMnARIgASKgQAFrGKostwa7XYbSktKIEQt8ftLQ61oFF+Lupoq4+ZDDhJIlcCvNt6P115/Q9pdB27a3tP9PWkHGioRoIClhEvNuHXdlWdBi/9F1svhcOBzN/4dXC6nrAvtSECKgNg7JQSp6Wlx+18IoxMTGBgaRf/wKMS5bg4SOBoBClh8LkiABEiABMxMgAKWmatjjtxEmxYhYjXV1aKhrgbe0lKUeYTQVQLRc4uDBBYjEIlE8a3v/1Dt5nTdfnbv5nueIdnsEKCAlR2uRtS1a9c64/WrxgGUyU5zxWV/jRNPkGqbJRuSdkVKIJFIYHBk1DgCuGf/AMROq7njgTwOWKQPheKyKWApAqM5CZAACZBATglQwMop7oKYTBwvFMcMnQ4HmurrjOOHK5qbUFLiLoj1cRGZJfDyq6+h6/7fqASdsg+9Wb1161Zewa5CTcGWApYCrFRMW9dt+Ak07QZZ37aW03DxRRfKmtOOBCD6VvknAxibmDQarYtf5sTnickARPN1swwhqPWNJe+l5bA7YLPxR1M+6iZukEzoifmpS1wuXP/BdYekIn7hq6uqzEd6nNOiBIRgPjw+kbT5qdvlQk1FuUVXybQPJzA2GcBMOLwoGJtmQ311JXdB8PFJSkD8HOkfGT3CbnomjDse/N38/11zt9glDUiDjBOIJxLGG6XJRm1FBTwuVzKznH5f0zRjZ1Z1pQ9VFRXzzeJFw/gSt7lyzSkYTobfbn4EvTuelyah6fjJts3dn5R2oKEyAb5KVEam5nB6++XvsMH2ZwBSrJubGnHdVVdCHCfkIIGFBMQvb/F4wngRGA5H8Fb/APbs68Pe/kGIXxrMPiKxGJ7c9RKbwZu9UMyPBEiABEiABEiABLJE4G3LlqHBIm+EaRoMQWvFkiasXNKEqspyiCOJ4oPHD7P0gJgobCwWwy/uugf9AwOyWemJuH7Ojkc2Pi3rQDt1AlKiinpYeswROOWizmqHTX9BAxplqHg8HnzqY39rNCDkIIGZcMQ4BigarA+PjSM4HTIarE/PzFgODgUsy5WMCZMACZAACZAACZBARglYScA6fOFiF7ronVVW6kFluQ+NdTVGb63KCh80ub0KGWXJYNklMB0K4Uc/+zlCoZDURDowEEtop7zwcNeYlAONUiJAASslbPJOx7e3u70oewzAObJe11zRiVUrl8ua064ACIijfkKYEgKVOPo3MDxq3Aw4PhkomB1LFLAK4EHlEkiABEiABEiABEggDQJWFrCOtWxxzLChtgZN9bWor6kyNiIIoctTUkJZK41nJd+ub+7egzvv7ZZPQ8Ofp/Tge1/r6Vn8/Lx8RFoehQAFrBw8Fi3rO76r6bhJdqpT3nYyLrv0Yllz2lmQgA4dE/4Adu8TDdb7jP5V4mig+BC9ogpxUMAqxKpyTSRAAiRAAiRAAiQgT6AQBayFqxf9tOx2m3HMsMTtxrLmRuP44ZKGejgcdnlQtMw7gfsffAgv7HpJOg9dwy3bN3X/vbQDDVMiQAErJWxqTq3rOy+Arj8i6yX6X33205+E283bMGSZmdkuEAxibCKAcb//kCbr4nhgMQ0KWMVUba6VBEiABEiABEiABI4kUOgC1rFqLnpmVfi8qK4sh2gOX10x+1kcRRRHEznMRSAcDuPbP/gxRB8s2aHZEhdse+i+R2XtaZcaAQpYqXFT8jr//PMdE57acQBeWcerOzdg9aqVsua0MwEBcfOK2EEVjcXRPzQ8v7uq2ISqY5WCApYJHlKmQAIkQAIkQAIkQAJ5JFCsAtZiwpY4frhyaROWNzfCV1YK+4FG8WI3F0d+CLz+5m7c3bVRZfKpytBI1ZYtW+QVL5XotJ0nwH8VOXoYWtd33AMdV8hO91fnvAPnn3eurDnt8kBAKPLDYxPoHx7B0MgYxE6roGiwHpop2GOA6WCmgJUOPfqSAAmQAAmQAAmQgPUJUMBavIain9ZcD63aygo01tcajeJF43iO3BHY8sSf8Mcnn5KfUMO9vZu6r5R3oGWqBChgpUpO0a9l3RUf1rTE7YBcL7/ly5biuqv4b0ARc1bM44nE7M1/oRAmp4IYHBkzGqwL8UrsuuKQI0ABS44TrUiABEiABEiABEigUAlQwEqtsr6ystlbD+trUV1ZgTJPidEo3u1ypRaQXosSuP3ue/DW3n2ylHQA1/b2dN8p60C71AlQwEqdnZLn2vWdp8V1/UkAZTKOYuvoF//+Roh+WBy5JyAEqz37+7FnXx/6R0aN88/ieGA8XpgN1nNBmAJWLihzDhIgARIgARIgARIwLwEKWOnXRhwtFE3iRVN4IWytWNJkNIqvq6mGzcaX9+kSjkZj+MYt31fZqBC0a9o5Wzd1PZ/u3PRPToBPeHJGGbE4/cILyzS7b5cGbZlswPYL3oe1ba2y5rRLgUBoJnxIY/XxiUmM+ScxNT2dQjS6LEaAAhafDxIgARIgARIgARIobgIUsLJXf6fTgapyH6oqKuabxIum8eU+L2zspyUN/tltvdj8u99L2+vQ9zockZO3PvggX0BKU0vdkAJW6uyUPVvWdXxX03CTrGN9XS0+fv11YAM/WWLHthPHAI0m67E4RsYnjN1Vu/f1wR+YSj84I0gRkBWw7DYbxE0tHLknIHYZ6rrYBX3sId7xqyqXvo8i94vgjKYjIB6p8UAg6Q5WcQtTpU9qk7Lp1siEjiQwOTWNcDS6KBrx+011uY87BvgAJSUgfo6MTPiT2okX6eIUA0fuCSTE79qJ5CcV1ixfhvrKytwnWMQzCmFraWODsUtrWVMjXC6nsXvLbrdBk+tuUzT0xO/BP73tdgwNjyisWf9ub8/G/6XgQNM0CFDASgOeqmvL+itP1PT4S7J9sNxuN264/jpUVJSrTlX09uKHz9jEpNFgfXB4FBOBgNHHKhgKGSIWR+4JCAHrqV0vIZFEIDlhSTMaqqpynyBnxM7duzExFVyUxOknrMYTP/s2aZGANIGp6Rmc/4nP4dW39i/qc17rafjtd/9FOi4NzU3gmq/8O377xOINcCt9Xjx12/fQVFtt7sUwu7wTCIbCaF6X/C4k8fuD+D2CI/cE+kZG8cbAQNKJzzj+OJSXlia1o0F2CIg3DjwlbpR5PEYfrfraaqNJfENdDVxOZ3YmtVDUCf+kIWCFw2HZrHXE9JN6f7fxVVkH2qVHgAJWevyUvVvbO18E9LfJOIpdKFduuAzHrVopY16UNkKoEscAhTAVnA5haHTcaLAuGq2HI5GiZGLWRcsKWCcvW4pGClh5KeP2N9/EeJJdia0nHY9td/44L/lxUmsSCEyHcNa1f4eX9+xddAHnr23FYz/5hjUXyayPIHD5F2/G/Y/9aVEyYjfn8/f8DEvqakmQBBYlIG559p53SVJK4vcH8XsER+4J7B0ewev9/UknpoCVFFFeDIwdsZXlaKyrNZrFizcY5m5DFDuki2W8/uZu3LPxfoUb5fVdvT0b1xQLHzOskwJWjqvQ2r7hJ4B2g+y0bz9rLS54z/my5kVhF43HsbdvwDgGuLd/0BCq4rG4sW052fGnogBk0kVSwDJpYRakRQHL/DWyYoYUsKxYtfRzpoCVPkNGOEiAApb5nwYKWOavkUqGYiPFXKP42qrK+UbxFeU+lTCWs/3d/2zB089uVchbv7W3Z+MnFBxomiYBClhpAlR1b7no8ms1m+12Wb+K8nLc+ImPFWUfLHEDxPhkAON+v9FYfa7BuuhbRaFK9gkyjx0FLPPU4liZUMAyf42smCEFLCtWLf2cKWClz5ARKGBZ6RmggGWlaqWeqzh+WFVRfrBJfEU5qirL4S2AY6Hi9eX3fvIzTE5OSgPSdf3a7Zs33iHtQMO0CVDAShuhWoDWdR9cCc3xhmwfLBH9+g9fhaXNhXueX/REmmuwHpgKYo+xu6oPQyNjSfslqdGndT4JUMDKJ325uSlgyXGilRoBClhqvArFmgJWoVTSHOvgDixz1GGxLChgmb9G2cxQ9NNavqTJaBTfVF9nXKbgsNssdanCvr4+3HbH3SqYdOix1b2bf71bxYm26RGggJUev1S8tdb1HU9Bx9myzmetbcNF73uvrLkl7ALBaaNXVf/QiNFsKIJi6wAAIABJREFUXfSwmg6FEI4sfmORJRbHJI9KgAKW+R8MCljmr5EVM6SAZcWqpZ8zBaz0GTLCQQIUsMz/NFDAMn+NcpWhOH4oBC3RQ8vnLUNjbTUa62tRV1Vl3Hxo1vHwo/+DZ57bJp+ehqd7N3WfA2DxK7zlI9JSggAFLAlImTZpa++4Tgd+IRu3qaEBf3PNh+CwYAO9mUgE09MhiF88Rif8GBgaMYSrqemQ7PJpVyAEKGCZv5AUsMxfIytmSAHLilVLP2cKWOkzZAQKWFZ6BihgWala+clV9NSqq6kyGsU31FbDV1ZmCF0eTwnstvwKW7FYDL+481foHxyUhqNr2nXbN3X9UtqBhhkhQAErIxjVgpz6gasaHNHoKwDKZTydTic+fcNH4S0rkzHPq404O9w/PGI0WN+zr98QqozjgfE4+1bltTL5n5wCVv5rkCwDCljJCPH7qRCggJUKNev7UMCyfg3NtALuwDJTNY6eCwUs89fIbBnOHjO0w+V0GKLWiqVNRrN4j9ud81SngkH84Nb/RjQqfRrIH3M6T9r5wN3yilfOV1WYE1LAykNdzzmn0zNdoT+haVgrO/0F7z0fbz9T2lw2bMp28XgC/qkpo7H6uH/SaLIuPib8k4ZYxUEChxOggGX+Z4IClvlrZMUMKWBZsWrp50wBK32GjHCQAAUs8z8NFLDMXyOrZOgrK0V1ZTmqKirmG8ZXV5TD7XZlbQni5kFxA6Hs0HVsLfVr5z35ZBePFclCy5AdBawMgVQN09a+4Xs6tBtl/cp9Xnzmkzfk/DZCsaNqdgdVAqHwDPb2DeKt/f3YPziMaCwmmz7tSAAUsMz/EFDAMn+NrJghBSwrVi39nClgpc+QEShgWekZoIBlpWpZM1chYq1Y0mzs1KqpLD/QKN4O0XMrnSFe797yo1sRmJqSDqMB39vW032TtAMNM0aAAlbGUKoFarmk82wtrj+t4vWRa69Bc1OjiktKtuFIBANDo8ZRwOGxcQQP9LCaCYd5DDAlonQSBChgmf85oIBl/hpZMUMKWFasWvo5U8BKnyEjUMCy0jNAActK1bJ+rk6HA6WeEpR5PKgs96GxrgZN9bXGnzVNTeLo6x/A//vlnWpQdPvZvZvveUbNidaZIKBW3UzMyBjzBFrbO14CcJIskve++zy88+3SlxcmDSt2UM01WJ8IBIwG6/3Do8aRQA4SyDQBCliZJpr5eBSwMs+UEQEKWMX5FFDAKs66Z2vVPEKYLbKZi0sBK3MsGSl1AiVut9EgvqmuFrU1VfB6PCgtLTH6ah1L2PrTU3/BY394QnpSTcNL2zZ1v03agYYZJUABK6M41YK1Xtz5f5DQ/0XWa/XKFbj6ig5Z8yPsxP2eomfVnv192L2/H2MTfoheVqJnVSKRSDkuHUlAhgAFLBlK+bWhgJVf/oU6OwWsQq3s4uuigFWcdc/WqilgZYts5uJSwMocS0bKDAEhWNntNqNRvBC2ljU1GEcQlzXXw26zz09y573deHP3HoVJ9a/09mz8VwUHmmaQAAWsDMJUDdV2Sec5elx/DIDUVQsupxM3feoTKClZ3Fyc450KhjDm9xu7qeaarIvPM+GIapq0J4GMEKCAlRGMWQ1CASureIs2OAWs4iw9BazirHu2Vk0BK1tkMxeXAlbmWDJSdgnYNA0V5T6InlriyOEfHt+icvtgWLNr79n2264ns5slox+LAAWsPD4bp1zUWe206bsA1Mum8f73vBvvOOvMefPZButxRKMx9A2NGLur3uobRGhmRjYk7UggJwQoYOUEc1qTUMBKCx+dj0GAAlZxPhoUsIqz7tlaNQWsbJHNXFwKWJljyUi5IzATDGAm4FeZcChuc538/EN3jas40TZzBChgZY5lSpFa2zt+AeA6Weeqqkr89aWXYGh0HIPDo5ianob4T306NMNjgLIQaZcXAhSw8oJdaVIKWEq4aCxJgAKWJKgCM6OAVWAFzfNyKGDluQAS01PAkoBEE3MR0HVMjg4iEYup5PWL3p7u61UcaJtZAhSwMstTOVrbJVe26PH4cwCk7v8UZ3m9NfWwO5zKc9GBBPJJgAJWPunLzU0BS44TrdQIUMBS41Uo1hSwCqWS5lgHBSxz1GGxLChgmb9GzPBQAvFYFFOjQxDtd2SGBsSjun7Gzs0bd8jY0yY7BChgZYerSlSttb3jeQCnyDqVVlTD5SmVNacdCZiCAAUsU5Rh0SQoYJm/RlbMkAKWFauWfs4UsNJnyAgHCVDAMv/TQAHL/DVihocSiISmMe0fk8eiaTt7N3WdJu9Ay2wQoICVDaqKMdvaO27Rgc/Iujlcbnir62TNaUcCpiBAAcsUZaCAZf4yFFyGFLAKrqRSC6KAJYWJRpIEKGBJgsqjGQWsPMLn1CkRmBobRiwSlvbVge9t7+m+SdqBhlkhQAErK1jVgra2b/ggoN2v4lVe1wib3aHiQlsSyCsBClh5xS81OXdgSWGikSIBCliKwArEnAJWgRTSJMuggGWSQiySBgUs89eIGR4kkIjHMDk8oIZEwwd7N3X/Rs2J1pkmQAEr00RTiHfaxVdX2RMR8S/IJevuLvPB46uQNacdCeSdAAWsvJcgaQIUsJIiokEKBChgpQCtAFwoYBVAEU20BApYJirGMVKhgGX+GjHDgwRCAT/CwYAKkgjc3obeX982oeJE28wToICVeaYpRWxb1/FjXcMnZJ3tTpdxjFA0decgASsQoIBl/ipRwDJ/jayYIQUsK1Yt/ZwpYKXPkBEOEqCAZf6ngQKW+WvEDGcJiKbt4vhgPBqRRqLr+Mn2zd2flHagYdYIUP3IGlq1wGd8oPP4RFR/EYDc9YKahoq6Rmg2u9pEtCaBPBGggJUn8ArTUsBSgEVTaQIUsKRRFZQhBayCKmfeF0MBK+8lSJoABaykiGhgEgJ6Ig6/OD4oefsggKjNqa157oGu10yyhKJOgwKWScp/+oXXltnsM08B+qmyKZV4fSjx8hihLC/a5ZcABaz88peZnQKWDCXaqBKggKVKrDDsKWAVRh3NsgoKWGapxLHzoIBl/hoxw1kCM1N+zEypHB/Udybipe/Y8cgvg2SYfwIUsPJfg/kMWts7bgXwcdmUxPHB8vpmHiOUBUa7vBKggJVX/FKTU8CSwkQjRQIUsBSBFYg5BawCKaRJlkEByySFWCQNCljmrxEznD0+ODnUZ3yWH9qtvT1d0q1+5OPSMhUCFLBSoZYln9Z1l58FzfYXlfBlVbVwuktUXGhLAnkhQAErL9iVJqWApYSLxpIEKGBJgiowMwpYBVbQPC+HAlaeCyAxPQUsCUg0yTuBaDiE4PioUh6app+1bdPGZ5WcaJw1AhSwsoY2tcCt7R3bALTKertLvfCUV8qa044E8kaAAlbe0EtPTAFLGhUNFQhQwFKAVUCmFLAKqJgmWAoFLBMUIUkKFLDMXyNmCIQmJxCenlJB0dvb092m4kDb7BKggJVdvsrRW9df8Wnoie/LOtrsDpTXNcqa044E8kaAAlbe0EtPTAFLGhUNFQhQwFKAVUCmFLAKqJgmWAoFLBMUgQKW+YvADJMSmBweQCIeS2o3b6DpN/Zu2vgDeQdaZpsABaxsE1aMf8a6DacnNO1JAKWyrt7qOjhcbllz2pFAXghQwMoLdqVJKWAp4aKxJAEKWJKgCsyMAlaBFTTPy6GAlecCSEzPHVgSkGiSVwKxSBhTY8MqOUzbdP2c5zZv3KHiRNvsEqCAlV2+ytHXdHa6XFOJlwFtpayzEK+EiMVBAmYmQAHLzNWZzY0ClvlrZMUMKWBZsWrp50wBK32GjHCQAAUs8z8NFLDMX6Niz1CIV0LEkh26hjejZdrJL3Z1RWR9aJd9AhSwss9YeYa2dRtu0jXtu7KO4jZCX20DxHFCDhIwKwEKWGatzMG8KGCZv0ZWzJAClhWrln7OFLDSZ8gIFLCs9AxQwLJStYovV3FsMDAyqHT7oAbctK2n+3vFR8vcK6aAZcL6nNPZ6QkF9T7okO7OXlpRBZenzISrYUokMEuAApb5nwQKWOavkRUzpIBlxaqlnzMFrPQZMgIFLCs9AxSwrFSt4ss1Egpi2j+usvCJiQZv0+7bbptRcaJt9glQwMo+45RmaGnf0K1B2yDrbHe64KuplzWnHQnknAAFrJwjV56QApYyMjpIEKCAJQGpAE0oYBVgUfO4JB4hzCN8yakpYEmColleCARGhxCPKp0E7O7t6e7MS7KcdFECFLBM+oC0tG/4iAbtv1XS89bUw+F0qbjQlgRyRoACVs5QpzwRBayU0dFxEQIUsIrz8aCAVZx1z9aqKWBli2zm4lLAyhxLRsosgVg0gqnRIaWguoaPbN/U/XMlJxrnhAAFrJxgVp/k9Asvq7fZ7fsBSDe2EkcIxVFCDhIwIwEKWGasyqE5UcAyf42smCEFLCtWLf2cKWClz5ARDhKggGX+p4EClvlrVKwZiqOD4gih/NBjiXhiyY5H7ldTveQnoGUaBChgpQEv265t6zt+rOv4hOw8NocDvpoGiKbuHCRgNgIUsMxWkSPzoYBl/hpZMUMKWFasWvo5U8BKnyEjUMCy0jNAActK1SqeXHVdR2B0EIlYTHrRGvQfb+vZ+ClpBxrmlACVjpziVpvsjIs6j0/Y9R3Q4ZH19FbXweFyy5rTjgRyRoACVs5QpzxRJgUsXRdp6BCfdRh/mb/5RfwyMfv3AzZz3zNsD9od4n/ge8LpgPds7GPFOsZ8hvdcTnPzHfG1OZuj5Tw3+yLfOyT+glhS8xxkMrfWg2s8nOPR2B742rFymON1NA7zLA+rz6K1PFqdZ4s7V8tQOIzPfutH2D80suizuWb1Cnzlo9cgkRDPjfDXD/7ZqHUCCfF14wNI6IkDfz5olxBTJ2a/Pmc7+3m2Xgd9DvgnZnklDvgYOScO+h70mfOfm39BbofkOTfHQfu3+gcxHpg6Yu02TcNJK5fDW1oCDRpsNhvE+0/iTSjjzwCEjfi78TXx2bbgz8LLduDrC20O9zH+jgMxD/iLOIa/mM+2YB4x51weB79uO5CXsJ3Nb85vNt/5/Bb8+eu334Ond760aM29pR786Mt/j5qK8tl8jN9KD/98YA4j0tG/Z3xH5CiozX02vjb7a66R46z7oTYH/n7k92YDiq8vjHFIrMW+d9Rcjj73fO5zuR74wmxOc3kflsvc9+Z4HZLLQk6zcx7CdS7mga8fZLZgvrnvHV6PBQyPqNWBGsznfNi8i80j858Wd2DJUMqvDQWs/PLn7EcnEIuEMTU2rIInZEfstK09v35dxYm2uSNAASt3rJVnOuecTk+oUv8DgDNlnUUPLNELi4MEckVg9rXtwRf1BwWGBS/wAUSjMTz76qvGi8rFxnFNjagpLzdM5mLPeywQQ+ZFiAOGB0WS2S/MTXPE1xdMvlBAOTDZ3KcFost8JocILgvnPzzO3JxzUx1c8pygc2iOR+Q7J9Ycvo4FIA5Z3xFcDsQ/kMC87cI6HSIUzdZwKhxGPB5ftD4lLieWNzYcEAcSSBgCQALxuFibEA4WCijzBOZjHtBCFlZhQa0PnfoQjgfWfvDpOfiFI5+oA56HfWP+KV3w9UNMFjybR8RcyPjw7A97phc+rwee4gOi26GOhz8ncyAW/Gs6yO3QRA8yO/h4HvjakYs7gtnBf7KHJHRkbQ7L/ojQhxblqHVY/J97rn5McR4TE5gXiOZynFOTZvWmQ8cCceqQb8zqVkd4HLoh/TCLBcEPyESzIQ/5+pFfOPIX5zmB6PBUD1geEe9AzCO/fSDA0eMZXkfZYT8ffsH3ZLkddDnUY0EJ5oEcnOfgOg/hdsiyDstgvj4Hi7ww3qzAKITRAx8HRFSbZp8XS4XnS7vfSvokuxwOeNyzb+TOi2zzuc0JmgtLvfBrhwmdC2LMPwnzoujsVw4RP+ftD4qVh9oc8DkCz5zwepSYC5/tBX+eq90hwuABAXc+ygLuc0//wXwPy2WhsLmwlgufq3mRdWG+B5/LgbEx7BlKLhS0rF4Fn0e8N3/wWT/85wBPkyR91GkgSUD0vhI9sBTGs5Uh73lbtvD2QQVmOTWlgJVT3OqTta7v+Cp03Kzi6attgN3hVHGhLQmkROCPL7yIWBLBI6XAdCIBEiABEiABEiABEihqAnabDW3HHwdvSUlRc+DiUyMQj0URGBlUc9bwtd5N3V9Vc6J1LglQwMol7RTmWrO+s9Gl63tVmrl7fBVwl/lSmI0uJKBG4ImdLyAutuBwkAAJkAAJkAAJkAAJkEAGCYjj1GcctxpeY8cWBwmoEZgJTmImMKniFIto2rIXN3UNqDjRNrcEKGDllndKs7Wt67hL13CVrLPd6YKPxwhlcdEuDQJ/2PmC0TuGgwRIgARIgARIgARIgAQySUD0/ms77jj4SilgZZJrscQKjA4hrnJ8UMfdvZu7ry4WPlZdJwUsC1Tu9PWd62y6/qDKLiwhYAkhi4MEskng8ed3zjfRzuY8jE0CJEACJEACJEACJFBcBISA1XrcapSXlhbXwrnatAkI4UoIWAojltC0S3ds6tqs4EPTPBCggJUH6KpTnn7hZfV2u/1FHaiR9RU3EYobCTlIIJsEtux4PpvhGZsESIAESIAESIAESKBICQgBq2X1alSUUcAq0kcg5WWLmwfFDYSyQwNG4/H4mh2P3K+kesnGp13mCFDAyhzLrEZqW9fxU13Dx2QnEbd3+GoaYHM4ZF1oRwJKBMRtgn94fqeSD41JgARIgARIgARIgARIQIaAeD3TunoVKsrKZMxpQwIGgXgshqnRQbVTIjp+1ru5++NEaH4CFLDMXyMjw7PWdzZGVZu5l1fCXeq1yAqZptUIRONx/OmFF62WNvMlARIgARIgARIgARKwAAEhYLWsWoVKLwUsC5TLNCmGp6cQmpxQyScWiziX7vz93YpXFqpMQdtMEaCAlSmSOYjTsq5zs6bpF8lOZbM7UF7bCLDKsshop0AgEovhzy/uUvCgKQmQAAmQAAmQAAmQAAnIERAC1umrVqLKyzfk5YjRCjowOTKARDwmDUPXtYe3b+5aJ+1Aw7wSoLSRV/xqk7e2b/g4oN2q4lVWWQNnCW/uUGFGWzkCM9Eontr1kpwxrUiABEiABEiABEiABEhAgYCmAaevWkUBS4FZsZtGZ0IITowqYtBv6O3Z+FNFJ5rniQAFrDyBT2Xak993WY3bZR/SAJusv8NdAm9Vraw57UhAmoCu63hjYBB7h4elfWhIAiRAAiRAAiRAAiRAAskIiN1Xy+vqsLy+Dnab9EufZGH5/QInMDU+glh4RnqVOpAIR+L1L/3+flXVS3oOGmaWAAWszPLMerS29o7/0IF/kJ1Is9ngq22AzWaXdaEdCSgRmA6HsX90FEPjExB9sThIgARIgARIgARIgARIIBUCTrsdDdVVaK6uRqnbnUoI+hQpgUQijsDIIPREQpqApun/sW3Txi9LO9Aw7wQoYOW9BGoJnPqBqxoc0egrAMplPUt85SgpkzaXDUs7EjiEgOiJ9fK+/ZiYmkJc4T8OYiQBEiABEiABEiABEihuAmKXVW1FBU5oboLDzjfei/tpSG31M1OTEB8KYzLmdJ648wE2b1dglndTClh5L4FaAmvX3uCM140/DE1/j6yn2IJbXtcEsRuLgwSyTWAqFELf2BgGxsaR0PVsT8f4JEACJEACJEACJEACFiUgXow219bM77gSr1s4SECVgNh1NTncD9HiRHro2mP24aqLtm69NSrtQ8O8E+BPiLyXQD2Blos3fFhLaL9U8SytqIbLU6riQlsSSItAYHoae4aGMc4dWWlxpDMJkAAJkAAJkAAJFBoBscuq2uvFqsYGeHhUsNDKm/P1RELTmPaPKc2r2/Rrtz+08Q4lJxrnnQAFrLyXQD2BtWvXOuP1q94AsFTW2+kuQRmbucviol2GCIh3QcLRKF7Ztx9jU1MZisowJEACJEACJEACJEACViVQW1GO45qaUOJ0gjuurFpFc+UdHB9BVKl5u7bXMfTGcVu3buXuK3OVMmk2FLCSIjKnQeu6zi9C0/8TgFwNNQ2+mnrYHU5zLohZFTQBIWSJnVh9o2MYDQTUtvcWNBkujgRIgARIgARIgAQKn4DNZkNdeTmaa6pRUVZW+AvmCnNGIB6LIjA6BMgfHxTnDL/U29P9jZwlyYkyRkBO/MjYdAyUKQItF204RbNpTwHwysZ0uNzwVtfJmtOOBLJCYHI6hJf27kUoEqGQlRXCDEoCJEACJEACJEAC5iBgE2+il3pw4pIlKCspMUdSzKKgCEyNDSMWCausaUqD9vZtPV0vqjjR1hwEKGCZow7KWZx//vmOcU/dYxr0v5J1Flt0vdyFJYuLdlkkIJq7i9sKRY8sfzCYxZkYmgRIgARIgARIgARIIB8EasvLsby+Dl6PB0LI4iCBTBMQu6+mRoeU3hTXgT9WhUbes2XLllim82G87BPgT5LsM87aDGdc3HGensBjOiB912yJtxzig4MEzEBA7PQd8k9g3/AIxO2FCveGmCF95kACJEACJEACJEACJLCAgBCqysvKsKK+DlVe6YMiZEgCKRGYmZqE+JAdGhDXbHjPcw91PyHrQztzEaCAZa56qGajtbV3/lmH/g5pR01DRX0TNM0m7UJDEsg2gUQiAf/0NF7etx8zkUi2p2N8EiABEiABEiABEiCBDBModbvxtuXLjKOC3HGVYbgMdwQBXU/AP9Sv0vsKGvSntvVsfCfA982t+khRwLJq5Q7k3dK+4UYN2vdUlsFdWCq0aJtLArF4HEN+v9HsXezI4iABEiABEiABEiABEjAvAdGipLKszGjOXlteAZ4UNG+tCi0z1d1Xxvo1/cbeTRt/UGgsimk9FLAsXu2z33dZTcRl3w/ALbsUm8MBX00Dr62VBUa7vBDoHxvDmwODiMZifIskLxXgpCRAAiRAAiRAAiRwdAJCqCpxunB8czNqyn3ERAI5JSBuOA+MDiIRU2pjFXZF4kv+8vv7R3OaLCfLKAEKWBnFmZ9gres6vwhN/7rK7GVVtXC6eROICjPa5p6AEK9GJicNISui9h9U7pPljCRAAiRAAiRAAiRQBAR8Hg9WNjSg0lsGu41tSYqg5KZbYjQ8g+D4iGpeX+zt6f6GqhPtzUWAApa56pFSNqdc1FnttOk7ATTJBrDZHfDVcheWLC/a5ZeA6JG1Z3gYQ+MTCLFHVn6LwdlJgARIgARIgASKkoC4TXBJTTUaq6p4kqMonwBzLNrYfTUyiERcZfeV1hdN4LQXHu4aM8cqmEWqBChgpUrOXH5aa3vnHYB+tUpaZVU1cLo9Ki60JYG8EhA9ssTRwt2DQ4gnEnnNhZOTAAmQAAmQAAmQQDEQcNjtOHnZUuNWQe64KoaKm3uN0ZkQghPKpwDv7O3pvpbN281dW5nsKGDJULKAzdr1nafFdX0rAKdsus4SD8oqa2TNaUcCpiEgbirsHxtH//gYIlGVd19MswQmQgIkQAIkQAIkQAKmJiBuE2yurkZjdRWFK1NXqriSE+KVELEURjSuaWuf39T1vIIPTU1KgAKWSQuTSlqt6zvugo6rVHzL65pgs9tVXGhLAqYhIHZhvd7fj8HxCe7IMk1VmAgJkAAJkAAJkICVCTjtdqxoqMeSmhoeFbRyIQsw90Q8jsnhfrWVafpdvZs2XqPmRGuzEqCAZdbKpJBXW3vnu3XoD6vcSOhwl8BbVZvCbHQhAfMQmA6HMTA2jr0jIxDn4jlIgARIgARIgARIgATUCLidTqxsqEdNeTlcDoeaM61JIAcEpsZHEAvPqMwU1qBdtK2n63EVJ9qalwAFLPPWRjmztZdeWhqPlTwL6G+TddY0Db6aetgc0icPZUPTjgRyTmAmEsWbgwMYmwwgGo/nfH5OSAIkQAIkQAIkQAJWI1DicqGhsgJL6+ogdl9xkIAZCcRjUUyNDim+Wa3tsjtmztz64IPTZlwTc1InQAFLnZmpPVov7rwYCf23KkmWeCtQ4vWpuNCWBExLQGzACkejeGNgAEMTE6bNk4mRAAmQAAmQAAmQQD4JiDeyVzc2oKm6GqJROwcJmJnAzFQAM1N+tRR1/eLezRs3qTnR2swEKGCZuTop5tayruNZTcNaWXfNZkN5bSPEZw4SKCQCk9PT2D86ihH/JHtkFVJhuRYSIAESIAESIIGUCYjjgUK0aqqpRomTpzBSBknHnBHQEwlMjgxAfJYduo6t2zd3nylrTztrEKCAZY06KWXZsm7DZzVN+5aKE3dhqdCirdUIiB5ZL+/bj8D0NBLskWW18jFfEiABEiABEiCBDBCw22xoqKzE8UuaYdP4MjADSBkiRwRmpiYhPhTHZ3t7ur+j6ENzkxPgTy6TFyiV9M5a39kY1RO7Ac0t6293OOGtqedNI7LAaGc5AkK4mgqF8NbQMEYmlf8DtNx6mTAJkAAJkAAJkAAJCAJCuFpaW4vGqkp43NIvDwiPBExBQFzQJHpfiR5Y8kMPOzXbymc2dQ3I+9DSCgQoYFmhSink2NLe+X816F9TcRW3EYpbCTlIoNAJjAWm8NbwECaD3JFV6LXm+kiABEiABEigWAk4HXZU+3xY2dAAj8tVrBi4bosTELcOitsHVYYO/N/tPd3/rOJDW2sQoIBljTopZ9nW3lmnQ38eQIOss83uMHphgU+FLDLaWZiA2JEVDIXw4t69CIUjFl4JUycBEiABEiABEiCBgwTEr/KN1VVY1dgI0e+KgwQsS0CH0fsqEY+pLGFQg3batp6uYRUn2lqDAKUKa9RJOcvOzk77q8HE7dC1q1Wcy6pq4eQuLBVktLU4AdESa9g/gb7RMfinpxWv5rX44pk+CZAACZAACZBAwRAQfa0aqqrQXF0NX6mnYNbFhRQvgWg4hOD4qCqAO0/wan/T1dUVV3WkvfkJUMAyf41SzrClfUObDdozOiB9L66rxIO3AISYAAAgAElEQVTSypqU56QjCViZgOiN9VpfP8KRCHQrL4S5kwAJkAAJkAAJFA0Bm82GirJSvG3pMric3HFVNIUvgoVOT4wiMhOSXqkGxHVNO7N3U1evtBMNLUWAApalyqWebMu6jo2ahstlPTVNg6+2AeI4IQcJFCOBWDyO8akp7B4cQnBmphgRcM0kQAIkQAIkQAIWICB+b6+vqMCS2hr4PB5exmSBmjFFeQLi2GBgZFDpdIQObeP2nq4O+VloaTUCFLCsVjHFfFsuvvw9Wtz2MDQ4ZV3FEcIysQuL1+vKIqNdARJIJHT0jY2if2ycQlYB1pdLIgESIAESIAGrEhC3CpaXlhrN2cXOKw4SKDgC4ubBiVGIBu7SQ0dUtycu2v7QfY9J+9DQcgQoYFmuZGoJr7300tJYzPWSBm2ZtKfYhVVdB7uTt5VIM6NhwRKIJxIQRwtf2bcP8QQPFhZsobkwEiABEiABErAAgUqvFyc0N6PU7eKOKwvUiymmRiAejSAwNgyIZrWSQ4e+t9RrO+nJri75M4eSsWlmHgIUsMxTi6xl0rquoxMa7lWZgL2wVGjRthgIRONx9I+NoX90DKEIby0shppzjSRAAiRAAiRgFgI15T4sqalBlddL4cosRWEeWSOg2vtKJKIh0bmt577urCXFwKYgQAHLFGXIfhIt7R07NOA0lZmMXVgut4oLbUmg4Anouo7dQ0PYPzIK0S+LgwRIgARIgARIgASyQUD0uCp1u3HysqVGjysOEigGArFIGFNi95Xa2NHb092i5kJrKxKggGXFqqWQc2t7xxcA/JeKq8NdAi97Yakgo20REZiJRjE8MYG3hoYhdmdxkAAJkAAJkAAJkECmCIjeVivq61FRVgbR84qDBIqCQCq9r2bBfLG3p/sbRcGoyBdJAatIHoBTP3BVgyMa3QWgSnbJ4l0fb0097A7p/u+yoWlHAgVDIByNYs/QEEb8k4jEYgWzLi6EBEiABEiABEggtwSM371LSrCsrhb1lZW5nZyzkYAJCMRjUUyNDindPAhgLOaMrNn5wAODJlgCU8gyAQpYWQZspvAt6zZ8WNO0X6rkJBq5+2rqVVxoSwJFSUDswtozOIT9oyMq/SaLkhUXTQIkQAIkQAIkcCiBEpcLJy1ZggpvGWy8CZyPR5ESCIwOQTRwVxwf7u3pvlPRh+YWJUABy6KFSyXtNed3el0e/AXQ36biX1ZVA6eb5+5VmNG2eAkEZ2bQNzqGgfFxiBsMOUiABEiABEiABEjgWAR8pR40V9egvrKCRwX5mBQ1gehMCMGJUUUG+q5IyHb2i1u6phQdaW5RAhSwLFq4VNNua+/4vA4onQ92uktQVlWb6pT0I4GiJBCLxbFr3z6MT00hQSGrKJ8BLpoESIAESIAEjkZAvABzOZ1Y1diIRnFUkK/I+KCQAILjI4iGZ5RI6Jr++e2bNn5LyYnGlibAH5eWLp968msvvbQ0Hit5Vm0XlgZvVS0cbt5IqE6cHsVMQAcwFQph/+goBscnVM/zFzM6rp0ESIAESIAECpKA2+nE6sYGVPt8cDocBblGLooEVAnEwmFMjavePKjvsjsiZ2598MFp1flob10CFLCsW7uUM29bt+EqfbYXll02iN3hgLemAaK5JAcJkIA6gcnpEHYPDsIfDPJooTo+epAACZAACZCAZQmI3549bjcaq6uwrLaWv09btpJMPBsEdHHz4Ogg4mqXIcU1Xb922+aNd2cjJ8Y0LwGqEeatTdYyW/v+zoq4I/EKNE2pO7s4RiiOE3KQAAmkRkD8Bx2KRPDq/j7jaCEHCZAACZAACZBAYROw22w4rrkJDZWV7HFV2KXm6lIkII4NiuODKkMHBh1R7aStj3b5Vfxoa30CFLCsX8OUVtCyfsMVmq79Cgqn7nkjYUqo6UQCRxAQQpYQsMTRwtHJAAmRAAmQAAmQAAkUGAFxq2BzdTUaq6rgcvKoYIGVl8vJIIEUbh7U9YT+oe0Pb7w3g2kwlEUIUMCySKGykWbr+o4/Qcc7VWKXVlTD5SlVcaEtCZDAIgQCoRBe2rsP0+Ewe2TxSSEBEiABEiABixNw2u1orqnBivo62Gw2i6+G6ZNAdglEQkFM+8fVJtHw595N3eeqOdG6UAhQwCqUSqawjpb1nddqun67iqvYheWtruPZfRVotCWBJATiiQQmgkHsGRyE6JXFQQIkQAIkQAIkYC0C4qjgivp61FdWQOy+4iABElicgNH7amwY8WhECZVu06/d/tDGO5ScaFwwBChgFUwp1RdyzjmdnlClvgPA8SreszcSsheWCjPakoAsAXFb4b6REUzNzHBHliw02pEACZAACZBAngiIWwVrK8qxsr4BTof0/Uh5ypbTkoB5CKTS+wrAq5Uh7+lbttw2Y56VMJNcEqCAlUvaJpzr9PUb3m7TtT+p3EgotkOX1zUBvJHQhBVlSoVAIJFIYHwqiFf270c4Gi2EJXENJEACJEACJFBwBJbW1WJFXR2cDva4KrjickHZJaDr8A/3Q08kVOaJJzT93B2bNj6t4kTbwiJAAauw6qm8mpXnX19S6Qk8CmhK54g95VVwl5Ypz0cHEiABeQKxRAJD4xPoGxvFVIhvNMmToyUJkAAJkAAJZIeA6HHVUFVp9LkqdbuzMwmjkkCBEwhPTyE0OaG6yj9OhEYu2L1lC38pViVXQPYUsAqomKkupWVd52Wapm9Uu5HQCV9NQ6pT0o8ESECFgA5DxNo9NIRINKbiSVsSIAESIAESIIEMEBA9rqp9PpzQ3ASX05mBiAxBAsVLIDAyiHhM6ZSBDtgu7+2599fFS40rFwQoYPE5QGdnp/3VKb0HwAUqODzllXCXelVcaEsCJJAGgUgshhH/JHYPDkL8mYMESIAESIAESCC7BDRNQ3N1NZprqlFWwh6w2aXN6MVAIMXdV4+c4NXWd3V1xYuBEdd4bAIUsPh0GARaLr7iPVoisRmA9LUpmuiFVdsI8ZmDBEggdwTiCR1vDQ1icMKPmYjazS25y5IzkQAJkAAJkIB1CcztuFrZUE/hyrplZOYmIyB6Xk2ODKj2voroicS67Q/f95jJlsN08kCAAlYeoJtxyjWdnS5nEFs1XT9VJT9PRRXcHvbCUmFGWxLIFIFYPI79o2PGjixxFTEHCZAACZAACZBA+gRqxFHBpUvgdjggdmBxkAAJZIZAOBREyD+uFEzX8Hy0TDvzxa4uvmurRK4wjfkTuTDrmtKqTl2/4UyHjj8CmnRHSpvNDl9tA3dhpUScTiSQGQJiF1bf2BgGxsZ5tDAzSBmFBEiABEigyAjYNA21FeXGccFKL1tkFFn5udwcENATcQRGhpBIqJwC1MNxm+3c5x/q2pqDFDmFBQhQwLJAkXKZYkt7Z7cGfYPKnC5PGUorqlRcaEsCJJAFAtF4HK/39WPY70dc7VriLGTDkCRAAiRAAiRgfgJCuBK3CZ68bCm8Ho/5E2aGJGBRAtP+cURCQdXsu3t7ujtVnWhfuAQoYBVubVNaWdu6jvfpGh5VcRY9sMSNhDa7XcWNtiRAAlkiMB0Oo39sDPtGRnm0MEuMGZYESIAESMD6BMRRwWX1dagoLeVRQeuXkyswMYFEPI7A6KBq7ytoOt6/bXP37028NKaWYwIUsHIM3ALTaa3tHQ+r3kjocJXAW1UDsE+ABUrMFIuFQCgSwe6BQYwGAhD9sjhIgARIgARIoNgJiJ5WQrASwlW1z8cr2Yv9geD6s09A1zE1PopYZEZ1rkd6e7rXAWCjV1VyBWxPAauAi5vq0lrXfWgltNjzAJQaAJRW1sBVwq3XqXKnHwlkg4Bo7h6JxfBaXx+G/ZPZmIIxSYAESIAESMASBMRRwTXLl6G0pATi6CAHCZBA9glEZkKYnhhVm0jHFOA4rXfzr3arOdK60AnwJ3ehVziF9Z1//vmOidLau6BD6byx3emCr7oefCsrBeh0IYEcEPAHg+gbHcPw5CQS7JGVA+KcggRIgARIwAwEKsvK0FxTjdqKCgpXZigIcygeAjoQGBtCPKp4gaCGrsrpkau3bNkSKx5YXKkMAQpYMpSK0EbswtK0+C4deonK8j2+SrjLlDZuqYSnLQmQQAYIBGdm8NLefRCfEzp3ZWcAKUOQAAmQAAmYjIA4Kuh0OHDikmbUlpebLDumQwLFQSAcDCAU8CstVoM2o+v2t3H3lRK2ojGmgFU0pVZfaFt7xz/owL9DYU/VbEP3etjsDvUJ6UECJJAzAuJo4eT0NN4aGjZ6ZHGQAAmQAAmQQKEQ8JaUYEVDvdHjym6zFcqyuA4SsBSBRDyGwOiQauN2XQO+vK2n+z8ttVgmmzMCFLByhtp6E7Vd8KFm3R57BhqaVbJ3l/ng8VWouNCWBEggTwTE/quxQAB7h4bhn57mrYV5qgOnJQESIAESSJ9AWUmJcVSwqbqaRwXTx8kIJJAWAbHzSuzAUhz7tVjk7G2/e6BP0Y/mRUKAAlaRFDrVZbZctOEKzabdo+ovdmGJnlgcJEAC1iAgjhJOz8zgxbf2YjoctkbSzJIESIAESIAEAOOo4ElLmlHFHVd8HkjAFAREzyux+0p56Liid3N3l7IfHYqGAAWsoil16gttbe94BMAFKhEcrhJ4q2oA3vCigo22JJB3AkLIGvb78Xpfv3F7IQcJkAAJkAAJmJmAw27H20860RCxOEiABExAQNcxNT6KWGRGNZlHenu6L1J1on1xEaCAVVz1Tmm1res7L4CeeFhVjfLW1MHhdKc0J51IgATyS+AvL7+M6bDijTH5TZmzkwAJkAAJFCmB8045BXY7e10Vafm5bJMRiEXDmBodVsxK1zWbfuG2h+57VNGR5kVGgAJWkRU8leV2dnbaXwkkfq5p2rUq/jabHb7aBojG7hwkQALWIRCLJ/D0yy8jyh1Y1ikaMyUBEiCBIiZwxvHHoby0tIgJcOkkYA4CeiKBwMggEom4akK3n+DVPtLV1aXsqDoR7a1NgAKWteuXs+zb2jvrdOjbATSpTFriq0BJmU/FhbYkQAJ5JnDeGafjyx+/BvwPIs+F4PQkQAIkQAJSBP6y8yV89Ye38SISKVo0IoHsEZgJBjAT8KtO0K9Ba9nW06W6bUt1HtoXAAG+PimAIuZoCVrLug3/pmna/1aZT+y+Kq9rgsZeWCrYaEsCeSXw4UsuwEcvX5/XHDg5CZAACZAACcgSeOG13fjs13/AncOywGhHAlkgoOs6Jof7IXZhqQxd1/9j++aN/whAXI7NQQKLEqCAxQdEmsDb268pn9HDT2saTpZ2AuAq8aC0QjR0V/GiLQmQQL4IfPljV+PCd56Vr+k5LwmQAAmQAAkoEXirfxCf/OdvIzTDW3SVwNGYBDJFQAem/aOIzIQUI2q73HC94+meOycVHWlepAQoKRRp4VNd9unrOj9g0/T7ANhlY4jdV97qOtidLlkX2pEACeSRwA++8vdYs3plHjPg1CRAAiRAAiQgT2DUP4m//cp/IhCclneiJQmQQMYIxCMRTI0Pqx7jjSd07fIdm7seyFgiDFTwBChgFXyJM7vAtZdeWpqIljyha/oZKpEdrhJ4q2tVXGhLAiSQJwIPfP9f4WMz3DzR57QkQAIkQAKqBCLRGD70pX/CuD+g6kp7EiCBDBCYGhtBLDKjFEnTsdXmDL9r64MPUnlWIlfcxhSwirv+Ka2+rb1zja7rT0ODVyVAaUU1XB7eEKPCjLYkkGsCVeU+3Pedf8r1tJyPBEiABEiABNIicOO/fhcvvL47rRh0JgESUCcQCQUx7R9Xc9QxZbPbz37uoXt2qTnSutgJUMAq9icgxfW3tm/4IaB9SsXd7nDCW1PPhu4q0GhLAjkm0HLScfjOP9yY41k5HQmQAAmQAAmkR+B7d96H+37/RHpB6E0CJKBEQDRunxodQjwWVfKDhh/2bur+tJoTrUmAbbX5DKRIoGX9ZSdqum0boCltqfL4KuAu86U4K91IgASyTeDid52DL1x/RbanYXwSIAESIAESyCiBh554Ct/4+T0ZjclgJEACixMIBwMIBfyKmPRp2NHa+9uNryo60pwEeC8cn4HUCbSu6/g72PA96LCpRPHVNsLucKi40JYESCBHBD5xxQfwoXXvydFsnIYESIAESIAEMkPg1bf24YavfjMzwRiFBEggKYF4LIbAyEBSu0MMNCQSun7jjp6NP1JzpDUJzBLgEUI+CSkTOP3Ca8s0e+hJDThNJYizxIOyyhoVF9qSAAnkgID4D+GfPvMR/FWb0j/pHGTGKUiABEiABEhgcQKxeBzrP/UPiMbiREUCJJADAsGJUURnQqoz7UjEPe/c8cgvg6qOtCcBClh8BtIm0LZuw1W6TbtDdReWELCEkMVBAiRgHgIOhx3f+uKncdoJq8yTFDMhARIgARIgAUkCV33pnzEwMiZpTTMSIIFUCQjhSghYSkNDQkvgmm2bu3+l5EdjElhAgDuw+DikR+Dmm22tT79wHzT8tUogzWaDr6YeNjuPEqpwoy0JZJOAx+3CD7/yWaxc0pjNaRibBEiABEiABLJC4DP/dgt2vvZmVmIzKAmQwCyBRDyGwOgQ9ERCEYn+696zT92Ar31N1VFxHpoXMgEKWIVc3RytrW39hjN1XXscgFJDd1dpGUrLq3KUJachARJIRsBX6sH/++d/QG1VRTJTfp8ESIAESIAETEfgqz+6DY8/s910eTEhEigkAtOT44hMK58AnNY0/d3bNm18tpBYcC25J0ABK/fMC3FGra294y4d+JDq4sqqauF0l6i60Z4ESCALBKrKfbjr619BicuVhegMSQIkQAIkQALZJfCjex7AvQ8/lt1JGJ0EiphANBxCcFzx6KDgpePu3s3dVxcxOi49QwQoYGUIZLGHWfv+zoq4U38OwGoVFnaHE96aemgaH0UVbrQlgWwQOGHFUtx68+ezEZoxSYAESIAESCDrBDY++gd8/677sz4PJyCBYiSg6zqmRocQj0VVl/+GPaqdsfXRLr+qI+1J4HACVA34TGSMQGv7ho8D2q2qAd1lPnh8PLKkyo32JJBpAuvf9Q588forMx2W8UiABEiABEggJwT+sHUHbv7Bz3MyFychgWIjEAr4EQ4GUli2fkNvz8afpuBIFxI4ggAFLD4UGSOwdu1aZ6J+9aM69HepBvVW18Hhcqu60Z4ESCCDBD5zzeW4/H3nZTAiQ5EACZAACZBA7gi88Npu3Phv383dhJyJBIqEQCwSxtTYcCqrfdw+9OYFW7duVd62lcpk9Cl8AhSwCr/GOV3h2ks6l8fi+tMaoHSNmcPphhCxwCcyp/XiZCSwkMAtX/4MTjtB6RQwAZIACZAACZCAaQgMjU3gyi98zTT5MBESKAgCOjA1NoRYNKK6nH67XXvH1t92vaXqSHsSOBYBygV8NjJOoHVdx83Q8FXVwCXecogPDhIggdwTEH3oen70H3CzgXvu4XNGEiABEiCBjBAQPXrWfeJLiMRiGYnHICRAAsDM1KTxoTx0fLV3czcVZWVwdFiMAAUsPh8ZJ3BOZ6cnFNA3QcP5KsHFC2jR0F00ducgARLILYGainJ0f5u/Y+SWOmcjARIgARLINIFP/8t38OIbezIdlvFIoCgJiIbtonG7EIeVhq49VjlTtn7LlttmlPxoTAJJCFDA4iOSFQKt6y4/C5rtcQAelQmc7hKUVdYAvJVQBRttSSBtAietXIYf/9/PpR2HAUiABEiABEggnwS++Yt78dvHn8xnCpybBAqDgK4jODGKaFhZg5rWNP3d2zZtfLYwQHAVZiJAActM1SioXG62tax/8b80XVd+RSxuJBQ3E3KQAAnkjsA7W0/Fv9700dxNyJlIgARIgARIIAsEfvPYn/CdX3ZnITJDkkBxEZgJBjAT8CsvWge+ub3nlC8BX0soO9OBBJIQoIDFRyRrBNZ0drpcU4k/AtpZKpPY7HbjKKHNZldxoy0JkEAaBP76vefif324I40IdCUBEiABEiCB/BN4Zc9efOJr38p/IsyABCxMIJGIG0cHE/G44ir0Z+xDNedu3Xorbx1UJEdzOQIUsOQ40SpFAq0XdV4Mu/4AdNhUQhhHCatqVVxoSwIkkAaBGzovwVXt70sjAl1JgARIgARIIP8ExicDuOpL/4JwRPnGtPwnzwxIwCQEguMjqRwdTEC3Xdq7+d5NJlkG0yhAAhSwCrCoZlpSZ2en/ZWpxHc0aDeq5lVaUQ2Xp1TVjfYkQAIpEPg/N3wY73/H2hQ86UICJEACJEAC5iEQCE7/f/buBEqK6twD+P9Wb9Pds7MLKJuyM4yjoIkxPBdgcIkCHTSJS5IXNcaYaFyjhmCMGjWbxiVmM5qo2AjPjQHUSIxxw3HYdxEVBGH2pXt6q/tOjcZn8kSmtu7q6n+d4+G9c+733e/+bkN6vqm6ha/fcBuaWvU/+uScVbASCuROIBmPIdbWrLsACfmbI4qV70ejUb23bemeiwGFK8AGVuHufdZWXnNSpCzjk6sAHK5nUsXrRUmf/hBC181beqbgWApQ4COBX1x5MarH6vorSjsKUIACFKCA4wTiiQS+/ZNf4p33P3BcbSyIAk4XkFJFR6P26GBaZ6lyqyelTKl/LsrOsU45DtcnwAaWPi+ONihQPXPuWVLgEb3hvkAQ4Yo+esM4ngIU0Cnw4M3XYujA/jqjOJwCFKAABSjgLIFUOoPLb7sb67e/7azCWA0F8kCgq0V762Bcd6UKxFlv1kUX6g5kAAV0CrCBpROMww0LiKpZc/4spDhHVwYhEC7vA+1MLF4UoIA9AooisPSenyHg99kzAbNSgAIUoAAFsiQgJTD/nj/hH/VrszQjp6GAOwRSiW50tTYB2l8ifdeDq+sWnQ9Ad6C+aTiaAgAbWPwUZE3gyBmRUaoiXwdQoWdS7VHC0j4DAMGPqx43jqVAbwWGDOiHh275YW+HcxwFKEABClDA0QK/jT6FR+v+5ugaWRwFHCUgJdqbPoCa1vvoIJo98Eypr1v4lqPWw2JcK8COgGu31pELE5NnRs6DkH/SW10gVIxgabneMI6nAAV6IfDFo6rw44u1X5zxogAFKEABCuS/wFMrX8YvHozm/0K4AgpkSSDe3oJErEv/bFKev3rZ4w/y7iv9dIwwJsAGljE3RpkQqKqNPCkgT9OTQmiPElb2g9fn1xPGsRSgQC8Ezj9jJs47fUYvRnIIBShAAQpQwPkCDVu24/Kf3e38QlkhBRwgkE4l0dW8H1Lno4MS4qk1ddHTHbAEllBAAmxgFdBmO2Wp1TPmVUkls1pvPVoTq6TfQCiKR28ox1OAAp8hcOtl38LUieNoRAEKUIACFHCFQGtnF8689HpXrIWLoICdAqqaQcf+vbqbV1pNQvVMbli+cI2d9TE3Bf5TgA0sfiZyIjC5du73BXCHBHR1o/zBEEJllTmpmZNSwI0CHo+Ch392A/pX8hFdN+4v10QBClCgUAXO/P4NaG3vLNTlc90U6JVArK0ZyXisV2P/NUgAGSnED1Yvjf5aVyAHU8ACATawLEBkCv0Cx0YiwXinfAHAVL3R4bIK+IJhvWEcTwEKfIpAWXEYf775Wmh/8qIABShAAQq4ReA7N/8aG7fvdMtyuA4KWC6QjHch1taiO6+EeDXUihNeeSUa1x3MAAqYFGADyyQgw40LVM+MHCuF+iIgvHqyCEVBcWU/eLw+PWEcSwEKfIrAoH598LsfX4FwsIg+FKAABShAAdcI3Pz7v+LZl99wzXq4EApYKZBJp9DZpJ17pepMK9NCKsc3LIu+ojOQwylgiQAbWJYwMolRgarauTcKgesgoejJ4fUHEK7oC+1cLF4UoIBxgcMPG4K7rr0UAT8bwsYVGUkBClCAAk4TeHjpc/jdomecVhbroUDOBbTD2rtaGpFOJvTVIqBKqf50Td3iH+kL5GgKWCfAn/6ts2QmAwLjZ0QqfYpcC2Cw3vBAqBjBUp7bo9eN4ynwSYGa8aNx22UXQlH4Pwf8ZFCAAhSggHsEXl69Htfd+Qf3LIgroYBFAvH2ViRihs6H25VR/JPWPfOw/ucOLaqdaSjAn1j4Gci5QPWMM6uk8DwPgT56ihFC6bkLy+v36wnjWApQ4BMCs44/BleeP48mFKAABShAAVcJrNu2A5ffdg/SmYyr1sXFUMCMQDqZ7Ln7Sv+jg2gUauakhuVL+NZBMxvAWNMCbGCZJmQCKwQmz5xzJYS4TW8u7Tyskr4DoSi6nkDUOw3HU8C1Av8951R89ZQTXbs+LowCFKAABQpTYMeu9/Gdm36N7mSyMAG4agr8h4Cqquho3Aup6j33CoCUV61e9vjtRKVArgXYwMr1DnD+HoFJ088JK574YgDT9ZL4g2GEyir0hnE8BSgAYP63z8O0oyfTggIUoAAFKOAqgX3Nrfjmj25DZ4wvSnPVxnIxhgW0Nw5qbx40cK1QM+2z165YYSjYwHwMocABBdjA4ofDMQLVtZF+ElJ7XcyheosKl/WBLxjUG8bxFCh4gT/85CqMGDyo4B0IQAEKUIAC7hJIJJP4ytU3obmtw10L42ooYEAgFY+hq63ZQCTeERBHN9RF9xsJZgwFrBZgA8tqUeYzJXBkbWSeCvmo3iTaeVglffpD8Xr1hnI8BQpWwKMoWP7b2+Hx8BHcgv0QcOEUoAAFXCxw0Y2/wJad77l4hVwaBQ4uoKbT6GjaZ+TcK0iIs9bURRcefBaOoEB2BNjAyo4zZ9EhUFU7904BXAJA1+fTGyhCuLwPhNAVpqMyDqWAuwSGDOiHh275obsWxdVQgAIUoAAFPhK45Q8PY8U/V9GDAgUrIKVEV2sT0oluvQZSCty1Zumi7+kN5HgK2CnAn/Tt1GVuQwLao4QA6iXkUL0JisIlKCop0xvG8RQoSIGjJozG7ZdfVJBr56IpQAEKUMD9Ao+tWIl7H33C/QvlCilwAIF4RxsSXfofoxUQ7yle7/UIRAkAACAASURBVJH1Tz3SSFwKOEmADSwn7QZr+Vig+tQzq2TG8yKAUj0s2qOExX36weP16QnjWAoUpMAZJ34B3/vq7IJcOxdNAQpQgALuF1i//W189+Y73b9QrpACnyKQSafQ2bTfyKOD7YqUX3hz2eNrCUsBpwmwgeW0HWE9HwtMnjX3WkjcrJdEUTwo7tsf2p+8KECBAwtcdm4Ep0/7HIkoQAEKUIACrhRIptOY9e2rkcmorlwfF0WBAwmoagadjfug/an7Evjh6qWLbtEdxwAKZEGADawsIHMKYwKjamsDYRH+u5CYqjeDPxhGqKxCbxjHU6BgBBRF4NbLLsTR40cXzJq5UApQgAIUKDyBOZfNR3Nbe+EtnCsuaIFYWwuS8S7dBhLy1S7Epm2vq0voDmYABbIgwAZWFpA5hXGBSbWzh3jgeVn/eVgC4bIK+IIh45MzkgIuFvB5vfjVNZdg3IjDXLxKLo0CFKAABQpd4IIFP8e2d3YVOgPXX0ACqXgMXW0tAKSuVUvI9yTk59bWLeZfGF1yHJxNATawsqnNuQwJVM2a+3VF4ncS0PVM4IfnYfWHx+s1NC+DKOBmgWBRAPfecBkOGzTAzcvk2ihAAQpQoMAFrrvrD3i5YX2BK3D5hSKQSafR2fQBtLcP6rkEkFEFvrVm6aI/6YnjWApkW4ANrGyLcz79AvPnK9Wvr/+1hLhEb7A3EEBxeT+An3S9dBzvcoHScAgP/PQaVJSWuHylXB4FKEABChSywG8eWYLHn9XeC8SLAi4XkEBn636kE/qf/hPAXQ1Txn8fCxbwwDiXf0zyfXn8sT7fd7BA6q+ZMXtQRlFeAjBC75ID4RIES8r0hnE8BVwt0K+yHI/87Hp4PLpubHS1CRdHAQpQgALuE1i4/AXct/BJ9y2MK6LAfwjEO9qQ6Oow4CLe8qiZL9QvX7zHQDBDKJBVATawssrNycwITDhp3livL9MAIKArjxAorugLr19fmK45OJgCeSZQNXokfnW17psa82yVLJcCFKAABQpdYMUrb+CW3/210Bm4fpcLpJMJdLY0AvofHexOpTxHrn9u4SaXE3F5LhFgA8slG1koy6iqnXuDAG7Uu16hNbEq+8Hj8+sN5XgKuFLg9BM+j8u+NteVa+OiKEABClCAAv8SeHPzNvzgtnsIQgHXCmRSSXQ279d97pUGIiVuWLNs0U2uxeHCXCfABpbrttTdCxoXifgDnXKVBCbpXanWvCqp1M7D4sderx3Hu0/gB+fPw6nHH+O+hXFFFKAABShAgU8IvL+/CV+9mj+f80PhUgEp0dG8H1oTS/cl5JpkWJmyMRo1EKx7NgZQwBIB/iRvCSOTZFNg8swzhkF4/wFgiN55fYEihMr7QLsjixcFClngjz+5GsMHDyxkAq6dAhSgAAUKQCCTyWDmt69GOp0pgNVyiYUkoL1pMNbahFSi28iydwmhHtewdPE7RoIZQ4FcCfCn+FzJc15TAkfOnHuhKnA3AN0nUAdLyxEIFZuan8EUyGcBn9eL5b+9jY3cfN5E1k4BClCAAr0WOOe6W7Brz75ej+dACuSDQCLWgXh7m5FSM4rEd95ctui3RoIZQ4FcCrCBlUt9zm1cYP58per1DXcL4CLdSbTzsMr7wBso0h3KAAq4QUB7A+Fjd8x3w1K4BgpQgAIUoMBBBebf+wBeXLXmoOM4gAL5IpBOdKOztUn3oe0frk/cu3rKuEuwYIGaL+tlnRT4lwAbWPws5K3A0bMiA1NSPg9gnN5FKB4Piiv7Q/uTFwUKTWDMiMNw7/XfL7Rlc70UoAAFKFCgAo8s+xvuf+ypAl09l+02ATWTQWfzPmh/Grg2+oQ4cdXS6F4DsQyhQM4F2MDK+RawADMCE048e4DXl9oAgT568yheH0r69OdjVHrhOD7vBb54dBV+/O3z834dXAAFKEABClCgNwLrt+/Ed2/+dW+GcgwFHC2gnXvV0bQPajqlv06JpnTKN3798498oD+YERRwhgAbWM7YB1ZhQqB61pyzpRQPG0mhnYWlnYnFiwKFJHBW7Qm4MHJaIS2Za6UABShAgQIWaGprx1lX3siD3Av4M+CWpcfbW5GIdRpajpDyKw3LHn/EUDCDKOAQATawHLIRLMOcQFXt3FsF8AMAXr2ZQmUV8AfDesM4ngJ5K3DxWWcgMv2LeVs/C6cABShAAQroEWjr7MK5P7wF7Z1desI4lgKOEkjGuxBrazFSU1oKeceapY9faySYMRRwkgAbWE7aDdZiWGBUbW2gRBY/LYU8SW8SoR3qXtkPHp9fbyjHUyAvBa678BycNPXIvKydRVOAAhSgAAX0CsS6u3HBj3+O3fsa9YZyPAUcIZBJJdHZvB/aI4S6Lyme6xSdp26vq0vojmUABRwmwAaWwzaE5RgXmDD9S0O9Ht8yQ4e6e30orujLQ92N8zMyjwR+dc0lqDpiZB5VzFIpQAEKUIACxgWS6TS+f+tvsGnHO8aTMJICORLoObS9pdHYuVfARhXqjLV1i3flqHxOSwFLBdjAspSTyXItUDUjMkUo8m8AdD8T6PUHEK7oy0Pdc72JnN92gYV3/Aj9Kytsn4cTUIACFKAABZwgoN2zcu2v7sdrazc5oRzWQIFeC2h3XHW1NCKdNHTzVBek579WL1u4qtcTciAFHC7ABpbDN4jl6RSYP1+pfn3D1yTwJwCKzmgEwiUIlpTpDeN4CuSNgMfjwYrf3gZF0f3XI2/WyEIpQAEKUIAC/ynw8wejeHrly4ShQF4JxDvakOjqMFKzKoQ4v+HocX/FggWqkQSMoYATBdjAcuKusCbTAtW1kbsk5CVGEoXLK+ErChkJZQwFHC8w9JABePCmaxxfJwukAAUoQAEKWCnw6PIX8NuFT1qZkrkoYKtAsjuGWGuzoTkkcNeaukWXGgpmEAUcLMAGloM3h6UZF5g0fXpY8Za8Cikm6M0iFAUlfQfyDhW9cByfFwLTplZj/oXn5kWtLJICFKAABShglcAr6zbhh7+836p0zEMBWwVUVUVH415I1cDNU0KuV9Mdx6xdsYKv3bR1l5g8FwJsYOVCnXNmRWBS7VeHKOj+ByCG6Z1Q0Q51r+wLRfHoDeV4Cjha4NtnfQlfnj7N0TWyOApQgAIUoIDVAo2tbZhz2Xwogj/+WG3LfNYKqGoGnc1GD22XO1XIL/DQdmv3hNmcI8B/wZ2zF6zEBoHJM+fMghBLAPj1pvcHwwiV8aBrvW4c72yBe264DGOHH+rsIlkdBShAAQpQwAaB6RdeiVQqbUNmpqSAdQKxthYk44ZunkoK4IyGukV11lXDTBRwlgAbWM7aD1Zjg8CkWXMuVaT4BQDdt1MVFZdC+48XBdwgoB3grr2BsE8ZP9Nu2E+ugQIUoAAF9Amcd/2tePf9D/QFcTQFsijQ3dkO7T8DV0YV8vK1Sx+/00AsQyiQNwJsYOXNVrFQowLTpp1f1FrUuRACp+vNIYRASDvUPRDUG8rxFHCcQGlxGA/efC3KisOOq40FUYACFKAABewWuOHuP+Gl+rV2T8P8FDAkkErEew5tl1Lqj5d4orW7+KydKx/o1h/MCArkjwAbWPmzV6zUhMCo2tpAsQi/CIkputMIgXB5H/gCRbpDGUABJwkMHtAX98//AUJF/Cw7aV9YCwUoQAEKZEfgT08sw4NPLM/OZJyFAjoEUoludLU2AcaaV693iq7jt9fVJXRMyaEUyEsBNrDycttYtBGB6llzjpJSeR6Qup+fUjxeFFf0gXa4Oy8K5KvA2BGH4dfXXAKf15uvS2DdFKAABShAAcMCL6xqwI33Pmg4noEUsEMgk06hq6UJasbI+WyiXQj1xIalj79hR23MSQGnCbCB5bQdYT22ChxZGzlBhVwKIKB3IqF4UNKnPxSP7qO09E7F8RSwReCoCaNx++UX2ZKbSSlAAQpQgAJOF6jfuBVX/eK3UFXV6aWyvgIRUDMZdDTtg1QzRlac8ChKbf0zj71gJJgxFMhHATaw8nHXWLNhgUgk4tnWKW8GcJWRJF5/AMUVfQG+gtkIH2NyLDDr+GNw5fnzclwFp6cABShAAQrkRmDLzvdw6S13IZlK5aYAzkqBTwpIic6WRqSThp/8u+3wYvHDaDRqqPvFzaBAPgqwgZWPu8aazQlEIp7JnfJ/AJwCQPffAX9REKGySjaxzO0Co3Mg8K3IafhK7Qk5mJlTUoACFKAABXIvsKexGd+afzu64jznOve7UeAVSIlYWzOS3XEjEFJAPN1QjDPB5pURP8bksYDuH97zeK0snQIfC1SdGhmspNU1Uog+RlgC4RIES8qMhDKGAjkT+On3/hufqxqfs/k5MQUoQAEKUCCXAvFEAl/+wQJ0xgw1DXJZOud2mUC8ow2Jrg6jq2qUHjF5zdPR3UYTMI4C+SrABla+7hzrNi0w+eTIZOlVnxQQQ40kC5aWIxAqNhLKGApkXSCdyWDxr25Ev4ryrM/NCSlAAQpQgAJOEfjylTdif1OLU8phHQUokIh1It7eamjlEvI9RVVPa1i+ZI2hBAyiQJ4LsIGV5xvI8s0JTJw190seiSgAQ68XLO7TH16f31wRjKZANgSEwAt/+EU2ZuIcFKAABShAAccKXP3r+/H6mk2OrY+FuVsgnUyis3mf0UWmVEXMXftM9EmjCRhHgXwXYAMr33eQ9ZsVEJNr534FwB+MvZlQ6TnU3cMmltl9YLzNAocM6Iu/3nKdzbMwPQUoQAEKUMDZAn96YhkefGK5s4tkda4UyKS05lUjpDT0FswEhPjG6qXRRwBIVwJxURTohQAbWL1A4hCXC2iHuneot0CIK4wc6q54vCiu7AvtT14UcKrAMZPH4ZZLv+XU8lgXBShAAQpQICsCb2zciituvweCb5TOijcn+VBAzaR7mlfanwYurWF1++pi8UMe2m5AjyGuEmADy1XbycUYFZg2bZq3Jdj3LgFcZCSHdgdWcWU/fhkygseYrAicfcpJuGCO9uJNXhSgAAUoQIHCFUim0/ivb1wGv5e/eCzcT0F2Vy6lRGfzfmh3YBm75L3l8aZLV65caaj7ZWxORlHAmQJsYDlzX1hVDgTGnHhmnyK/ZxGAaUam9xUFESqtgFAUI+GMoYBtAtoXp+suPAcnH1Nj2xxMTAEKUIACFMgXgdqLr0F3dyJfymWdeSwgVRWx9hakug2/+XJlShVzNiyPNucxA0ungGUCbGBZRslEbhCYNm2+tyW44U0BTDSyHu2thNrbCXlRwEkC2mMSt152AaZMGOOkslgLBShAAQpQICcC5153C97bY/gg7ZzUzEnzU0B726D21kGD19ry+PialSsX8M4rg4AMc58AG1ju21OuyKTAUafMm5CWmX9AwkAnSqCouARFxaUmq2A4BawT8Pm8+NXVl2DciMOsS8pMFKAABShAgTwVuPKXv8Ub6zbnafUsO18Eujva0d3VYezMdYFWNe35wtoVC9fny3pZJwWyIcAGVjaUOUfeCUycfkaNR/Euh0Af3cULgXBZBXxFId2hDKCAHQLBogDu//EPMKR/PzvSMycFKEABClAgrwRu//NCLP37q3lVM4vNL4FkdwyxthZAGnhhoESTKtXpa5cvfjO/Vs1qKWC/ABtY9htzhvwUEFW1kS8LyEeNlK89shWu6AuvP2AknDEUsFQgEPBj0S9+jOJg0NK8TEYBClCAAhTIR4E//s8yPPTk8nwsnTXngUA6mUBnS6Ox5lXP/VrirDV10ceM3bqVB0AskQImBNjAMoHHUPcLVM2KXC6k/BkA3a+qUTyenjcTKh7doe6H5QqzKlBcHMKTd/4U/Ac/q+ycjAIUoAAFHCrw5N9fxi//HHVodSwrnwXUTLrnjYNqJmNkGWkplKvWLH3sl0aCGUOBQhDgzzOFsMtco2GB+fPnK0+8vuFBCJwNCd2vF1QUBcV9BkBrZvGiQK4Exo8ejt9cfWmupue8FKAABShAAUcJvLpuE6795f2OqonF5L+A1rTqbPoAqqoaWYwqBR4+4+jx5y1YsMBQAiOTMoYC+SbABla+7RjrzbrAuEjE7+9QH4IQXzYyucfnR3FlXwihu/9lZDrGUOD/Ccye8UV8d94ZlKEABShAAQpQAMC7e/fhK1f9BD4v75LnB8IaASlVdDY3IpNKGkooIBcmipVzN0ajxhIYmpVBFMg/ATaw8m/PWHEOBCZNP7O/4vFohyVMNjK9x+tDuLIvFIV3YhnxY4xxAVWVuPG7X8cXa6qMJ2EkBShAAQpQwEUCqXQax55zCUp4NqSLdjV3S1HVDLq05lU6ZbSI1WomM2PtiiX7jCZgHAUKRYANrELZaa7TtMCHTSzlZUCMNJLM6/cjXNEP2gHvvCiQLYFYIoFn778DpWG+FTNb5pyHAhSgAAWcL3DKd3+IWFfc+YWyQkcLSCnR1bIf6aThG6e2q5nM59m8cvQ2szgHCfAnaQdtBktxvkD1zMixqpCLBTDQSLW+QBFC5X3YxDKCxxhDAkJR8Lff/9xQLIMoQAEKUIACbhW47Of3YPWGbW5dHteVBQGteRVrbUIq0W1oNgnsVaSY3bAs+oqhBAyiQAEKsIFVgJvOJZsTqJ4x+yRVUZ4SQJGRTD5/EUIVbGIZsWOMfoF+fcrx2O3z9QcyggIUoAAFKOBigd//Tx3+8sQK8MZ4F2+yjUvraV61NCGVNNa8AhAXEqc1LFv0vI1lMjUFXCfABpbrtpQLslsgEol4tsXE16Cqvwdg6PRPf1EIofJKu0tlfgpgwhEjcNc136UEBShAAQpQgAKfEHhz0zZceutd8PFN0fxcGBCItTYj2R0zENkTklaBb44uFn+NRqMZo0kYR4FCFGADqxB3nWu2RKB61tyfSInrjSbzh8IIlpTzcUKjgIzrlcBRE8fge1+d3auxHEQBClCAAhQoFIHmtg5cfNOv2MAqlA23aJ3anVfx9lYk412GMwqJmxqWLbrBcAIGUqCABdjAKuDN59LNCdRccIEv827zryBwsdFMgXBxTxOLFwXsEtiyeze6jR8saldZzEsBClCAAhTIsYDAiIED+CbCHO9Cvk0f72hFoqvTeNkSd3sOrbys/v77Db+y0PjkjKRA/guwgZX/e8gV5FBgVG1toBjh+wGca7SMQLgEwZJSAPzraNSQcQcWeH3LVmhvIuRFAQpQgAIUoMD/CWjfuiYOH4bKkhKyUKAXAhLxjnYkujp6MfaAQx7sRNcF2+vq+MXMjCJjC1qAPzEX9PZz8ZYISCkmz4o8DuAMo12oYGkZAiF+gbJkP5jk3wT+sX4DMqpKFQpQgAIUoAAF/kPg8MGHYHCfPnShwEEFErEOxNvbDjruAAOkEFjS8Ex0LoSQRpMwjgIU4C0f/AxQwBKBiad8pcKTST0GIU8ymjBYUgbtbixeFLBKIJFM4pXNW6xKxzwUoAAFKEABVwlozSuticWLAp8loN11Fe8w3LzSfr/9bEbxzVv3zMMtlKYABcwJ8A4sc36MpsDHAjU1F/gy/ZufAXCyUZZQWQX8wbDRcMZR4N8EGtvasP6dd6lCAQpQgAIUoMCnCFQUF6NqxHDaUOCAAtph7bE2U32nZz37Kk+pr+eZV/yYUcAKATawrFBkDgp8JKDdieWVyZelxBhDKEIgXFoJXzBoKJxBFPikwI49e/Hu/v1EoQAFKEABClDgUwT8Ph8+N9bYVzaCul8gFY+hq70FkEaf+pObMkrg87zzyv2fFa4wewJsYGXPmjMViEB1baSfFPJpSEwxsmQhBIKl2p1YISPhjKHAxwJrdryNlk4Tb8qhJQUoQAEKUMDlAseNHwevx+PyVXJ5egWS8Rji7S2QRptXAq97PL5T6p96pFHv3BxPAQocWIANLH46KGCDwJQzz+yT7FZeA8RII+m1JlZxZT94fH4j4YyhQM8Xrlc2bUYynaYGBShAAQpQgAIHEDhy1EiUhvhLQ35A/k8gk0qis3m/8eYV5Fv+InXq60uWNNGVAhSwVoANLGs9mY0CHwtUzTrzCEjP8wIYYoRFa2KFyvvAFygyEs6YAhdIpdN4fctWpDKZApfg8ilAAQpQgAIHFhg9ZAgGVVaQiAI9AqlEN2KtTYabVxLYBZE5cc3SJVtJSgEKWC/ABpb1psxIgY8FJs88axhE+lkAo4ywCEVBuKIvvLwTywhfQcfEEgnUb9uOjKoWtAMXTwEKUIACFPgsgaH9+mLkoEFEogDSqSS6WhohjX53EtgmoJ7csHTxO+SkAAXsEWADyx5XZqXAxwI1syITM1K+AcDQ84BCKAhXsonFj5Q+gfZYDKvf2gHV6NkN+qbjaApQgAIUoEBeCvQpLcXEYYflZe0s2jqBnuZVcyOkNPyLv2RGiKPWLY2us64qZqIABf5TgA0sfiYokAWBiadEajyqfALAYCPTaXdihcoq+TihEbwCjWlqb8e6nfwFYIFuP5dNAQpQgAK9FCgLh1A1YgQUwR+LeknmumE9jw22NRu/8wrYncmIL61bEa13HQ4XRAGHCfBfaodtCMtxr0DVzMhxQshlAMJGVsmD3Y2oFW7MrsZGbH9/T+ECcOUUoAAFKECBXgiEAgHUHD4KHkXpxWgOcZuA+QPb0SVlZuaaZUtecpsN10MBJwqwgeXEXWFNrhWoqp07XQBLABh63Y3WxAqWVsAfNBTuWlcu7P8LbN29G+83NZOGAhSgAAUoQIHPEPB7vTh69BHweTx0KjCBZDyGeHuL4QPbAcQkcOaaukUrCoyOy6VAzgTYwMoZPScuVIGqmXNnC4HfAzD0ypuetxOWVsIXDBYqIdfdCwHt/KvWrq5ejOQQClCAAhSgQOEKaN+rjhkzGgGfr3ARCnDlqXgMMXPNqxYp1W+uWbZY+8U0LwpQIEsCbGBlCZrTUOCTAtUz55wthXjYsEpPE6sc/qChpxENT8vA/BF4eeMmJNPp/CmYlVKAAhSgAAVyJDB55AiUh/mdKkf8WZ82Ge9CrL0VMPGiG1Xi7LXLFj2a9eI5IQUKXIANrAL/AHD5uROomjX360LFnRAoNlpFsKQMgXCJ0XDGuVQglU7jnxs3uXR1XBYFKEABClDAWoGRgwZhaL++1iZlNkcKJLo6EO9oM16bRCegfnf1ssUPGE/CSApQwKgAG1hG5RhHAfMCYvKM2VdCET8FhNdoumBpGQIhrQfGv85GDd0W19bVhYa3drhtWVwPBShAAQpQwBaB/mVlGHfYobbkZlKnCEgkYp2It5toXgEpSHnd6mWP3wFAOmVlrIMChSTAn3gLabe5VucJzJ+vTFq1/hJF4udmmljaXVja3Vi8KKAJ7GluxpZdu4lBAQpQgAIUoEAvBIr8PhwzZkwvRnJIvgpod11pd1+ZuFKqkFesPXrCb7BggWoiD0MpQAETAmxgmcBjKAUsEZg/X5n86rorIJQbzDxOGAgXo6i4DNphpLwKW2D7+3uwq7GxsBG4egpQgAIUoIAOgS9MGA+PouiI4NB8EJBSortTa151Gi+357FBeePqqRN+zuaVcUZGUsAKAf6ka4Uic1DAvIComjX3fCHxRzOptEPdQ2WGXm5oZlrGOkxg3c6daGo39VtGh62I5VCAAhSgAAXsFZgy+giEAgF7J2H2rAvE2lqgHdpu5pIC31izdJF25hUfGzQDyVgKWCDABpYFiExBAasEqmfNOVtKcTcAw10of1EIwbIK3oll1abkWR5VSqx+awfaY7E8q5zlUoACFKAABXInMGn4MFSW8MU4udsBa2fW7ryKa82rblPfh1qElN9pWPb4I9ZWx2wUoIBRATawjMoxjgI2CVTNnH2mEMpfAISMTuHzFyFU0YdNLKOAeRyXUVXUb9uOWCKRx6tg6RSgAAUoQIHsCoweMhiDKiuzOylns0VAa17FWpqQSnabyR+TUv3ammWLl5hJwlgKUMBaATawrPVkNgpYIlBVO3e6ABYDCBtN6AsUIVTOJpZRv3yNS2UyeH3LVqTS6XxdAuumAAUoQAEKZF1g2ID+GDZgQNbn5YTWCmjNq67WJqQTpppXXRKYvaZu0Qprq2M2ClDArAAbWGYFGU8BmwSqZp55nBCeRwEMNjqF1+/vaWIpisdoCsblmUAilcKrm7dA+wLHiwIUoAAFKECB3gkMrKjAmKFDejeYoxwpoKoZxLTmVTJppr7dUmbOWrNsyUtmkjCWAhSwR4ANLHtcmZUClghMPCVS41HlywD8RhN6vD4U9+kHIfhmHaOG+RTX2tmJ1TvezqeSWSsFKEABClAg5wIVxcWoGjE853WwAGMCUqrobNqPTDplLMGHUclMRnxu3YpovZkkjKUABewTYAPLPltmpoAlAjWzIhMzUmqPE44ymtDj8yOs3Ynl4Z1YRg3zJe7d/fuxY8/efCmXdVKAAhSgAAUcIRAM+DF19GhH1MIi9AmomUzPY4OZlIk7rwS2ZSDmrFsaXadvdo6mAAWyKcAGVja1ORcFDApUz5p9mCqVlwRg+N52RVFQ3Kc/FI/XYBUMyweBDe+8i/1tbflQKmukAAUoQAEKOEZAEQLHT5zgmHpYSO8E1EwanU37oKpq7wI+ZZQEdilCPa5h6eJ3DCdhIAUokBUBNrCywsxJKGBeoGrWmUcIqSwFxEij2bQ7sEJllfD6A0ZTMM7hAq9u2ozulKnb5x2+QpZHAQpQgAIUsEdAuwNLuxOLV34IpJMJxNqaod2BZfySb8GD2tVPP77NeA5GUoAC2RJgAytb0pyHAhYITDnzzD7JhGcpJKYYTicEQmUV8BeFDKdgoDMFMqqKf6zf4MziWBUFKEABClDA4QJjDx2KAeXlDq+S5WkCye4YYm0tgJmX1ki87g9mZr2+ZEkTVSlAgfwQYAMrP/aJVVLgY4Hq2kg/CPmilBhjmEUIFIVLUFRcajgFA50n0NWdwKqtW51XGCuiAAUoQAEK5IHAkL59MeqQQXlQaWGX2N3Rju5Yh7nmFeQmj9d/fP1ThcX3AAAAIABJREFUjzQWtiZXT4H8EmADK7/2i9VSoEdg4ilfqfCoyYUATjZOIhAIhXuaWELhGwqNOzonsrmjA2vf3umcglgJBShAAQpQII8EysIhVI80fFJDHq00P0uVqoruznYkYl0ApJlFPJtR/PPWPfNwi5kkjKUABbIvwAZW9s05IwUsEaipucCX6deyFEKeCMDw32VfUbDnXCwhDKewZD1MYl5gT3MztuzabT4RM1CAAhSgAAUKUMDv9eKYsWOgHejOy1kCUsqe865S3XEzhUlAPOfZV3FKff39PDDUjCRjKZAjAf7rnCN4TksBKwQ+uhPrDwDONJPP4/MjXF7JNxSaQXRA7M4PPsDOD/Y5oBKWQAEKUIACFMg/Aa/Hgymjj4DWyOLlHAHtTYNdrc3IpJKmihICi9PC/9+888oUI4MpkFMBNrByys/JKWCBgJRi8qzIAwDONZNN8Xh7mlhaM4tXfgpsfm8X9rbwbvj83D1WTQEKUIACuRbwKAqOHDUK4SK+rTnXe/Gv+bWmlda80ppYJq8HVy+Nng8hTD17aLIGhlOAAiYF2MAyCchwCjhBYFRtbaBYhn8Oge+YqUcIBeGKvvD62cQy45ir2DU73kZLZ2eupue8FKAABShAgbwW0I5TmDxiOMrC4bxeh1uKTyeT6GpphJSquSVJeXeniP1ge11dwlwiRlOAArkWYAMr1zvA+SlgkUDNBRf41HebfyQFrgFg6t73YGk5AqFiiypjmmwJvLZlK+IJfjfLljfnoQAFKEAB9wmMP+xQ9Csrc9/C8mxFiVgn4u2tZqtOC4lblUMrb6y/n2demcVkPAWcIMAGlhN2gTVQwEKByad8+TypqvcJoMhM2kC4BMHiUoAHmZphzGrsi+s3QFVN/pYyqxVzMgpQgAIUoICzBEYMHIhD+/dzVlGFVI2UiGtvGuzqMLvquApctLZu0YNmEzGeAhRwjgAbWM7ZC1ZCAUsEIpGIZ3t75r9URXlIAAPNJPV/9IZCNrHMKGYnNp5M4rXNW7IzGWehAAUoQAEKuFRgYEUFxgwd4tLVOXxZH71pMGnuTYOQwF5F4mujSsTKaDSacfiqWR4FKKBDgA0sHVgcSoF8EqieGTlWCqn91mmUmbq9/gBCZdobCj1m0jDWZoF9ra3Y+O57Ns/C9BSgAAUoQAF3C5QEg6g53NRXJ3cD2bQ6NZNBrK0Z6aTpoxC2CynObVgWfcWmUpmWAhTIoQAbWDnE59QUsFtg0vQz+ysez3IAk83MJRQPiiv7wuP1mUnDWBsFtr+/B7saG22cgakpQAEKUIAC7hfQ3kT4hQnj3b9QB60wk06hs7kRUjV9s9RqNZOZsXbFkn0OWh5LoQAFLBRgA8tCTKaigBMFtCaWx6PcKYWIQEIxWqPi8SJYVg6f39TRWkanZ9xBBBre2oG2ri46UYACFKAABShgUuDYsWMQ8PGXdiYZexWeSnT3HNauZtK9Gn+AQaqAjGYy6qVsXplhZCwFnC/ABpbz94gVUsC0wLhIxO/vlH8EMM/UGwqFQLi8Er5A0HRNTGCdgJQSr2zajGTa1Jc/6wpiJgpQgAIUoEAeC0waPhyVJXwbs91bmErE0dXaDEhpZqq0FHg0FRbf3BiNJs0kYiwFKOB8ATawnL9HrJAClgjMnz9f+Z9VG78vpPy5mYRCCGhvKCzS3lDIyxECWuNq1ZatSGVM33rviPWwCApQgAIUoEAuBUYdMghD+vbNZQmun7v7ozcNar+EM3NJoVx+xtFjf71gwQK+htkMJGMpkCcCbGDlyUaxTApYJVBVG5knpLwbAn3M5PQHwygqKYWi8HB3M45WxMYSCdRv246Myu9uVngyBwUoQAEKFLbAIZWVOGLI4MJGsGn1qppBd0c7knGTxx5INEkhvrOmLrrQplKZlgIUcKAAG1gO3BSWRAGbBcTE6Wcc6fF6n4NEuZm5FK8PxZX9oCiGj9YyMz1jPxJo64phzY4dUE3+FpOgFKAABShAAQqg5/HBicOGQ/AnJUs/DqqqorN5P9R0ylxegVY1o564dvniBgDmbuEyVwmjKUCBLAvwn+Usg3M6CjhF4KhT5k1IqZmHBTDRTE1CURAqLYevKGQmDWNNCDS2t2P9zndMZGAoBShAAQpQgAL/EigJBlE9ciQUhT8qWfWpSHbHeg5rl+bvFl+rZjxfXbti4XqramMeClAgfwT4r3L+7BUrpYDlAtOmzfe2Bjc8C2Ca2eT/OhdLOyOLV3YF3t2/Hzv27M3upJyNAhSgAAUo4FKBIr8fRx0+Cl4Pj0kwu8XaGVf/Ou/KbC5I8UJ597jpK1cu4FtrTGMyAQXyU4A/aebnvrFqClgmMH5GpNKnqDcB4iIApv5N8PoDCJVVQuEXPsv2pzeJNu/ahb3NLb0ZyjEUoAAFKEABChxEQGtcTR19BHxeL61MCKiZDGJtzUgnEyay9IRKQN6XUpXrNyyPNptNxngKUCB/BUz9sJq/y2blFKDAJwWmTZvmbQ32/SmA7wEImNHRzsUKl1XA4/ObScNYHQJvbn8L7bGYjggOpQAFKEABClDgswSmjhmNoJ/fZYx+SjKpJLraWsyfdwWZAMSvy+ON161cuZJ3XhndEMZRwCUCbGC5ZCO5DAqYFohEPJO7MA9SPgDAZyaf9hhhsLQc2psKedkv8NKGjUhnMvZPxBkoQAEKUIACBSIw/rBD0a+srEBWa+0ytTcM9px3Zf7lMikIcf7qMBYiGuUXHWu3idkokJcCbGDl5baxaArYJiAmzpp7uiLlXQJiqNlZAqFiFJWUgedimZU8cHwilcIrmzbbNwEzU4ACFKAABQpQ4ND+/TBi4MACXLnxJfecd9XRhkSs03iSjyIl5HtSUS5Z+0z0Kb5p0DQnE1DANQJsYLlmK7kQClgnUD1jXhVE+nkpRKXZc7G0RwqLK/ryXCzrtuffMrV0dmLNjrdtys60FKAABShAgcIUqCguRtWI4YW5eAOr1s676mxptOCRQe28KzQJ1XNSw/KFawyUwhAKUMDFAmxguXhzuTQKmBGoOjUyWGTkfQBONZNHi9UOdQ+VVsAbKDKbivH/IbC7sQnb3n+fLhSgAAUoQAEKWCjg9Sg4bvx4CzO6N1U60Y1Yewu0JpYF19PSIy5a83R0twW5mIICFHCZABtYLttQLocClgpo52J1yputONwd2rlYJWU952LxkULrdmnb7vexu6nJuoTMRAEKUIACFKBAj8Dnx43lmwg/47OgPTKYjHci3tEOmD/vSntV4a9XF4sf8rwr/gWkAAUOJMAGFj8bFKDAZwpEIhHPW534ogosAWSpWS5foAjh8j7QGlq8zAusfXsnmjs6zCdiBgpQgAIUoAAF/k2g5vBRKAkGqfJpAlKiq7UJqUS3BT6i3aOIM0aE5ItRHtZugSdTUMC9AvwJ0r17y5VRwFKB6llzjpKquBsCU8wm9vj8CJWWQ/uTl3EBVUqsfmsH2mMx40kYSQEKUIACFKDApwpMOOww9C0z/bs71+lmUknE2luh/WnB9ZoQ8pKGpY+/YUEupqAABVwuwAaWyzeYy6OAlQKjamsDxTL8GAROAeAxk1t7jDBc0Rdef8BMmoKOzagq3ti2DfGEJV8gC9qSi6cABShAAQr8p8CoQw7BkL59CPMJgXQyga6WRmiPD5q8MpB4ulN0zdteV6c9PsiLAhSgwEEF2MA6KBEHUIACnxSYNu38ouZQxwWKFLcDMHcLlRAIhIoRLC4D+K+R7g9aKpPB61u2IJW25NBU3fMzgAIUoAAFKOBmgaH9+mLkoEFuXmLv1yaBeGcbErFOK867SkrgirZ48e92rnzAimcQe78OjqQABfJagD8y5vX2sXgK5E6gunZurYS8BxDDzFbhDQQQLKmAx+s1m6qg4ruTKby2ZYsVvwUtKDculgIUoAAFKNAbgf5lZRh32KG9GerqMZl0GvGOFqQTFtwoJfC2AnHxm0ujy1yNxsVRgAK2CLCBZQsrk1KgMAQm1X51iCK66yDFBLMrFkLpORfLFwyZTVUw8drh7doh7rwoQAEKUIACFLBeoDQUwpGjRlqfOI8ypuIxxNpbrPllmZDrVSlr19Yt3pVHBCyVAhRwkAAbWA7aDJZCgXwUmDR9elh4Sm8RwHcAKObWIOAPhlBUUgpFMXXElrky8iR65wf7sPODD/KkWpZJAQpQgAIUyC+BgM+HY8eOya+iLapWVTPo7mhHMq69KMb0eVeqBO6WmfZr165Y0WVRiUxDAQoUoAAbWAW46VwyBewQqK6de64E7gEQNptfa16FK/vC4/WZTeXq+HU730FTe7ur18jFUYACFKAABXIpcPzECVBEYf3IlEmn0NXcCK2JZcHVJYT4dsPS6EMW5GIKClCgwAUK61/jAt9sLp8CtgrMn69Mfm1zDUTmAQDjzM6lPVIYCIURKC6F9sZCXv9f4OWNm5BMp0lDAQpQgAIUoIBNAtUjR6IsXBjHG2hvFuzubEcy1gUpVStEN0J6zl89dUw9FiywJKEVRTEHBSiQvwL8qTB/946VU8CRApNqZw/xSM+fpJDTAJg+ld0bKEKopBwKD3j/t/1OZzJ4acNGR34GWBQFKEABClDALQKjDhmEIX37umU5B1yHmk4h1tFqzUHtQBpSrFRF5us878r1Hx0ukAJZFWADK6vcnIwChSEwqrY2EEZ4gQCutmLFPOD9/yt2dnfjja3brOBlDgpQgAIUoAAFDiAwoKIcY4cOdbXPhwe1t1p11xWkkLd2ydiPt9fVWfDaQlfTc3EUoIBOATawdIJxOAUo0HuB6plzzpYQd0GgT++jDjzSHwyjqKQMimLyrHgrislxjqb2DqzbyTcQ5ngbOD0FKEABCrhcIBQIYMroI1y5SlVV0d3RhmTconPVJZoEcEnDskWPuhKMi6IABXIuwAZWzreABVDA3QITTjx7gNef/hsgTZ+LpUkJRUG4vC+8fr+74Q6yuvebmrF19+6CNuDiKUABClCAAnYL+LxeHDNmNDwu++VZOplEV2sjpGrZ0VQb00nfCeuff4SvR7b7Q8n8FChgATawCnjzuXQKZEvg6FmRgUkp5wvgWwA8ZufVHin0B0M9d2MV6gHvO/buxbv79pulZDwFKEABClCAAp8h4PV4cNThh6PI7443I/cc1N5z11XMqkcGM4C43ydw46ql0b38MFGAAhSwU4ANLDt1mZsCFPg/gfnzlSNf2/AtVeB6AEOsoPH6AwiWlsPjdceXSj0mm957Dx+0tOoJ4VgKUIACFKAABXQKaMcWHDlyBIqDQZ2RzhueSacQb29FOmnZ0VS7FImb3pw6/nd8y6Dz9psVUcCNAmxguXFXuSYKOFhg8swzhgnhfUICk6wo88MD3svgC4atSJc3OVa/tQOtXRadWZE3q2ahFKAABShAgewKaHd6Txo+DBXFxdmd2OLZUvEuxNrbrLrrChByjYD8UsPSxe9YXCrTUYACFDigABtY/HBQgAJZFxgXifh9nfJqAVwHIGBFAf96pFBRTD+haEU5tud4bfMWxJNJ2+fhBBSgAAUoQIFCFxgzdAgGVlTkJYOqZj5+ZNCiBSSkxE2pEnHbxmiUX0QsQmUaClCgdwJsYPXOiaMoQAEbBCacNG+sx5d5WgAjrEiv/ZY0XNkPXp+7D3iXAF5ctx7aORa8KEABClCAAhSwV+DQ/v0wYuBAeyexIXs6lURX834Lvy+It9Ip5bT1zy3cZEO5TEkBClDgoAJsYB2UiAMoQAE7BWpmzB6kKsq1AC6WlhzwLnoOeA+WlAPCnf/EdXV3Y9XWbXZuC3NTgAIUoAAFKPCRQN/SUkwYdlj+eEiJeEfrRwe1m/9llwAyAO5RVPWW+uWL9+QPBCulAAXcJuDOn+7ctktcDwXcLjB/vlK1asN5ihQLJORQK5areL09TSxfoMiKdI7KsbelBZvf2+WomlgMBShAAQpQwK0CwYAfU0ePzovlpRLdPc0rNZ22pF4J+R6EmL/m6PF/5kHtlpAyCQUoYEKADSwTeAylAAWsFZhUO3uIEMoiITHVksxCwOcvQqi8Atph7265tu5+H+83NbllOVwHBShAAQpQwPECx0+cAMXBd3ZLqSLW2oJUshuw6IgBCfmqhIysrVvM35o5/hPKAilQGAJsYBXGPnOVFMgbgVG1tYFiEb4cEtcAKLWicMXjRVFxac+jhW646rdvR0cs7oalcA0UoAAFKECBvBA4+ojDES5y5l3dyXgM3Z3tUDPW3HUFoE1IeWuHiP1ye11dIi82iEVSgAIFIcAGVkFsMxdJgfwTOHLmnElSKE9LyCEALPm3SnucMFhWgXx+U6EqJV7dtBlJix4NyL9PBiumAAUoQAEKZF9g3GGHon9ZWfYn/owZtTcMxttaoD02aNElBeQuRSin1C+NrrMoJ9NQgAIUsEzAkh8KLauGiShAAQp8QqC6NtJPFfJ6IXGpVTCKx4NAqLjnv3w85D2ZSuH1rduQzmjnqfKiAAUoQAEKUCAbAsMG9MewAQOyMdXB55ASiVhnz3+qhd8HpMCdXo/vJ/VPPdJ48CI4ggIUoED2BdjAyr45Z6QABXQKHFkbmadC3gbgUJ2hBxyu3Y1VVFIGj9dnVcqs5NHeQPjm9reQUdWszMdJKEABClCAAhQA+peXYdyhln0NMUyaSafQ3dFm5V1XWi3vSoir1tRFFxoujIEUoAAFsiDABlYWkDkFBShgXkC7G0tC/gXAdPPZPswghEAgXIKicKlFDylaVdmB87R1dWH1jrchLTqg1f6KOQMFKEABClAg/wXKw2FUjRje890hJ5cEurvakejqsPQ7gIBYDuCchrro/pysi5NSgAIU0CGQo3+BdVTIoRSgAAU+Epg0fXpYUUouhhBXAehrFYzXH+g55F370+nX/rY2bHjnXaeXyfooQAEKUIACrhLQDnA/ctRIeJTsv9U4nUz03HWVTiWtNG2ElLepasc9a1es6LIyMXNRgAIUsEuADSy7ZJmXAhSwTaB6xplVUvE8DYFDIGHZN8meu7GKS3P329VeiL27bx927P2gFyM5hAIUoAAFKEABqwQCPh+0NxF6PR6rUh40j3a3tfZ2Qe2uK8suARUS7ws1c2rD8iVrLMvLRBSgAAWyIMAGVhaQOQUFKGC9wMRTvlKhqN2XCYhrAeG1agbtTKyiklL4AkGrUlqaZ9N77+GDllZLczIZBShAAQpQgAKfLaDdeTV1zGj4vZZ95fjMCVOJOLo72qGdeWXdJdMSuFlVAr9a98zDLdblZSYKUIAC2RFgAys7zpyFAhSwSaB6ZuRYVchfKsBRErDs16L+UBhF4RIonux8Ue0tT/227eiIx3s7nOMoQAEKUIACFLBIoObww1ESLLIo26enUTNpdHd1IBmz7qk+AWRUiFUSmcvW1i1+1dYFMDkFKEABGwXYwLIRl6kpQIHsCBwbiQTjnfJCAL+0ckahKAiVVsBX5Jy7sf6xfgPfQGjlJjMXBShAAQpQoJcCo4cMxqDKyl6O1j8s1R1HrL0F0uo3DQvx/WAL7n/llSh/A6Z/WxhBAQo4SIANLAdtBkuhAAXMCVTPmFelKupPBORp5jL9e7TWwCoqLoMnS48NHKj27mQSr27eYuXSmIsCFKAABShAgV4KDKqswOghQ3o5uvfDMuk0ujvboDWwrLwkxFOKqtzQsHwhz7qyEpa5KECBnAmwgZUzek5MAQrYJTB5ZuR8CPkLABVWzhEsKYM/VJyzQ96bOzqx9u23rVwSc1GAAhSgAAUo0EuB4qIiHHXE4b0cffBh2iHtyVgn4h1tBx+sb0QzpPjB6mXRB/SFcTQFKEABZwuwgeXs/WF1FKCAMQFx5IzIyIxQfySEOMdYik+P0g55D4SL4Q+GrUzbq1y7Ghux/f09vRrLQRSgAAUoQAEKWCsghMDxE8Zb8ousZLwLia5Oiw9p71nvgx54bqyvW7gDgLRWgNkoQAEK5FaADazc+nN2ClDAXgFRPXPuPClwIwDrfmUKwOsvQrCkFB6vH8jSv6Rbd+3G+83N9ooxOwUoQAEKUIACBxQ4ZsxoFPn9xoQkkEklEe9sRzrZbSzHAaPkVgXKj96siz7GxpXFtExHAQo4RiBLP3Y5Zr0shAIUKECBmpMiZWmfepMQ4mJIKFYRaL+J9QWKECyrtOS3sZ9Vl5TAup1vQ3uMkBcFKEABClCAArkRmDxyBMrD+u/C1h4XjLc1I5XohvZ/W3YJqFLKe7wp5fr656KWP4toWZ1MRAEKUMACATawLEBkCgpQwPkCkUjEs60dM6Go8wFxtJUVa28rDIRLEAiGof3fdlyqlGjY/hY64tYe8GpHrcxJAQpQgAIUcKvA2KFDMaCivNfL094omOh5XLDD+rcLQq6C9Pz48BK5PBqNZnpdFAdSgAIUyFMBNrDydONYNgUoYEygpuYCX3pAy61Cym8DCBrL8ulRiuJBqKIS3p7HCq395zWdyaB+23bEk0krS2YuClCAAhSgAAV0CIwYOBCH9u938AgpkU4nEWtphqpa3luKSeBe777Ka+vr708dvBiOoAAFKOAOAWt/wnKHCVdBAQq4XmC+MnnmuhrA8zMI+V9WL/fj87F8Bs/I+JSCUuk0XtuyFVojixcFKEABClCAArkROKRPHxwx+JDPnLznnKsOO8650k63Ei8IRb2qYemEN4EFam4UOCsFKECB3AiwgZUbd85KAQo4QODYSCQY75BXQeBCAIOsLqnnscJQGIrHazp1dzKJVzdvMZ2HCShAAQpQgAIUMC7Qp7QEE4cN+9QEaiaNROzDxwVtuPYIyPvK4iW3rVz5gNUnwNtQLlNSgAIUsF6ADSzrTZmRAhTIM4HqWbMPg6o8JAW+YHXp2plYRT2NrBJTbytsbGvH+nfesbo85qMABShAAQpQQIdAuKgIRx/xHy82lkAi1oFuW8650r4+iBcVD86pfzr6ro5SOZQCFKCA6wTYwHLdlnJBFKCAEYGamhpfpv+w8wFxDYARRnJ8VozH5+856N0fKDJ0Ptbbez/AO/v2WV0W81GAAhSgAAUooEPA6/HguPHjPoyQEslEd88dV9pjgzZcOwB5q2ffzgfq6+t51pUNwExJAQrklwAbWPm1X6yWAhSwWaDmpEhZxi/vhcSXAISsnk47HytUVgHF49GVes2Ot9HS2akrhoMpQAEKUIACFLBe4HPjxsIrBGJtLUgnbXmaLwaJJzxp8e3656Jt1q+AGSlAAQrkpwAbWPm5b6yaAhSwV0BUz5pTI1VxPRScBgnFyum0xwp9gSCCJaUQSu8aWS9t2MgD3K3cBOaiAAUoQAEKGBDwKQrGD+oPkUlBqhafoS6gQsonhcBPG5Y+/oaB8hhCAQpQwNUCbGC5enu5OApQwJTA/PlK9Wvr56lCXCsExlvdyFIUDwIlpfAHgtCaWge6UukM/rlxo6mlMJgCFKAABShAAeMCXkWgzO/HwOIiaE0sS6+exhXWCylvbZg6YSEW8O2ClvoyGQUo4BoBNrBcs5VcCAUoYJfApOnnhOGJnatA3GHHY4U9B70XlyIQKv7UJXTE45g0ZhSu+fpZdi2ReSlAAQpQgAIU+BQBVVXx5LMv4K9Lnrb2duyP55IxFbgCmdCDa1c81MVNoAAFKECBAwuwgcVPBwUoQIFeClTNOvMIAc/3oOJcCHx6t6mXuT5tmMfngz8YRiAY/reD3hvb23HF+fNw3qnTTWRnKAUoQAEKUIACvRXoTiTw1PN/x+NLn8XWt3dq57Vbe0l0QsGDUOSvVj/9+DZrkzMbBShAAXcKsIHlzn3lqihAARsFqmsj4yDxkBSyCkDvDrHSUY92R1aorBJefwBCCOxrbcPC22/AhJHDdWThUApQgAIUoAAF9Apojav6tRtw3R2/QVtHh97w3ozPCInVwuM5581nFm7qTQDHUIACFKDAhwJsYPGTQAEKUMCAQM1pp4VSqaKTBOTPhMAYAykOGuLx+REIhREMl6Duvp/B5/UeNIYDKEABClCAAhTQL5DOZFD3wkt49Mml2LxjJ7RHB62/xCZV4hqfr/u5+qeeilmfnxkpQAEKuFuADSx37y9XRwEK2Cwwtfarpd2y+1ohxHkABtkxXShcjNuuuRRHjh+LYFGRHVMwJwUoQAEKUKAgBeLd3Xhz/Sbc99co1m+x7Um+PVLKPxeJolteq/tre0FCc9EUoAAFLBBgA8sCRKagAAUKXkBU10b6Ssg7AHnOvx1gZRGNx6Ng6KBBuPbi/8aUyRMsyso0FKAABShAgcIVeH31Otxyz+/x3p69yGTsuONKOzlLPCggrmyoizYCsPokrcLdPK6cAhQoSAE2sApy27loClDADoFIJOLZ1oUTIOWVAE62Yw6vx4Op1ZMwd9bJ+OLUo3rOyOJFAQpQgAIUoEDvBKSU+PtrbyD6zApoDSzt0UGbrhVCUW8fFfK8EI1GbZvEptqZlgIUoIAjBfiTjyO3hUVRgAL5LjB55twIBH4J4BC7zhscM3I4Flz+HQwfOpjnY+X7B4b1U4ACFKCArQKpdBpvv7cb839xNza/9bZdc2l3WL0PictWL1sUtWsS5qUABShQqAJsYBXqznPdFKCA7QLVJ59+CLx+7ZHCH0tIWw6vKgoEcOSEsfjW2XMweZwtZ8nb7sQJKEABClCAAnYKrN64Gb975PGes660twzacQmIbkD+WFHVB+uXL95jxxzMSQEKUKDQBdjAKvRPANdPAQrYLjB55lnDoKRvg4paCBTbNeGM4z+Hc2afhtEjhsHLNxbaxcy8FKAABSiQBwLpdBpbduzEg4ufwooXX7avYolOKKiD6r1q9bJHd9o3ETNTgAIUoAAbWPwMUIACFMiCwLRp07ytRQOHQKR/C2C6XVP6/b6etxVe/90LMHjgALumYV4KUIACFKCAYwV27/0AN911P97csAnJZMrOOldAei8s7967a+XKlWk7J2JuClDnz1ruAAAgAElEQVSAAhQA2MDip4ACFKBAdgVE9cy5J0iBiwB5GiACdkyvPVp4/JQanHLCF3Dc0UdCURQ7pmFOClCAAhSggCMEMqqKl1a9iaV/+wdefL3etkcFJdAtgKeFxH0Nyxb9jW8WdMT2swgKUKBABNjAKpCN5jIpQAHnCUw8JVKjSDwgpDwCgN+uCgcP7I8bvnsRJo09HMEiW47isqt05qUABShAAQp8pkC8uxtrN23DjXfeh/c/2GenVlIKsVUVOH/dM9F6OydibgpQgAIU+HQBNrD4yaAABSiQQ4FxkYjfFxOfF6p6DYCT7XpjoaIIjBg6BNOP/xy+fOoMlJWU5HDVnJoCFKAABShgTqCtowOPPbUcK/7xMna8twuqqr0A0JZLS/ysVNVbU6Wef26MRpO2zMKkFKAABShwUAE2sA5KxAEUoAAF7BeIRCKebZ3iNCBzBSCOAeCxa9aKsjKcfXotTjxuKoYPGQwh+D8FdlkzLwUoQAEKWCcgpcTb7+3G8/98DY88WYeWtjbrkv//TBlAvgp47ji8WD4VjUYzdk7G3BSgAAUocHAB/tRycCOOoAAFKJA1gWHTzi8qDXVUKVI8BOBwOycOBYt6Dny/4dKL0L9vpZ1TMTcFKEABClDAlMC+xmb85M77eg5mj8W7TeXqRfA2Vchz2mNNa3auXGn7ZL2oh0MoQAEKUMCuR1UoSwEKUIAC5gSOPTYSjFVgroC8CBLH2vnvtcfjwRenage+H4/PH1WNgN+247jMoTCaAhSgAAUKSqA7kcTL9Q145m8v4u+v1SOTsfUmKAmBV6RQ7q3oCi1aufIBNq4K6tPGxVKAAvkgwDuw8mGXWCMFKFDQAlUz5nwZirhTAH3tfLRQQx4yaCCuuOA8HD1pArQ7tHhRgAIUoAAFsi2g3WG1au163HH/n7Frz167p89IoBGqvHTN8scfs3sy5qcABShAAeMCbGAZt2MkBShAgawJ1JwUKVO96iwpcAMgxto5sUdRcOjgQTjpuGNx7pzTURwK2jkdc1OAAhSgAAV6BDq7Ynjw8Sfx3D9fxbu79yCjqnbLbBRS3qSklaX1z0VtPVDL7oUwPwUoQIFCEGADqxB2mWukAAVcI1Bz2mmhdDrwbQHxTUDa2sjS0IKBAL42+zTMOP5zGD50MBRFcY0lF0IBClCAArkXUFW15y2CK158BX9Z/BTiiUQWipKbJMQfvN7EvfVPPRXLwoScggIUoAAFLBBgA8sCRKagAAUokG2BcdMixf6g/BKAOwHYfgJ7sCiACaMPxzUXfRMjDhuS7eVyPgpQgAIUcKHAjnd24db7/oD1W7Yh3p2NxhWaAVyajIsnNq6MdrqQlEuiAAUo4GoBNrBcvb1cHAUo4HaBCaefPsCb8p8DQPtvkt3r9ft8mFo9CScfdwy+MKUG5aUldk/J/BSgAAUo4CKB1vYOvPh6PZ576VW81rAWyVQqG6tbC+ChtC/50Ponn/wgGxNyDgpQgAIUsF6ADSzrTZmRAhSgQE4EJs+cG5FC/lxIMRACPruLCAeDOHfOaZg982RUlJVAe5shLwpQgAIUoMB/CmhvD2xua8eSZc/hwcefQlc8bj+SREoKuVeBvLyhbvEi+yfkDBSgAAUoYLcAG1h2CzM/BShAgSwK9JyRpfqmQvV8R4E8QwK2d5XKSooxdtQIzJ55Ek74/FRoh8DzogAFKEABCmiHsP/tn69h8bLnsGn7DrR12P/UngC0twoukYp6j1dJvcYzrvg5pAAFKOAeATaw3LOXXAkFKECBfxOYPCsyGVK9EhAnAhiQDZ4hAwfgq2eeimOqJ+KwwYdACP7PTDbcOQcFKEABpwhIKfHO7vfxasM6/HXJ09i1NztP7AlgrwSehxB3rF4aXe0UD9ZBAQpQgALWCfAnC+ssmYkCFKCA4wQikYhneycqVciLBOR1gAhko8hQsAijRwzDlRd+A2NHDc/GlJyDAhSgAAVyLLBp+9u4/bd/xJYdOxGLd2epGpmQED9VIO4bVYzmaDSaydLEnIYCFKAABbIswAZWlsE5HQUoQIFcCRw9KzIwqapnA+KrQqAmG3Vod2BNOGIUjp96FKYdcxRGDTs0G9NyDgpQgAIUyJLA9p3vYuWrq/D31+qxYet2aHdgZeOSEvVC4C9JIR7duDS6Nxtzcg4KUIACFMitABtYufXn7BSgAAVyIjB55pxZEModgBwBICt3ZWkLnTxuDC4572yMGTkc2l1afMQwJ9vPSSlAAQoYFtAaVNrdVZvfehu/+fMjWL1xs+FcBgITgNgBqV6xetnjSw3EM4QCFKAABfJYgA2sPN48lk4BClDAjIB24LuaLjpaCvUCSBEB7H9zoVav1rQaOmggJo09AvNOnYEJow83swzGUoACFKBAlgTWbd6Gx55ZjrWbtuK9PXuzdrcVgBSEjAqp3K94u1fxYPYsbTinoQAFKOAwATawHLYhLIcCFKBALgQmzopM9Eh5NYATAAzKZg3jR49CZNZ0VI8fgyGDBkLhwe/Z5OdcFKAABQ4ooEqJXXv2omHDZkSfWdHziGB2L/E+IF/ICPGzdUuj67I7N2ejAAUoQAGnCbCB5bQdYT0UoAAFcicgxs+IVPgU+Q0AN2Xz0ULtriztkcIjhh+Gi742D1OqJuROgTNTgAIUoABeX7Me9z70KLbtfLfnkcFsnW31EX0CwPUpVfxxw/JoC4DsHKzFfacABShAAUcLsIHl6O1hcRSgAAVyIzDlxDP7JAPKWULia4A4WgKebFaiPWL4uaMm4/M1kzFl8kQE/P5sTs+5KEABChScQHciiVVr1uGfb6zGy/Wrex4RzOYlgAwgV0mBv/gT6qOvP7+kKZvzcy4KUIACFHC+ABtYzt8jVkgBClAglwLiyFPmHpdRcbMAJgMIa8dYZbMgrXl1zuzTeh4zLCstZjMrm/iciwIUcLVAIplEW3snos8sx0NLnob2/2f50u6s6pLAao+KH765fNFLvNsqyzvA6ShAAQrkkUBWfwjJIxeWSgEKUIACnxCYNm2aty3Y7wgpcQqEvBTAkGwDaY2sEYcN6Xm8cPbMk3DoIVk9qivby+V8FKAABWwTePf9PVhc91zPY4I73t2Vi8YVJMR7AvJOAbG0LL5/68qVK9O2LZiJKUABClDAFQJsYLliG7kIClCAAtkTqKmp8aUHDpsnMso3IGQNgNLszf5/M9VMHI8vTZ+G8YeP6nmroc/nzUUZnJMCFKCA4wVSqXTPI4Ebtm3HEyteQP26jbmquR1S1EuP+kfv3p0L6+vrU7kqhPNSgAIUoED+CbCBlX97xoopQAEKOEKgpuYCX2JwR6Uvnfy+KsVVAlByUVioqAj9+lRgzsyT8b/t3WuMXOV9x/Hf/8x1d72+7B3MxazXeH23MRicQGICuEAKCUGrqheqRkqjSnmX9m2FUN9VTdU3kaokUqLSpq0sCAHFpgaKEyBgw+K7d31bm4thb17b673M7MycpzqzhpKm3JK9PDPne6TRmZ0dn/N/Pv9H8uqnc57ztT/4ihYuiO5yZEMAAQQQGB0b18//67/1xLPPaej8BU3kcvOC4qQwMPf3hWT6nzLn6ke6u39AcDUvneCkCCCAQGULEGBVdv+oHgEEEPBCoPOuhxqz6eAbzgUPm7m7JM3L5VA12aw2rLpRt2xYq1s3rtOqjnYFwbzkal70hSIQQCBeAqUwVM/JPu07eFivHzyigz0nNDlPoZWkonP2gln4RG4qfLKXRdnjNRkZLQIIIDALAgRYs4DKIRFAAIE4C9xyf1dbIXR/Z6aHnLRovsKsqActjQ3lBeDv3Xa76utqWQA+zhOTsSNQpQLRwuuXxyf07J6X9fiTz2jw/Mh8jrRo0iUnPVmcSv3tkRf+fWA+i+HcCCCAAALVJUCAVV39ZDQIIICANwLrtz/UomTypkTo/tyZuuYzyKrJZLTs2qXauHql7v3yF7V25QquzPJmplAIAgh8XoEwDHXk+Ent+uUrOnjsuM6+c06T+fznPcxMfr8opx1hYP+iYvHNQ7t/NjiTB+dYCCCAAAIIRAIEWMwDBBBAAIFZF1h9f1dbWu6vVH6KodbIqWbWT/oJJ2hrbtLdt9+mrTdt0LJrrlZbS7MC47/E+ewJ50YAgY8XCJ1T/+CQzr77nn7dfVAvvPKa+oeG55fMNCmno3L6xVRg/3xs547++S2IsyOAAAIIVLsAf61Xe4cZHwIIIOCRwNatXTX5hVrqgvCvnfQtyeZlrawPSBKJQNG6WVGg1XX/dj14z53KZtIeiVEKAgjEWSCXn9LTz72oHTt3lwOraD2rUimcZxIX3Sb4w0Cl79VPLj63Z89P5mdl+HlW4PQIIIAAAnMvQIA19+acEQEEEEBAUnSLoSUTXzWn+yXdLWnxfMOkUymt61yhTWtWadOaTq3vvFEL6mrnuyzOjwACMREYG5/Qod4T2n+0V/uP9uhQzwkVikUfRn9R0vPOtNMVS7/gFkEfWkINCCCAQPwECLDi13NGjAACCHgnsLWrqyY35r7l5L4rWYskL1KjTDqtO7feoq9vv0srly8rX62VSae886MgBBCoTIH8VKF8VdXx02f11O4X9OKrrytalN2TbcKZBhLO/nGkte5HZ3/ClVae9IUyEEAAgdgKEGDFtvUMHAEEEPBPYHVXVzp7OewMA90hZ9+StNGXKhcvrNfSthbdeMMyfWnLZm3ZtE612awv5VEHAghUiMBELqe9+w/rpX3dOnHmrM71D+ri6GWfqj8gcz8KQr2Uqw96j+3Y4U2i5hMStSCAAAIIzL0AAdbcm3NGBBBAAIHPKLDp/odvdi74Syn8gmQrJXlz+VMmk9aW9Wv15dtu1sr2ZVra1qoo5DIWg/+M3eVrCFS/gHOuHE692z9QvsrqV3vf0L5DR5TPe5UJFUzqdbJXzcIf7t/5xBvV3xlGiAACCCBQiQIEWJXYNWpGAAEEYiawfvsjdcls7qrSlPsbM31TklcrrUdrZ9XUZLVi2XV68O5t5SccRrcbsiGAQDwFotsCn3/5Nf38uT06dfbt8m2CU4WCbxhTzunHibT9QzGXff/Q7sfHfSuQehBAAAEEEPioAAEW8wEBBBBAoKIENn79LxZrauzLzukuM7tTzq2WFPg0iOjphsuvv06rOm5Q5/IbtKqjvXyVVjaT8alMakEAgRkQyOXzOt53Vj2n+tR7+ox6Tp3R6bfe9uBpgb81uFBmx5xzL5rpBaWLvzzw1FPR4uxsCCCAAAIIVIQAAVZFtIkiEUAAAQQ+RsDW3vvwuqTZdyXdJ2mRJC9TosBMX7x5k+7bdoc2r1+tutoa1WQyCgKvsjcmGgIIfIJAGIaazOc1Nj6pNw8f1a49L+uVN/YrdM5Xt7ykS5J2lcy+d3jnjsO+FkpdCCCAAAIIfJoAAdanCfF7BBBAAIGKEFj31T9ZkrRCpyuFX5HsEUnRmllebtGVWK1NjWpradKGVSt168Z1WnPjckVPPWRDAAG/BKKnAh49cVp7DxzWwZ7j6h8c1sDweUVXXvm6OVOvOT1uCXux6FK9h3/x0wu+1kpdCCCAAAIIfFYBAqzPKsX3EEAAAQQqSmDjvX90i1npkdDpC2bquHJ1lrdjiMKrtSs7dNPaVVp74wpd1dKk5sYGLapfwMLw3naNwqpJIFpw/dLlMQ2eHymHVEdOnFT34R4dPXFKUYjl+XbJOZ0KTL92LvH4gWf/83XP66U8BBBAAAEEPrcAAdbnJuMfIIAAAghUksDWrV01l5uTC1PF4nYn9x05bZHk9f9/0e2G6XRa2Uxabc1N2nbbLdq29ZbyOlpsCCAwswLR+lUv/nqffrn3DfUPDSuXn9LU1JTPtwV+AOBk2udk3y8lk7vrh4qjr766Y3JmdTgaAggggAAC/gh4/Qe8P0xUggACCCBQJQK28d6vX++UuN1Md0jRyzp9D7Q+sF+4YIE6ll2njmXX6oZrl2rZNUt1/TVXq7WxgbW0qmSCMozZEYjWrho4P6K33n1PZ989pzPvnNOps++UnxA4OjY2Oyed+aM6yfWa2a/C0L1sKr184Nmn3pLk7QJcM0/AERFAAAEE4ixAgBXn7jN2BBBAAAFtvOfhFUrqO076hskaJNVWSqD1QfsWL6zXlg3rtHXzRt20plOLFtYrk04pnUoRbDHHYyUQBVVThYLyUwVdGr2sN4/26NXuA9p38Igujl6uNIsomJpwciMmPamivn/guSdOVtogqBcBBBBAAIGZEiDAmilJjoMAAgggUNECmx94oFal7PJiGG6wwB6Q0/2SFlTaoBJBoCjQalyyWE0NS9Rx/bVau3KF1tzYUV5Xy4z/+iutp9T78QLRulXvDw6X16k6cvykTr31joZHLuj8hYvlwKoUhpXINybTThe6Z1wieSAVTPR1P/PMRCUOhJoRQAABBBCYSQH+ip1JTY6FAAIIIFA1Atu2bUteqmvYFrrgAZNudk7tJrVW2tVZH21ItCB8dAtitJbWje3LdHVrs5YsXKjFixZqycJ6JRKJqukfA6kegVKppAujl3Xx0qgujI7qvYEhneg7q2jtqugWwGjh9QrenJMGzKnPBXojsPCZReMje/bs2VOs4DFROgIIIIAAArMiQIA1K6wcFAEEEECgmgQ67rsvkwkX1CVcuCIR2Ded6c8k1VX6GKPAKp1KKpVKKZNKqbOjvfwUxE1rOrWqY3n5d2wIzLXAVKGonlOn9eaRHu0/2qPeU2eULxRUKBQU/S4KtKpgGzenfy2F7sclC07mg7HxU7t25atgXAwBAQQQQACBWRMgwJo1Wg6MAAIIIFCtAps3b06Vmjs2OivdZqYtcrpV0opqGm8ykVBrc5PamhrV2tyo1mh/5X1bU1P5s+hWRW5JrKauz/5Yolv+olv7BobOq394uLwfGJ5+9X/wfmhYxeoIqT4KelKmvc5pn7nEa4mhUwe6u7sLsy/OGRBAAAEEEKgeAQKs6uklI0EAAQQQmEeBDX/YtdRK7o9l6jKn5aFUZ1J2Hkua9VPX19Wpc/kyrVqxXKtXtKtzebvq62qVTCYVBWDJZKK8D4Jg1mvhBPMvEC2gHgVPxWLpyr6oy+MT6j3dp2Mn+9Rz8rR6T5/V5fHx+S92FitwUi6Qxp3ptJx2WCr50/1P/8d7s3hKDo0AAggggEAsBAiwYtFmBokAAgggMHcCjwbrtx9qSiSD65yzlXLubmd2t0nXzF0N83em2pqs6mprtaC25sN9w6JFuqq1WUvbWrS0tUVXt7WUr+yKgi62yhMoFIvlK6be6x/UuYFBnesf1PsDQxq5dEljExMan5jU2MSkxicmNDGZq7wB/g4VO7l3zOkFmT1v5o6XiuHbh3avH5Yeq8hV5H8HAv4JAggggAACsy5AgDXrxJwAAQQQQCD2Ao8+Gmx47cgqmbYHFtwpuWXOdK2cFsfVJnpaYktTg65ubVVbc6OaG5aoubFBTUsWq35BnWqyGdVks6rJRPvp99lspnxFF9vMCURXTOVyeU3mcpqM9vn/fX95bFzDFy5q6PyIhkYulG/xe29gQIPDI5X6dL+ZgTNddE7vBLKzoQtflNPug7et7dFjhFUzA8xREEAAAQQQ+P8FCLCYGQgggAACCMytgK3f/khtIpGrLVppVeCCBwPZ15xcx9yW4e/ZolsOo4ArkYheiSvvp/fRExOvaW0pr8/V1LBYjYsXq2HxIjVeed+4ZJHSqZS/g5vDyqYKBZ2/cEnnL17U+ZGLGrk4/X545KIGhob17sBg+cl+pTAsL4z+4b4Ult9HtwSyTQuY7FQo9/PQwqeTLtFTKmUnDu1+fEKSwwgBBBBAAAEE5kaAAGtunDkLAggggAACnyRgm+558KowmV4raZ1Ja6K9pNWSaqH7fAKZdFrTtzLWqLamRnXR+5oa1dRkFf0unZ5+6mIUdKWjn1PJ6c/LP09//tGfPwjTzAIFgZWDtOh9FLBFYVtgNr3/8DX951UYunII9OHLTf9cKoVy7oOQyE2/vxIaTU1FT9orKD81Vd7/5s9FTV35PHoqX/S76HuTkzmNT05qfDKniWg/MVm+dS/6HdvnFohCqWOSDjvpqJkdskL+6P7nnn6fsOpzW/IPEEAAAQQQmFEBAqwZ5eRgCCCAAAIIzJzA5s3fTrmWC3c46SEnd4+kFk0vDJ+RxMroM0fNkeInEF1elpcULdI1aNJukz1lg0te6u7+AU8HjN98YMQIIIAAAhUgQIBVAU2iRAQQQAABBLZt25a8nGloLgbWZkFwtUpuvaRbzbTFSVchhAACnyrwvpz2SdqrhB1yYfheMnT99fmRoT179hQ/9V/zBQQQQAABBBCYVwECrHnl5+QIIIAAAgj83gK26f5vXOcs2GKhbpVsrZO7Smat5lyTk1j1/Pcm5gCVImBSyZkNy7kBk70vuSMu0F5z4b79O598m9sAK6WT1IkAAggggMBvCxBgMSsQQAABBBCoIoGurq5EXy6XyU1ls5mMGsJi6Xa54EuSbpe0nFsPq6jZDCUSiG4FPC3pZVn4qyCZeDmf10g2ncu1Z7P5HTt2lGBCAAEEEEAAgeoQIMCqjj4yCgQQQAABBD5V4Nb7/nThVFi8IbSwPTDX7kztcrpBUrtU3qc/9SB8AYG5F4hWoz8jqU+mM+bUFzrrC1zQlw6SZ/bu+rfRuS+JMyKAAAIIIIDAXAsQYM21OOdDAAEEEEDAQ4FHH300ePr1IzeF0h1ywRdN4UbJFl4JtaJgK3pxO6KHvauCkqKrpKKQ6srLjToFB2ThK4H00oO3rH3zsccei660YkMAAQQQQACBGAsQYMW4+QwdAQQQQACBjxd4NNh897H6QqAGWWlJwoIlTu4aBbZSzq0ys04XarlMKRQR+MwCTgWZnZJcr0y9Ct1xk71bcuGFwNIjiWLpQvfzqy9LBFaf2ZQvIoAAAgggEBMBAqyYNJphIoAAAgggMNMCmzd/O1VovtAeONfpAnWaXLucLZVpkaSF01dwuegqruiVnOnzczyvBKKn+I1KNiq56Ja+UTldkrlzTtZnoXpDs97U0JK+7u4fFLyqnGIQQAABBBBAoCIECLAqok0UiQACCCCAQMUI2OqurlRNLpfUZDalmmSq6IqZoKjrJK0OA61WqNVmbrVU/oyt8gTeds6OKdCxINQxScfCpN5OWjKvyWJBNbnCZDZbPLZjRxRUucobHhUjgAACCCCAgI8CBFg+doWaEEAAAQQQiIFAx333ZeoSC5rCUA1Jp4bQqSFIqMGFrtFJDSbX4BQ0mFODolsZnWuUXINktTHgmYMhugmn4LyZRhRqxJlGTOGIk42YNGKBnQ9LGglMI0XTSBBoZLw0Nnxq1678HBTHKRBAAAEEEEAAgd8QIMBiQiCAAAIIIIBARQms3/5InSuNtyayQZsrha2BJdqcuVZzanWyVsm1Sa7FyepMCq4sPh8tQB/93RP9HL3MSYH9n8+u/M4nj2jx8ugqpmgfOsnZ9PsPP7vyPloIveSk0OTGJRuUbMDM9TtpwJwNhE79lnADxbA4EE6mBo7t2THm00CpBQEEEEAAAQQQ+CQBAizmBwIIIIAAAghUpUC0RtfY0v7sAleXKRTzWRcoHbhUUqViyhJByhQmFQYpBaVUtA/lkglTOnSWVWB1UlgnqTaUJROhEi5ax8ssaaaEcy5a0ytpij4vv084WTKQku7K0xpNKoVS0eSi9aFKJis6KQqaimZWdE4lOVc0qVgKVAqmvzchBeMK3XhgLldymkpYUHBWKipMFBSEBaeg6EphQYlkIbRC0UJNpZKZ3JiN5xeca8uxxlRVTmcGhQACCCCAQOwFCLBiPwUAQAABBBBAAAEEEEAAAQQQQAABBPwWIMDyuz9UhwACCCCAAAIIIIAAAggggAACCMRegAAr9lMAAAQQQAABBBBAAAEEEEAAAQQQQMBvAQIsv/tDdQgggAACCCCAAAIIIIAAAggggEDsBQiwYj8FAEAAAQQQQAABBBBAAAEEEEAAAQT8FiDA8rs/VIcAAggggAACCCCAAAIIIIAAAgjEXoAAK/ZTAAAEEEAAAQQQQAABBBBAAAEEEEDAbwECLL/7Q3UIIIAAAggggAACCCCAAAIIIIBA7AUIsGI/BQBAAAEEEEAAAQQQQAABBBBAAAEE/BYgwPK7P1SHAAIIIIAAAggggAACCCCAAAIIxF6AACv2UwAABBBAAAEEEEAAAQQQQAABBBBAwG8BAiy/+0N1CCCAAAIIIIAAAggggAACCCCAQOwFCLBiPwUAQAABBBBAAAEEEEAAAQQQQAABBPwWIMDyuz9UhwACCCCAAAIIIIAAAggggAACCMRegAAr9lMAAAQQQAABBBBAAAEEEEAAAQQQQMBvAQIsv/tDdQgggAACCCCAAAIIIIAAAggggEDsBQiwYj8FAEAAAQQQQAABBBBAAAEEEEAAAQT8FiDA8rs/VIcAAggggAACCCCAAAIIIIAAAgjEXoAAK/ZTAAAEEEAAAQQQQAABBBBAAAEEEEDAbwECLL/7Q3UIIIAAAggggAACCCCAAAIIIIBA7AUIsGI/BQBAAAEEEEAAAQQQQAABBBBAAAEE/BYgwPK7P1SHAAIIIIAAAggggAACCCCAAAIIxF6AACv2UwAABBBAAAEEEEAAAQQQQAABBBBAwG8BAiy/+0N1CCCAAAIIIIAAAggggAACCCCAQOwFCLBiPwUAQAABBBBAAAEEEEAAAQQQQAABBPwWIMDyuz9UhwACCCCAAAIIIIAAAggggAACCMRegAAr9lMAAAQQQAABBBBAAAEEEEAAAQQQQMBvAQIsv/tDdQgggAACCCCAAAIIIIAAAggggEDsBQiwYj8FAEAAAQQQQAABBBBAAAEEEEAAAQT8FiDA8rs/VIcAAggggAACCCCAAAIIIIAAAgjEXoAAK/ZTAAAEEEAAAQQQQAABBBBAAAEEEEDAbwECLL/7Q9JuSD8AAAQoSURBVHUIIIAAAggggAACCCCAAAIIIIBA7AUIsGI/BQBAAAEEEEAAAQQQQAABBBBAAAEE/BYgwPK7P1SHAAIIIIAAAggggAACCCCAAAIIxF6AACv2UwAABBBAAAEEEEAAAQQQQAABBBBAwG8BAiy/+0N1CCCAAAIIIIAAAggggAACCCCAQOwFCLBiPwUAQAABBBBAAAEEEEAAAQQQQAABBPwWIMDyuz9UhwACCCCAAAIIIIAAAggggAACCMRegAAr9lMAAAQQQAABBBBAAAEEEEAAAQQQQMBvAQIsv/tDdQgggAACCCCAAAIIIIAAAggggEDsBQiwYj8FAEAAAQQQQAABBBBAAAEEEEAAAQT8FiDA8rs/VIcAAggggAACCCCAAAIIIIAAAgjEXoAAK/ZTAAAEEEAAAQQQQAABBBBAAAEEEEDAbwECLL/7Q3UIIIAAAggggAACCCCAAAIIIIBA7AUIsGI/BQBAAAEEEEAAAQQQQAABBBBAAAEE/BYgwPK7P1SHAAIIIIAAAggggAACCCCAAAIIxF6AACv2UwAABBBAAAEEEEAAAQQQQAABBBBAwG8BAiy/+0N1CCCAAAIIIIAAAggggAACCCCAQOwFCLBiPwUAQAABBBBAAAEEEEAAAQQQQAABBPwWIMDyuz9UhwACCCCAAAIIIIAAAggggAACCMRegAAr9lMAAAQQQAABBBBAAAEEEEAAAQQQQMBvAQIsv/tDdQgggAACCCCAAAIIIIAAAggggEDsBQiwYj8FAEAAAQQQQAABBBBAAAEEEEAAAQT8FiDA8rs/VIcAAggggAACCCCAAAIIIIAAAgjEXoAAK/ZTAAAEEEAAAQQQQAABBBBAAAEEEEDAbwECLL/7Q3UIIIAAAggggAACCCCAAAIIIIBA7AUIsGI/BQBAAAEEEEAAAQQQQAABBBBAAAEE/BYgwPK7P1SHAAIIIIAAAggggAACCCCAAAIIxF6AACv2UwAABBBAAAEEEEAAAQQQQAABBBBAwG8BAiy/+0N1CCCAAAIIIIAAAggggAACCCCAQOwFCLBiPwUAQAABBBBAAAEEEEAAAQQQQAABBPwWIMDyuz9UhwACCCCAAAIIIIAAAggggAACCMRegAAr9lMAAAQQQAABBBBAAAEEEEAAAQQQQMBvAQIsv/tDdQgggAACCCCAAAIIIIAAAggggEDsBQiwYj8FAEAAAQQQQAABBBBAAAEEEEAAAQT8FiDA8rs/VIcAAggggAACCCCAAAIIIIAAAgjEXoAAK/ZTAAAEEEAAAQQQQAABBBBAAAEEEEDAbwECLL/7Q3UIIIAAAggggAACCCCAAAIIIIBA7AUIsGI/BQBAAAEEEEAAAQQQQAABBBBAAAEE/BYgwPK7P1SHAAIIIIAAAggggAACCCCAAAIIxF7gfwD8KOPWpD3wIgAAAABJRU5ErkJggg==;" parent="1" vertex="1">
          <mxGeometry x="470" y="230" width="80" height="80" as="geometry" />
        </mxCell>
        <mxCell id="WjoS6a5MXgaJo1_vFzQs-35" value="" style="endArrow=classic;html=1;rounded=0;strokeWidth=2;" parent="1" edge="1">
          <mxGeometry width="50" height="50" relative="1" as="geometry">
            <mxPoint x="140" y="402.08000000000004" as="sourcePoint" />
            <mxPoint x="220" y="402.08000000000004" as="targetPoint" />
            <Array as="points">
              <mxPoint x="180" y="402" />
            </Array>
          </mxGeometry>
        </mxCell>
        <mxCell id="WjoS6a5MXgaJo1_vFzQs-36" value="&lt;font style=&quot;font-size: 16px;&quot;&gt;&lt;b&gt;:5432&lt;/b&gt;&lt;/font&gt;" style="edgeLabel;html=1;align=center;verticalAlign=middle;resizable=0;points=[];" parent="WjoS6a5MXgaJo1_vFzQs-35" vertex="1" connectable="0">
          <mxGeometry x="-0.1724" y="2" relative="1" as="geometry">
            <mxPoint as="offset" />
          </mxGeometry>
        </mxCell>
      </root>
    </mxGraphModel>
  </diagram>
</mxfile>
